<?xml version="1.0" encoding="UTF-8"?>
<svg id="Layer_1" xmlns="http://www.w3.org/2000/svg" version="1.1" viewBox="0 0 2839.9 2168">
  <!-- Generator: Adobe Illustrator 29.6.1, SVG Export Plug-In . SVG Version: 2.1.1 Build 9)  -->
  <defs>
    <style>
      .st0, .st1 {
        fill: #282725;
      }

      .st2 {
        fill: #19758c;
      }

      .st2, .st3, .st4, .st5, .st6, .st1 {
        stroke-miterlimit: 10;
      }

      .st2, .st3, .st4, .st6, .st1 {
        stroke: #f7e1ba;
        stroke-width: 4px;
      }

      .st3 {
        fill: #664e5b;
      }

      .st7 {
        fill: #fdce4f;
      }

      .st4 {
        fill: #997c8b;
      }

      .st8 {
        fill: #f7e1ba;
      }

      .st5 {
        fill: none;
        stroke: #fdce4f;
        stroke-width: 8px;
      }

      .st6 {
        fill: #493641;
      }
    </style>
  </defs>
  <g id="Background">
    <polygon class="st6" points="249.2 617.6 239.6 1370.3 435.4 1381.6 446.3 1805 2623.8 1908.6 2649 742.6 2444.8 477.9 249.2 617.6"/>
    <path class="st2" d="M2703.2,258.2l-188.5-187.9H324.9l-136.6,136.1-51.7,51.5v794.3l31.8,31.7-31.8,31.7v794.5l188.5,187.9h2189.8l188.3-187.7v-794.7l-31.6-31.6,31.6-31.6V258.2ZM2360.1,698.7c4.8-7.8,14.8-9.1,22-12.1,8.4-3.7,11.9-4.5,16.7,1.3,4.5,5.5,6.3,12.8,7.3,19.8,1.5,10.9-4.9,20.1-12,27.5-5.7,6-10,8.8-17.7,6.9-10.3-2-21.3-6.6-22.8-17.5,0,0-5.2.3-5.2-.3-1.2-7.9,6.8-17.7,11.6-25.6h0ZM1954.8,906.2c1.1-7.2,3.8-14.6,6.9-20.8,4.4-8.5,15.2-11.2,20.7-17.4,6.1-6.8,14.9-13.5,18.1-21.8,2.7-6.9-4.4-17-6.7-27.8-1.7-8-5.7-15.1-7.8-23.5-1.7-6.4-3.5-13.8-3.9-20.6-.4-6.8-2.7-15.7-.9-22.2,2.1-7.2,9-14.7,14.1-19.7,5-4.9,14.8-4.8,20.9-8.6,6.2-3.8,12.2-8.2,17.7-12,11.7-7.3,13.6-14.7,15.5-22.7,1.9-8.1,3.1-16.5,2.4-28.8-.2-5.7-.4-11.2.8-14.8,2.3-8.1,10.9-3.4,17.3,0,8.4,4.4,13.6,10.4,19.8,17.5,6.1,7,17.1,9.7,23.4,16.5,5.6,6.3,13.3,9,19.9,14.1,6.6,5.1,13.2,8.8,20.4,12.9,7.6,4.4,16,8,23.4,12.5,7.4,4.6,8.3,17.5,13,25.4,3.5,5.9,7.3,11.5,8.4,18.3,1.1,6.8,5.5,13.7,5.6,20.5,0,9.3-3.6,18.8-4.7,28.2-1.1,9.3,1.9,20.2-.8,29.1-3,10.5-6.1,20.6-8.5,31.2-1.9,7.9-10.1,14.4-9.4,22.3.7,8-1.9,18,1.4,25.4,3.2,7.7,6,15.8,9.3,23.7,3.3,8,14.2,13.2,15.6,21.4,1.5,8.3-1.8,16.7-4.2,25.2-2.1,7.7-4.5,15-9.7,20.8-5.1,5.7-7.8,15.9-14.1,20.4-5.9,4.2-15.5,4.7-22.3,8.1-7.1,3.4-15.3,7.2-22.6,7.2-9.1,0-12.1-10.2-17-15-5.2-5.2-19.4-7-21.1-14.8-1.6-7.4-.7-17.1-.1-24.6.3-10.8,7.9-20-1.8-27.7-.7-.4,1.7-3.2,1.6-3.2-6.1-4.7-14.1-6.3-22.1-4.7-6.8,1.2-14.1,2.2-20.3,5.5-6,3.3-8.7,12.6-14.6,16.2-6.1,3.7-13.4,6.5-19.7,8.6-10.1,3.4-19-2.5-27-5.2-8-2.7-22-1.3-27.7-10.4-3.6-5.8,1.7-16.7-.4-23.7-2.1-6.6-7.8-12.7-8.3-19.8-.6-7.1-1.3-14.8-.2-21.7h0ZM2017.7,1199.5c-6.1,5.9-12.3,3.2-18.4.2-5.8-2.8-7.3-10.1-10.4-16.4-.6-.7-6.4,4.8-6.5,4.7-3.6-7.2-6-17.1-6.3-26.3-.3-9.2-2.1-20.9,1.1-28.3,4.7-10.1,17-7.2,24.2-6.8,7.2.3,19.8-1.8,23.7,8.7,2.2,5.7.2,14.9,1.2,22.6.9,7.1-7.2,13.9-8.1,20.7-1,7.8,3.9,16.1-.4,21h0ZM1780.4,1130c1.1-7.4,7-12.8,12.4-19.3,5.2-6.2,4.2-18.8,9.4-24.1,4.8-4.4,15.3-3.8,19.8-9.1,4.6-5.5,4.8-15.1,8.4-20.3.5-.4,4.4,4.1,4.4,4,7.8-10.3,13.3-19,24.9-16.3,7.9,1.6,17.9,5.2,23.8,11.6,5.6,6,6.2,14,7.8,21.9,1.5,7.2,3.3,13.5,1.4,20.4-1.8,6.5,1.4,15.9-1.9,22.7-3.2,6.3-11.3,10.6-15.2,16.7-3.9,6.2-4.9,15.6-9.9,20.6-5.1,5.2-17.7-.4-24.2,2.7-6.3,2.6-10.6,7.2-17.5,6.6-6.8-.6-14.7,1.3-20.9-1.6-6.9-3.4-14.5-8.9-18.9-14.9-4.5-5.9-4.8-15.1-3.9-21.6h0ZM425.9,1173.6c-3,5.6-6.2,11.8-10,18.1-3.4,5.6-12.6,9.3-14.3,15.7-1.9,7.6,6.6,17.4,5.3,25.1-1.4,7.7-14.3,10.5-19.1,17.1-4.8,7.3-6.6,15.7-14.4,19.1-7.8,3.4-15.7-1.4-24.3-1.9-8.5-.5-14.3-1.2-21.6-5.7-7.4-4.3-24.3-2.6-27-10.8-2.4-7.1,11.5-16.5,13.9-24,2.4-7.3,6-10.5,11.4-15.8,4.9-5,11.6-13.8,13.5-19.8,1.4-7.9-7.6-15.1-13.1-21.4-4.5-5.2-6.2-10.9-7.6-19.4-1-5.9-1.5-11.3,1.8-20.4,2.5-7.1,5.6-13.8,8.6-20.7,3.1-7-1.3-13.7-1-21.2-.5-1.4,1.6-1.8,1.6-1.9.5-6.9,4.9-14.3,4.6-21.7-.3-7.6,2.4-13.2,4.9-19.7,3.6-9.2,1-8,8.2-.1,6.9,7.5,14.2,14.3,18.5,23.7,4.7,10.5,12.4,16.8,18.4,26.3,5.1,8.1,10.7,15.3,17.9,21.6,6.5,5.7,10.2,14.3,15.4,20.9,5.5,6.6,17.2,9.9,17.8,15.5.6,6.8-5.9,14.9-9.4,21.4h0ZM458,900.7c-5.2-5.6-8.4-14.8-11-23.1-2.7-8.3,2.8-16.8,4-25.3,1.3-9.9-.4-20.6,4.5-29.3,3.4-5.8,9.7-9.3,13.5-14,4-5,7.8-10.4,13.6-13.2,0,0,.5.8.5.8,8.2-3.9,17.2-2.7,26.2-.2,8.8,2.5,17,6.7,23.8,11.9,6.9,4.9,10.8,11.7,14.2,19.3,3.4,7.5,4.5,15.4,5.1,23.6.5,7.3-1,14.1-2.4,21.4-1.4,7.4-1.1,14.4-6.5,19.9-4.6,4.8-9,12-15.4,14.8-6.9,3.1-16.4-2.7-24.1-1.8-7.8,1-16.5,12.4-23.9,10.7-8.9-2-17.1-10-22.3-15.6h0ZM515.5,1109.3c-5.7,5.2-6.1,4.8-15.2.3-6.5-3.4-9.5-5.7-13.1-12.4-3.5-6.6-12.6-11.1-13.7-18.1-1.3-8.1-5.6-17.4-4.4-25.1,1.2-7.9,4.5-17.8,8.9-24.7,6-10,20.5-7.4,29.1-10.3,8.6-2.8,16.6-2.8,27.3-2.2,7.1.2,14.7-5.4,20.8-3.1,6.3,2.4,12.2,6.8,17.5,11.1,5.1,4.1,12.4,7.3,16.7,12.9,3.8,4.8,6.9,15.9,9.1,24.8,2.4,9.7.9,22-6.2,25.4-5.6,2.2-12.9-1.5-19.5-2.2-6.3-.7-12.7-4.1-18.8-3.5-.4,0-.2,2.6-.3,2.6-8.5.2-15.6,4.3-21,9.5-5.7,5.6-12.1,10.3-17.2,15h0ZM750.3,1537.9c-1,8.7-2.7,13.6-9.5,19.7-6.2,5.6-10.3,13.4-18,17.9-6.5,3.6-15,4.1-21.8,7.4-7,3.5-12.4,16.1-20,16.2-6.4,0-14-1-20.2-2.3-6.1-1.3-11-8.2-17.3-9.7-8.5-2.2-13.2-11.2-21.2-15.3-6.1-3-18.7,3.8-24.5-.1-5.1-3.6-4.6-16.8-10.3-21.1-6-4.5-16.4-4.4-19-10-2.6-5.3-3.7-12.3-3.4-18.2.5-6.6,1.3-13.3,1.3-20,0-6.8-3.6-10.8-6.8-16.9-3-6.2.5-16.3-3.8-21.4-4.4-5.1-6.3-9.8-8.6-16.4-2.6-7.2-10.9-13.9-11.2-22.7-.3-8.5,2.8-17.3,3.1-25,.5-6.2-4.4-15.9-1-21,4.5-6.3,16.9-7.9,24.8-8.6,7.5-.7,17.1,0,23.7,2.9,0,0-3.8,3.5-2.5,4.6,8.8,3.7,21.2,1.2,29.7,5.5,5.9,2.9,9.7,11.2,15.3,15.1,5.6,3.8,13.9,7.1,17.4,13.1,3.7,6.2,7.3,13.7,9.7,20.8s4.9,14,7.4,20.7c2,5.3.9,10.1,3.8,13.6,5.6,7,12.3,8.4,21,6,7.5-1.9,19.1-1.3,25.4-6.4,4.5-3.4,6.6-18.2,12.5-18.6,6.8.3,17.8,7.9,21.9,13.9,3.6,5.4-1.5,16.7.7,22.8,3,9.2,1,18.4,1.2,28.1-.1,8.5,1.1,16.9.2,25.2h0ZM1749.3,1795.5c-3.9,6.8-10.1,12.8-16.7,15.5-9.4,3.2-17.2-2.7-27.7-7.1-8.7-3.7-17.6-6-25.3-10.8-7.7-4.8-13.9-12.8-22.5-16.8-7.2-3.6-14.8-9.8-22.9-12.1-8.4-2.3-16.9-2-24.1-4.7-5.4-2.1-8.7-6.3-12.8-10.9-4.3-4.8-10.1-5.5-2.3-11.6.6-.7-1.6-1.9-1.6-1.9,4.3-3.6,10.4-10.8,17.6-13.2,6.7-2.1,15.2-.6,21.2-1.6,10.4-1.8,22.3,1.2,32.6-1.4,10.1-2.5,19.1-10.1,29.3-9.6,8,.3,14.8,6.8,22,10.1,7.2,3.3,14.2,6.6,19.8,12.2,5.6,5.7,13.5,10.5,16.7,17.8,3.2,7.2,6.3,16.3,6.2,24.4,0,7-5.7,15.2-9.5,21.9h0ZM1857.9,1236.5c-2.9,6.2-2.3,13.8-5.6,19.6-4.9,8.5-7.1,19.3-14.1,26.1-4.4,4.2-9.1,9.5-14.6,12.4-5.7,3.1-13.3-3.8-19.3-3.5-7.2.4-11.6-.3-18.3-2.8-7.8-3-20,1.7-26.6-3.4-6.6-5.2-4.4-17.2-8.1-25.1-2.9-5.7-8.9-9.4-10.2-15.6-1.3-6.2,2.1-11.6,3-17.9.8-7-4.4-16.1-.8-22.3,3.8-6.6,12.2-9.4,18.9-11.6,1.2-1-1.9-4.3-1.8-4.4,8-2.1,17.1,3.1,25.8,5,8.4,1.8,17.1,2.9,25.2,4.1,9.2,1.7,19.1,5.2,27.1,2.6,8.1-2.7,13.3-13.6,21.2-17.6,8.2-3.8,19.9-6.5,23.3-2.1,2.8,5.3-3.5,14.3-4.5,21.1-1.3,6.6,2.2,15.2,0,21.7-2.2,6.4-17.6,7.5-20.5,13.6h0ZM2162.4,1790.8c-.6,10.1-5.8,18.7-9.7,27.9-4.4,11.1-4.8,23.4-12.8,26.8-7.7,3.2-19.2,4.8-30.3,4.2-7.9-.3-13.9-7.6-19.2-10-6.3-2.8-15.6-2.8-20.2-8.1-4-4.6,1.8-17.3-2.4-23.5-5.5-8-14.1-13.2-20.3-17.6-6.2-4.4-15.2-2.4-25.7-2-7.6,0-15.6-2.2-23.5-1.6-7.9.6-15.6,1.9-23.2.2-7.5-1.9-14.9-5-20.8-12.4-5.2-6.8-4-18.4-9-25.5-4.9-7.1-12.4-12.5-17.5-19.5-5.1-7.1-8.4-15.8-13.9-22.4-7.1-8.5-15.1-16.8-22.5-25.1-4.5-5.1-18.3-9.6-23.8-18.4-6.2-9.9-3.8-15.4,7.3-20.2.4-.2-3.2-6.6-3.1-6.6,7.2-2.6,15.2-2.3,22.9-2.2,7.7.2,13.3,6.5,20.4,9.3,7.2,2.8,15.6,1.9,21,7.4,4.7,4.7,14.8,4.7,19.2,9.7,4.5,5-.1,19.6,5.3,23.6,6.1,5,16.2,4.1,23.1,6.7,7,2.7,15.6-1.7,23-.2,7.3,1.5,12.9,11.1,20.3,12.7,10.6,2.5,25.1-2,34.3,3.6,7.3,4.4,7.9,20.8,16.2,23.8,6.7,2.6,16.2-1.2,23.6,0,7.3,1.1,15.1,0,22.1,1.6,4.5,1,8.1,4.4,12.2,6.5,6.2,3.2,14,5.4,18.2,10.9,4.2,5.5,10.8,11.7,12.8,18.3,2.1,6.7-4.1,15.4-4.3,22.2h0ZM2171,1363.8c-6.2,2.8-13.9.6-20.6,2.8-5.8,1.8-11.2,2.4-17.4,3.5-6.1,1-11.7,12.1-17.8,11.6-4.4-.3-11.2-10.4-18.1-13.4-7.9-3.4-9.6-3.6-3.1-10.3.7-3-9.4-5.8-9.4-5.8,5.3-4.8,15.4-9.4,23.6-11.9,7.9-2.5,16.3-4.8,23.2-6.8,9.9-2.8,19.7-2.9,27.8-9.4,6.2-5.1,7.8-14.3,13.4-20.7,5.5-6.2,16.5-7.8,22.5-13.3,6.2-5.7,15.3-4.1,23.2-7,7.4-2.8,15.9-17,24.9-15.3,9.1,1.8,12.6,15.7,17.5,22.3,4.2,5.9,5.8,10.4,5.5,17.4-.3,6.9,2,14.9-4.1,19.9-7.1,6-17.2,7.8-26.4,11.1-9.1,3.2-19.8,1.9-28.5,4.8-6.6,2.1-14.4,2.8-20.6,5.6-6.3,2.8-9.5,12.3-15.7,15.1h0ZM2268.9,1454.7c-1.2,7.5-7.1,12.5-10.8,18.8-6.7,11.9-9.9,23.5-15.9,21.7-5.9-1.7-11-13.3-16.5-22.7-3.1-5.2-9.8-7.1-14-11.5-7.6-8-11.9-16.8-18-25.2-5.3-7.1-14-18.9-10.1-27.6,3.2-6.7,11.1-13.3,16.8-14.9,5.5-1.5,13.9-2.4,20.7,0,.8,0-.1,4.7,0,4.8,7.6,2.4,19.5,4.7,28.2,10.6,8.8,6.1,14,17.4,18.1,24.1,3.9,6.9,2.6,14.3,1.4,21.9h0ZM2475.2,1820.6c-.6,8.3-3,16.1-9.2,19.7-6,3.5-14.6,4.9-22.1,5.2-7.4.2-14.1-9.2-21.6-10-7.4-.7-15.3,3.8-22.7,3.2-7.6-1-16.2-.6-24.3-1.7-8.6-1.1-17.5-.9-23.9-4.9-8.3-4.8-9.8-14.9-12.4-23.7-2.5-8.8-7.5-22.6-2-30.9,3.3-1.3,8.1,8.8,8.1,8.8,4.6-7.2,4.1-18.3,11.3-20.3,7.2-2,16.6-2,24.4-.4,7.7,1.5,14.4,8.2,20.8,11.5,10.1,4.9,22.9,1.8,33.9,4.6,11.1,3.2,21.1,14.5,29.3,20.5,6.6,4.7,10.9,10.4,10.2,18.3h0ZM2613.8,973c-1.5,5.8-16.1,6.9-18.9,12.3-2.8,5.5,3.9,18.6-.8,22.5-5.7,4.8-13.3,8.9-19.6,12.9-10.2,6.2-23.5,6.1-34.6,11.3-7.7,3.7-14.3,12.5-21.5,13.4-8,1-14.5-10.8-21.8-13.9-6.6-2.8-14.5-2.9-20.4-9.4-5.6-7-2.6-12,.2-18.6,2.6-6.2-.4-18.2,5.2-23.5,5.7-5.4,23.2-3.7,28-7.8.6-2-9.6-5.1-9.5-5.2,6.8-5.9,16.1-7.1,21.6-11.9,6.2-5.5,12.7-7.9,20.3-11.2,6.4-2.8,12.4-7.4,21.9-8.1,10.2-.8,22.4-7.9,32.1-5.3,8.8,2.3,9.2,14.7,10.9,20.7,1.7,6.1,9.2,14.7,7.2,21.8h0Z"/>
    <path class="st0" d="M69.9,4v2160h2700V4H69.9ZM2703.2,1052.5l-31.6,31.6,31.6,31.6v794.7l-188.3,187.7H325.1l-188.5-187.9v-794.5l31.8-31.7-31.8-31.7V258l51.7-51.6,136.6-136.1h2189.8l188.5,187.9v794.3Z"/>
  </g>
  <g id="Borders">
    <path id="Southern_Kendrisia" class="st4" d="M1761.9,1590.5c0,3-8.8,6.7-15.2,10,.1-.2.1-.2,0-.1-6.5-.5-12,.2-19.9-1.1-6.9-1.1-13.4-5.6-20.8-6.9-7.2-1.3-14-4-21.2-5.4-7.4-1.4-19.8,24-26.8,22.7-7.7-1.5-13.7-9.2-20.3-10.3-8.7-1.5-15.1-6.8-20.7-7.2-10.2,1.2-25.2-7.2-36.1-5.1-7.3,1.6-25.1,13-23.8,22.8,0,6.8,19.1,13.1,19.1,20.1,0,7-15.6,14-15.6,20.8,0,7,20.6,12.6,20.3,18.3-.2,4.3-16.9,14.8-20.7,14.1-6.2-1.3-11.5-23-22.4-25.8-8.7-2.2-22.9,14.4-31.6,12.2-10.6-2.7-16.6-21.6-23.1-23.1-7.8-1-25.4,5.1-27.3-1.8-3.5-8.9,15.8-23.3,14.1-28.9-4.4-13.8-11.1-28.7-16-29.7-3.8-.7-11.6,20.7-24.2,22.4-7.4,1-17.3-9.9-25.8-8.6-7.9,1.2-15.6,5.8-23.6,7-8.5,1.3-15.2,12.5-22.6,13.6-10.1,1.5-19.4-1.4-24.9-.7-8.6.7-10.1-22.5-18.9-25.7-9.3-4.3-18.2-9.5-27.6-13.8-6.1-3.2-35.4,10.4-35.8,3.5-1.3-8.3,10.9-18.9,8.3-26.8-1.8-5.9,5.8-21.7.8-26.6-5.2-5.1-14.1,1.5-9.5-6.1,2-4.5,13.4-7.2,16.2-13.3,2.8-6.3-11.5-20.1-9.6-24.3.8-2.4,8.1-5.9,5.2-7.6-7-1.1-15.5,9.4-24.1,9.6-8.3.2-16.8-12.2-24.1-12.7-7.5-.4-19.1,7.6-24.8,2.8-5.6-4.3-10.3-10.6-15.7-15.4-5.5-4.9-9.4-10.5-17.5-9.8-12.1-.5-21.8-3.1-33.7-7.3-5.8-1.7-12.6-2.5-18.9-4.3-6.3-1.9-15.1,4.1-20.8,2.2-5.1-1.5-5.7-10.6-5.6-15.3,0-6.4,8.8-17.6,8.8-29.3s-4.4-21.1-4.4-29.3c.1-11.4,1.8-29.6-9.7-32.6-10.5-3.2-25.9,16.4-36.4,15.3-2.3.4-3.1-10.5-3.5-5.4-.6,5.8,14.3,13.9,13.9,21.5-.4,6.8-29.9,12-30.4,18.8-.6,7.7,17.1,17.6,15.8,23.1-1.8,2.6-9.6-1.8-13.2-.3-7.2,2.5-21-1.8-31.3,2.3-10.3,4.1-15.4,21.7-22.8,23.9-5.2,1.2-14.2.6-17.8-2.5-6-5.6-12.5-17.5-18.5-23.2-6.5-5.4-14.8-11.9-14.8-20-.5-6.4-4.4-14.5-5.2-24.1-.7-8,14.7-17.9,13.9-26.1-.8-9,.9-17.6.4-24.7-.2-6.8-11.7-10.5-16.8-14.5-5.3-4.2-15.1-3.6-20.8-7-5.2-3.6-15-17.5-20.3-14.2-5.9,3.5,0,26.9-5.9,30.3-7.8,5.1-11.2-16.5-18.3-20-5-2.6-12.8-2.7-18.8-5.5-6.1-2.8-11.2-7.1-16-9.8-7.2-3.1-5.6-.6-2.8-5.2,4.3-6.1,1.2-20.1,6.6-27.6,6-8.5,14.8-14.2,18.3-19.1,1.6-2.5,19.9-4.7,18.9-7.6-2.7-5.3-28.3-13.2-34.4-13.5-5-.2-4.9,12.3-10.1,15.5-8.9,4.6-21.8-.8-31.4-9.5-5.2-3.6-16.2-1.1-21.7-5.1-5.5-4.1-11.6-7.4-16.7-11.1-5.4-3.9-11.8-10.6-7.2-14.4,4.7-3.9,19.5-.2,26.7-5.9,6.9-5.5,9.6-16.4,14.7-20.6,3.9-3.2,20.6-9.4,18.7-14.8-2.1-6.3-31.4-4.8-33.9-10.8-1.2-3,17.8-3.2,20.6-5.5,6.3-4.2,8.2-15,15.6-19,7.2-3.9,17-3.3,23.7-7.1,9.3-5.1,17.7-5.9,28.2-6.4,8-1.1,32.8,1.8,36.3-5.8,2.2-7.7,6.8-17.2,7-25.3.3-7.9-17.4-16.6-17.2-24.7.9-11.3,10.3-32.6,26.2-23.7,7.4,3.4,3.2,31.4,11,35,7.7,3.6,22.4-7.5,29.8-4,12.3,7.8,9.2-7.6,14.2-15.6,4-6.9,14-10.6,11.5-18.2-1.2-5.6-4.4-12.9-6.3-21.4-1.6-7.1,7.3-17,5.7-24.1-1.8-8.4-12.7-14.2-13.9-19.9-2.8-10.8,3,3.9,12.1,1.8,6.4-1.1,9.7-19.6,16.5-20.8,6.8-1.2,13-5.1,19.4-6.2,7.5-1.5,6.3,16.5,11.5,20.6,6.9,5.3,19.6,3.1,26.7,8.5,8.6,6.6,14,19.5,22.1,25.8.4.3.9.5,1.3.7,3.2,4.5,7.9,7,14.2,10.2,5.9,3,11.2,8.1,16.6,10.2,9.6,3.7,20.5,3.7,30.4,5.7,5.5,1.1,10.3,1.5,15.8.5,9-1.5,7.3,28.9,15.4,28.5,3.8-.3,9.2,8.7,15.8,12,6.5,3.3,16,2.2,18.7,4.9,5.2,5,2.5-23,7.6-17.4,4.1,4.6,8.1,6.1,13.8,8.3,5.8,2.3,10.4,7.9,14.1,12.1,0,.9,1.5,1.6,6.1,3.3,9.5,3.9,18.2,13.1,27.5,16.6,7.2,3.2,15.2-10.1,24-12.1,9.4-2.2,24.7,1.8,30.2,9.1,5.4,7.8,16.3,14.7,16.8,19.8.4,4.9-25.9,3.4-31.6,11.7-5.5,9.4-6.3,23.9-11.8,33.1-1.5,3-2,26.8,1.2,27.8,8.2.8,18.9-16.6,27.8-16.7,8.6,0,17.4,2.1,25.9,2.3,8.8.2,16.1,11,24.3,12.7,7.6.9,23.8-4.4,20.5,5.8-1.2,7.1-23.2,9.4-24.9,16.7-1.7,7.3-2.3,19.7-1.5,27,.9,7.6,26,13.5,26.7,22.1.7,8.2-14.8,18.1-14.1,26,.9,9-2.8,19.7-1.6,26.7,1.2,2.6,11.8,11.9,14.5,12.7,4.6,1.2,18.7-21.9,27.3-19.8,6.7,1.7,13.1,6.6,20.1,8.3,7.8,1.9,12.9,12.4,18.7,13.9,6.7,1.3,14.6,9.7,20.8,6,9.1-4.8,9.8-19.5,15-22.5,12.4-7.1,18.5-.3,23.9,6,3.2,3.8-.7,15.2,5.9,25,3.7,5.5,26.2-1.5,32.1,6.1,6.4,7.1-7.2,21-8.4,30.7-.4,6.6,9.6,14.9,9.1,22.5-.4,7.4-17.6,13.1-18,19.8-1.6,9,14.3,30.9,6.5,34.5-3.8,2.1-4.8,8.9-8.8,10.8-5.3,3.1-21.7-14.7-28.1-11.9-6.7,3-13.2,14.9-17.7,18.7-4.3,8.1,4.8,23.7,5.3,32.1.6,2.9,6.7.6,9.1,2.4,2,1.5.6,19.9,5.9,20.1,5.7.3,11.7-13.3,18.6-13,7.4.2,14.8,1.8,22.3,2,7.5.2,15.1,4.2,22.5,4.4,9.5-.5,14.8-.7,18,6.2,2.5,5.4,1.5,13,4.2,18.9,2.7,6,16.7,6.7,19.3,11.8.2.5.4,1,.5,1.3h.1c7.5-.4,18.2,5.5,28.5,5.2,10.4-.3,21.1,16,28.4,15.7,8.5,0,17.6-17.2,26-13.1,7,3.9,6.2,24.7,14.4,29.3,7.8,4.3,22-2.4,29.4,1.7,9,5.1,8.3,22.9,14.1,26.5,3.1,2.8,22.5-3.4,22.8.9h0Z"/>
    <path id="Northern_Kendrisia" class="st3" d="M1923.4,429.1c-.8-.6-2.3-.2-5.1,1-5.9,3-15.2-1.9-21.6.8-6.2,2.6-4.5,23-10.5,26-6.2,3.1-8.9,7.4-14,11.6-4.8,4.5-13.2,5.8-18.5,10.4-5.5,4.7-4.1,10.2-7.3,16.1-5.5,11.2-10.3,23-15.2,27.7-5,4.7-23.6,8.8-37.8,6-6.2-2.6-16.4-13.6-21.2-19.6-4.7-5.8-7.4-9.5-12.3-13.3-5.7,2-15.3,3.5-25.4,7.3-8.1,3.1-16.5,7.8-24.9,11-9.6,3.7-17.3,10-24,12.5-5.9,2.6-21.1-8.7-22.7-2.2-1.9,8,12.1,19.2,10.6,27.4-1.5,8.2-28.3,10.9-30.1,19-2.1,8.3,20.9,25.7,17.5,33-2.5,3.9-14.3-12.8-21.3-13.7-8.1-.9-17.2.9-26.2-.6-9.3-1.6-19.3,6.8-27.2,6.6-7.4,1.4-5.3,13.4-11.1,18.5-4.5,5-23.7,4.6-21.3,12,2.7,9.8,24.7,19.7,24.3,29.9-2.4,7.5-24.6,5.5-33.1,7.2-6.8.4-7.5,1.2-13.9-1.4-6.2-2.5-13.9.9-19.6-2.8-5.9-3.8-12.2-6.9-17.5-10.4-3.8-2.3-20-1.1-21,3.2-1.7,6.5,7.6,17.4,6.3,24-2.2,7.5,11.3,9.1,14.3,15.2,2.9,6,1.1,14.3,4.7,20.3-.5-2-.6-5,2.1-6.7,7.5-3.7,20.4-8.6,28.4-11.4,6.2-1.6,17.7,12.3,21.6,16.7,5.2,6.3,1.1,25,6,31,6.3,8,13.7-1.3,22.2-5.6,4.6-2.3,8-10.9,13-13.4,7.5-3.8,23.9,11.2,28.3,7.8,4.2-3.3-.8-16.5,1.9-25.3,3.1-6.8-2.2-17.9.9-25.5,3.1-7.8,17-11.1,20.3-17.6,4.1-6.1,9.7-17.7,17.6-19.9,5.8-1.8,15.8,9.6,21.8,8.2,6.2-1.5,24.7,3.7,28-2.4,4-6.1,1.4-15.6,5.3-20.8,4-5.3,3.9-27.6,13.7-24.9,11.6.7,4.9,25.8,9.2,30.9,4.2,5.1,5.6,11.5,11,20.1,6.2,8.6,32.8-4.4,37.4-9.5,2.4-3.4-8.3-15.9-7.3-19.8.7-5,2.9-12.8-.9-20.4-3.6-7.1-21.5-7.2-23.3-12.2-4.3-7.2,9.2-16.3,16.2-20.2,10-5.5,18.6-16.6,31.1-13.5,5.7,1.3,12.5-1.2,18.4.1,6,1.3,12.5,2.6,18,4.5,4,1.7-8.6,15.9-6.6,19.6,2.5,4.8,15.5,6.9,19.3,14.2,3.6,6.8,7.2,13.6,10,19,2.9,6.6,7.9,7.4,4.2,13-5.8,9.8-20.7,17-26,27.3-4,13.4-3.2,20.6-5.2,25.4-1.8,4.4,2.7,6.9-14.4,8-8.7.8-15.6,14.9-24.2,16.2-8.5,1.3-17.2-1.1-25.9.6-7.6,2.4-29.4-6.1-33.2.8-1.6,9.5,15.8,18.3,20.4,27.5,4.2,6.3-8.7,25.2-3.3,32.1,5.3,6.9,23.7,4,28.2,10.2,3.2,4.4,7.1,15.8,4.2,21-4.3,5.8-12.5,20.5-19.6,24-8.9,3.1-24.5-5.5-33.6-6.2-4.8-.8,1.9-11.5-.1-16.6-2-5.6-12.7-8.7-14.5-15.5-1.8-6.7-16.6-9.5-18.2-15.2-1.6-4.8,4.2-6,1.5-7.4-9.1-3.4-18.1-21.5-28-21.7-4.7.6.5,18.9-2.1,23.7-2.9,6-5.1,12.2-8.3,20.2-2.7,6.7-7.5,13-10.4,20.5-2.7,7-28,5.2-30.9,12.3-2.9,7.1,5.6,18.9,2.4,25.8-3.3,7.2-5.2,14.9-8.8,21.3-4,7.1,1.1,20.3-3.3,25.9-6.7,9.9-33.1,3.2-41.5,12-5,4.6-4.3,19.2-10.9,18.9-7.2-1-15.8-.9-22.3-4.1-7-3.2-4.1-11.3-3.4-18.3.3-8.2,12.6-21.2,13-29.5.1-3.4-14-10-18.1-9.3-10.2,2.1-17.9,21.3-28.2,24.7-6.4,1.9-15.1-7.7-20.4-4.7-5.4,3-12.8,2.8-17.9,6.8-5.1,3.8-10.5,9.2-8.4,16.3,2.5,7.7,8.2,15.1,12.1,22.3,3.4,5.3,12,.4,18.1,3.2,5.9,2.8,6.1,17.7,11.2,20.8.9.5,1.7.8,2.2,1.1-2.4-.7-7.6-1.5-12.1,1.4-6.1,4-2.3,17.2-2.3,24.4-1.8,9-14.8,20.3-16.4,29.2-.5,3.5-8.1,15.6-6.4,18.9,4.3,6.2,28.1-9.2,35.9-7.1,10.1,1.6,14.7-8.3,24.6-10.2,6-1.6,6.5,21.8,9.6,26.4,3.4,5.2,17.6,4.8,20.2,10.3,2.4,5.6-10.4,8.4-14.1,14-3.5,5.4,3.4,17.8,1.3,22.5-5.3,7.4-20,15.8-15.9,22.9,2.5,5,22,3.3,25.4,10.1,3.5,6.9-7.6,22.3-5.2,27.2,7.2,10.2,2.8,10.4-2.8,18.7-4.1,5.6,3.8,11.4,7.9,15.6,5.8,6.4,3.2,28.4,9,34.8,2.2,2.6,5.6-7.3,4.9-3.8-1,3,13.3,15.2,11,17.5-4.9,4.6-11.7,10.8-16.4,15.1-5.8,5.9-14.2-8.4-22.2-11.8-6.4-1.9-21.4,11.3-30.9,8.5-9.7-2.9-18.4-7.9-24.5-9.7-13.2-2.2-21-18.6-20.2-29.2.5-9.3,9.1-17.5,6.2-24.5-.9-1.7,4.2-21-.3-21.3-5.3-.6-11.8,1.3-18.3.6-6.4-.7-14.8,14.2-20.2,13.6-6.9-1.4-17.8-4.3-18.6-12.6-1.7-13.6,3.7-17.8,7.2-24,3.7-6.4,10.2-9.3,19.1-18.3,5.8-7.2-5.4-18.2-13.1-22.4-4.9-2.2-13.5.5-19.2-2.1-8.8-3.8-15.9-4.1-19.8-6.4-7.5-4.5,3.3-8.2,5.4-17.8,1-4.8-14-14.7-13-23.6,3.2-11.9,1.9-12-7.4-15.3-9.1-3.1-19.8-12.1-28.6-15.1-4.4-1.6-10.7,1.6-11.9-.8-1.7-4.9-9.4-14.1-7.8-22.2,1.5-7.8,6.8-14.2,6.7-19.4-.2,1.9-.9,5.4-3,5.3-6.5,0-16-2-26.2-2.3-8.5-.3-17.6-1.1-26.1-1.3-10.2-.3-4.5,6.7-11,7-4,1-11.4,5.3-13.8,8.5-5.1,7.4-14.7,6.4-20,14.3-4.1,5.8-5.2,10.5-6.5,17.9-1.2,7.1,11,11,4.1,23.7-3.7,6.8-7.9,8.6-8.1,10-3.8-4.2-8.3-9.8-14.1-12.1-5.6-2.2-9.7-3.7-13.8-8.3-5.1-5.6-2.4,22.4-7.6,17.4-2.7-2.7-12.1-1.6-18.7-4.9-6.6-3.3-12-12.4-15.8-12-8.1.5-6.4-30-15.4-28.5-5.5,1-10.3.5-15.8-.5-9.9-2-20.8-2-30.4-5.7-5.3-2-10.7-7.2-16.6-10.2-6.3-3.2-11-5.7-14.2-10.2,4.9,1.7,8.5-6.3,12.8-6.3,7.7-3.8,4-16.6,10.2-23,6.4-5.8,14.5-.7,12-7.3-2.4-6.3-12.8-10-15-15.8-2.5-5.3,4.7-14.5,9.8-16.3,6.5-3.3,25.1,3.3,30.1-2.9.8-2.8-12.2-6.5-13.4-9.3-2.2-4.4-4-10.7-7-16.6-3-6-4.6-12.9-6.8-17.1-4.6-12.3-9-10.3-19.5-7.2-10.3,3.1-25.4,3.3-33.7,5.8-8.8,3.8-13.1,2-20.8-2.7-8.7-4.4-12.8-9-17.8-18-6.9-11.9-9.7-26.2-15.2-29.6-5.6-3.5-19.1,20.9-33.1,21.1-4.8.6-10-10.5-10.1-4.3-.6,4.8-4.2,15.7-4,26,.2,11.3,9.5,24.4,6,26.9-5.1,3-9.7,9.7-15.6,12.3-5.9,2.6-13.3,7.5-18.9,9.2-7.2.3,2.6-25.2,1.5-30-.8-5-9.5,1.7-14-.2-5.1-.7-6.5-13.6-12.3-11.2-4.3,2.2.8,6.7.2,12.2-.2,7,3.2,15.2,3.2,24.7,0,8.2-26.3,17-26.3,25.4,0,9.1,2.3,18.1,2.2,25.5.5,7.5,9.5,11.7,3.8,14.7-6.8,3.9-16,5-22.9,8.9-13.3,7.8-24.7,10.1-18.4,28.2,2.2,8.2,5.2,18.8,7.5,27.4,2.4,10.3,14,20.5,3.2,25-5.5,3.2-9.8,13.7-18.6,18.9-7.3,4.3-23.3-5.1-30.6-.9-8.9,5.2-12.2,18.3-17.7,21.4-6.5,3.7-17,2.7-24.2-1.5-6.8-5.1,1.2-18-2-25.7.5-5.9-11.6-9.7-9.7-16.9,1.7-6.5,3.3-13.4,5.2-19.9,2.1-7.3-10.4-18-9.3-23.7,2.4-7.3,14.3-11.5,8.8-15.8-4.2-3.1-6.2-12.2-11.5-15.9-5.4-3.8-24.1,10.7-28.1,7.5-4.1-3.1-7.5-17.6-6.4-22.4,1.6-6.5.2-16.1,2.5-25.3,2-8,16.2-13.3,18.2-21.2,2.3-9.5,12.9-17.3,14.1-23.5-.5-7.8.5-19.7-2.9-27.7-3.9-7.7-26-7.5-29.8-15.2-2.3-5.1.6-20.3-5.6-20.1-10.2-.3-18.8,10.3-26.1,10.4-12.2.1-20.4-1.9-26-2-12.9-.1-.6-3.8-1.9-18-.5-6.2,1.4-17.3-1.2-28.5-3-9.8-21.9-8.8-33.3-8.5-3.1-.3-9.1,3.3-11.8,2.8-2.5-.5,2.8-11.3,3-13,5.1-10.8,6-29.5,18.5-32.8,7.3-2.5,18.3,5.3,26.1,2.9,8.2-2.5,12.5-11.5,19.2-14.6,4.5-4.6-13.5-11.1-14.2-18.9-2-9.9,14.2-23.2,12.3-33-.9-6-7.3-13-.4-16.3,5.5-3.4,19.3,6.5,25.2,3,5.7-3.5,1.4-23.6,7.1-27.1,5.9-3.5,7.8-14.5,13.3-17.9,10.5-5.5,20.4,4.4,20.5,0,.1-4.4-3-9.5-5.3-19.1-3-7.6-12.9-19.3-10.4-26.8,2.4-7.3,28.1-7.1,30.2-14.2,2.8-7.1-4.6-17.8,2.8-20,9-4.6,17.8-9.2,24.2-17.5,3.8-8,17.1-13,19.2-21.6,1.7-9.1-3.7-19.6-.6-28.3,3-8.6,19.8-13.1,22.7-21.9,2.4-8.5-19.4-18.9-20.8-27.4-1.8-7,16.9-24.1,12.2-29.5-3.5-3.1-11.2,15.7-15.2,16.7-14.8,4.5-30.9-9.3-33.9-4.9-2.8,4.2.7,15.5,2.1,31,1.7,14.2-6,11.4-16.2,22-5.8,6,.8,36.2-7.4,38-11.5,2.1-21.9-14.5-24.1,3.5-1.9,10.2-5.1,20-4.3,30.5.3,7.3,5,20.3.4,25.4-5.1,2.7-18.3-11.7-24.5-10.4-6.2,1.3-7,25.5-12.4,27.1-7.5,1.7-13.1-9.9-13.2-3.5-.3,8.1,9.4,18,9.3,27.8-.1,9.8-11.3,19.3-12.1,27.3-2,7.5,3.6,21-.7,27.7-6.8,9.8-27.2,24.2-40.2,16.5-6.2-2.1-18-26.8-23.3-21.3-4.1,5.4-6.4,15.7-11.5,23.3-4.4,6.5,4.2,22.4-.3,29.1-4.8,7.1-17.8,8.4-22,14.5-3.9,5.5,4.5,21.1.5,25.4-4.1,4.4-11.6,10.1-16.9,14-4.6,2.7-5.4-18-6.8-21.4-2.1-5.5-19.2-8.1-21.4-14.2-2.8-7.2,2.8-14.9,9-21.1,3.9-5.3-2.8-23.9,3.6-32.5,6.3-8.5,29.6-4.3,33.6-9.8,4.5-5.8,15.6-10,18.9-16.6,3.3-6.5-12.2-22.2-8.8-28.8,3-9.2,28.6-22.6,23.6-32.2-4.9-8.7-18-13.4-23.3-22-4-6.7-4.8-9.9-3.8-16.3,3.5-8.4-7.2-26.2-1.7-33.8,4.5-7,21-3.3,28-4.3,8.1-1.1,30.7,4.2,34-2.1.7-7.2-.2-18.2.1-25.6.4-7.3-2.9-14.8-2.5-22.2.3-7.3-3.6-14.6-3-21.9.6-7.4-13.5-16.9-12.3-24.1,2.2-10.3-1-29.3,5.3-37.2,3.3-3.7,11.7-8.7,19-17,4.9-5.6,24.4.4,30.3-6.3,5.3-6-2-23.6,3.7-29.9,5.5-6.2,26.9,1.5,32.3-4.7,5.7-6.5,7-16.6,12.2-22.4,6.2-7.1,19.7-9.1,24.2-14.3,2-4.3-9.9-19.6-11.6-23.5-3.2-4.8-3.6-12.1-6.7-17.8-3.2-5.8-16.4-3.5-20.8-7.4-5.5-2.5-6.5-20-15.1-23.3-6.9-2.7-19.5,7.7-27.1,4.9-7.5-2.8-10.7-17-17.7-19.7-4.7-1.8-11.4,2.2-17.4,5.6-4.9-16.6-4.1-15.2,5.1-16.6,9.2-1.4,17.8-6.7,26.9-8,11.3-1.6,24.5,6.2,36.4,4.9,12.4-1.4,24.4-22.5,35.4-21.8,13,.6,19.8,26.1,31,31.2,11.1,5.1,29.9-2.8,40.1,4.7,9.9,7.3,5.2,34.3,15.2,41.9,11,8.3,30.1,6.1,41,14.4,11.3,8.6,17.2,27.5,28.9,33.9,12.5,6.9,32.8,8.5,45,7.6,12.1-.9,19.7-27.2,32.3-31.8,13.7-5.1,26.8-11.6,40.5-17.2,13.8-5.7,27.4-12.8,41-17.9,10.8-4.1,26.3,4,37.2,1.6,11.2-2.4,20.8-.9,32.6-.7,11.4.5,23,2.3,34.7,2.9,11.5.6,23.3-2.5,35-1.9,11.5.6,22.7,8.1,34.4,8.7,11.6.6,22.9,5,34.6,5.7,11.6.7,22.7,9.5,34.3,10.2,11.6.7,23.6-4.9,35.1-4.2,11.6.7,23.2,2.9,34.7,3.5,11.7.7,23.3,1.5,34.8,2.1,11.7.7,24.4-16.7,35.8-16.1,13.6,1.1,28.9-8,42.9-6.8,14.4,1.2,28.2,15.6,40.6,21.2,10.7,4.9,18.6,14.8,28.6,21.2,9.9,6.3,27.6,1.3,37.3,7.9,9.8,6.7,20.4,10.2,30.5,16.1,12.2,7,15,32,26.6,34.3,10.5,2,20.3-19.7,31.3-21.5,10.4-1.7,23.6,10.5,34,6.9,10.3-3.5,22.8-1.2,32.8-4.9,10.6-3.9,14.9-28.2,24.8-30.7,16-4.1,32.2,8.8,46.6,14.6,8.9,3.9,24.6,1.4,31.6,8.5,7,7,14.2,15.2,20.5,22.4,8.2,9.8.1,33.3,8.3,43.1,8.2,9.8,17.6,18.7,25.7,28.5,8.2,9.9,23.2,14,31.4,23.8,8.2,9.9,21.5,18.7,29.6,28.5h0Z"/>
    <path id="Outside_Land" class="st1" d="M2456.8,188.2c-6,6.7-15.8,10.5-20.1,18-3.8,8.2-8.3,15.4-8.9,24.7,0,4.9.5,15.4-3.8,18.2-8.1,4.6-26-6.9-34.3-2.4-3.5,2-10.7,6.4-12.7,9.9-2.7,4.7-8.3,10.6-12.1,17.3-3.9,6.8-4.6,16-7.2,20.6-3.8,8.6-7.3,3.3-16,6.9-8.1,3.8-14,14.1-22.6,18.1-8.5,4-10.5,22.3-18.7,26.1-8.1,3.6-17.8-10.4-26.6-10-4.8.4-8.8,8.4-13.7,8.7-3.4-.6-26.8,7.2-23.8,1.2,2.8-6.6,19.9-9.6,23.4-16.5,4.6-7.4-26.2-17.7-29.1-25.1-.8-1.5-.7-3-.2-4.3-7.9,3.6-17.8,3.6-23.7,10.1-2.3,3.4-5.9,2.9-6,6.9,0,5.3,8.9,12.4,8.9,19.6s-22.6,14.5-22.6,19.3c-.2,5.1,10.2,5.3,4.5,7.3-6.4,2.9-7.6,20.4-15.4,23.9-6.9,3.1-12.7,9.9-20,13.2-7.3,3.3-16.9,1.4-23.9,4.5-7.9,3.5-22.1-8.6-28.5-5.7-5.5,2.5-4.9,17.9-11.5,17-5.9-.4-11.1-14.1-17.9-15.5-7.1-1.4-15.4,1.8-21.2,2.8-2.8,1-1.1,11.2-2.1,15.5-1.9,6.8-3.3,14.9-5.1,22.7-2,8.2-8.4,15-10.7,21.2-1.3,2.4-2.6-4.9-5.2-4.7-5.4.1-13,20-22.5,20.3-7.3.2-15.8-22.6-23.8-22.4-8,.2-15.5,16.6-22.8,16.7-9.7.2-18.8-15.9-23.9-15.8-.6,0-1.2.2-1.6.4-10.6,4.9-10.1-13.6-10.5-19.4-.4-4.8-.2-7.6-1.4-8.5-8.2-9.8-21.4-18.6-29.6-28.5-8.2-9.8-23.2-13.9-31.4-23.8-8.2-9.9-17.6-18.7-25.7-28.5-8.2-9.9-.1-33.4-8.3-43.1-6.3-7.2-13.5-15.5-20.5-22.4-7.1-7-22.7-4.5-31.6-8.5-14.4-5.9-30.6-18.7-46.6-14.6-9.9,2.5-14.2,26.8-24.8,30.7-10,3.7-22.6,1.4-32.8,4.9-10.5,3.5-23.6-8.6-34-6.9-11,1.8-20.8,23.6-31.3,21.5-11.7-2.3-14.5-27.2-26.6-34.3-10.1-5.9-20.7-9.4-30.5-16.1-9.7-6.6-27.4-1.6-37.3-7.9-10-6.4-18-16.3-28.6-21.2-12.4-5.6-26.1-19.9-40.6-21.2-14.1-1.2-29.3,7.8-42.9,6.8-11.5-.6-24.1,16.7-35.8,16.1-11.5-.6-23.1-1.4-34.8-2.1-11.5-.7-23.1-2.8-34.7-3.5-11.6-.7-23.5,4.9-35.1,4.2-11.6-.7-22.7-9.5-34.3-10.2-11.6-.7-23-5.1-34.6-5.7-11.7-.7-22.9-8.1-34.4-8.7-11.7-.6-23.5,2.5-35,1.9-11.7-.6-23.2-2.4-34.7-2.9-11.8-.2-21.4-1.7-32.6.7-10.9,2.4-26.4-5.7-37.2-1.6-13.7,5.1-27.3,12.2-41,17.9-13.7,5.6-26.8,12.1-40.5,17.2-12.6,4.7-20.2,30.9-32.3,31.8-12.1.9-32.4-.7-45-7.6-11.7-6.4-17.6-25.3-28.9-33.9-10.9-8.3-30-6.1-41-14.4-10-7.5-5.3-34.6-15.2-41.8-10.2-7.5-29.1.4-40.1-4.7-11.1-5.2-18-30.7-31-31.2-10.9-.7-23,20.4-35.4,21.8-11.9,1.3-25.1-6.6-36.4-4.9-9.2,1.4-17.8,6.7-26.9,8-9.2,1.4-10,0-5.1,16.6-4.8,2.7-9.1,5.1-11.6,4-4.1-1.6-8.9-19.7-11-18-4.5,3.9,0,22.8-6.7,25.2-5.9,1.6-11,18.5-21.8,21.6-8,2.3-19.3-3.9-28.3-1.3-8.7,2.5-16.9,7.3-25.2,9.7-9.6,2.7-17.2,7.5-24.5,9.5-10.1,4.3-21.6-1.7-27.2-3.3-6.6-1.9-12-16.6-21.8-15.4-8.1,2.1-19.2,6-27.2,9.3-5.3,2.4,7,12.4,6.9,19.1-.2,1.7-23.9,2.7-23.9,4.5-.3,11.1,15.9,21.3,14.2,28.3-1.7,7.1-12.4,11.4-24.6,16.3-6.6,2.9-18.1,9.7-24.4,6.5-6.9-3.7-7.5-21.1-14.4-24.6-6.5-3.7-13.1,3.7-19.6,5.3-6.4,1.6-12.5,5.5-18.9,6.9-5.7,1.6-2,5.7-5.5,10.1-3.2,3.9-24-3.4-29,2.8-4.1,5.2-10.1,9.5-14.3,14.6-5,6.2-2.3,18-5.5,22-5.2,8.4-5.1,5.5-10.6.3-3.9-4-18.5,2.4-23.5-2-5-4.4,2.9-20.7-.4-25.4-2-3.9,5.4-6.9,6.4-12,1.9-7.6,3.2-17.4,5.5-26.7,2.6-10.7,11-17.9,12.4-23.7,3.1-7-13.3-18-17.7-23.8-3.6-4.9-13.2-9.5-19.5-13.6l138.5-138.8h2103.4c.2.1.5,4.8.7,4.9,5.8,2.9,12.8,5.4,22.2,10.6,5.1,5.3,5.9,6.8,6.7,15.3,0,7.1,5.9,14.5,5.9,21.9,0,7.2-20.8,14.6-20.8,21.9,0,7.4,22,14.2,21.9,21.3,1,8-3.2,21.4-8.2,26.5h0Z"/>
  </g>
  <g id="Frame">
    <g>
      <path class="st7" d="M2590.3,116h66.6v66.4l-66.6-66.4ZM2649,124h-39.3l39.3,39.1v-39.1Z"/>
      <path class="st7" d="M2493.6,19.6h260.5v259.6l-86.8-86.5v-86.5h-86.8l-86.9-86.6h0ZM2746.1,27.6h-233.1l70.8,70.6h91.5v91.2l70.8,70.6V27.6h0Z"/>
      <path class="st7" d="M182.9,182.1v-66.1h66.3l-66.3,66.1ZM190.9,124v38.8l39-38.8s-39,0-39,0Z"/>
      <path class="st7" d="M182.9,2052v-65.9l66.2,65.9h-66.2ZM190.9,2005.3v38.7h38.8l-38.8-38.7Z"/>
      <path class="st7" d="M85.8,2148.4v-259.1l86.8,86.5v86h86.3l86.9,86.5H85.8ZM93.8,1908.5v231.8h232.6l-70.8-70.5h-91v-90.7l-70.8-70.6h0Z"/>
      <path class="st7" d="M2590.9,2052l66.1-65.8v65.8h-66.1ZM2649,2005.4l-38.7,38.6h38.7v-38.6Z"/>
      <path class="st7" d="M2494.2,2148.4l86.9-86.5h86.2v-85.9l86.8-86.5v259h-259.9ZM2584.3,2069.8l-70.8,70.5h232.6v-231.7l-70.8,70.6v90.6h-90.9Z"/>
      <path class="st7" d="M2590.3,116h66.6v66.4l-66.6-66.4ZM2649,124h-39.3l39.3,39.1v-39.1Z"/>
      <path class="st7" d="M2493.6,19.6h260.5v259.6l-86.8-86.5v-86.5h-86.8l-86.9-86.6h0ZM2746.1,27.6h-233.1l70.8,70.6h91.5v91.2l70.8,70.6V27.6h0Z"/>
      <path class="st7" d="M182.9,182.1v-66.1h66.3l-66.3,66.1ZM190.9,124v38.8l39-38.8s-39,0-39,0Z"/>
      <path class="st7" d="M2590.9,2052l66.1-65.8v65.8h-66.1ZM2649,2005.4l-38.7,38.6h38.7v-38.6Z"/>
      <path class="st7" d="M2494.2,2148.4l86.9-86.5h86.2v-85.9l86.8-86.5v259h-259.9ZM2584.3,2069.8l-70.8,70.5h232.6v-231.7l-70.8,70.6v90.6h-90.9Z"/>
      <path class="st7" d="M182.9,2052v-65.9l66.2,65.9h-66.2ZM190.9,2005.3v38.7h38.8l-38.8-38.7Z"/>
      <path class="st7" d="M85.8,2148.4v-259.1l86.8,86.5v86h86.3l86.9,86.5H85.8ZM93.8,1908.5v231.8h232.6l-70.8-70.5h-91v-90.7l-70.8-70.6h0Z"/>
      <g>
        <path class="st7" d="M2590.3,116h66.6v66.4l-66.6-66.4ZM2649,124h-39.3l39.3,39.1v-39.1Z"/>
        <path class="st7" d="M182.9,182.1v-66.1h66.3l-66.3,66.1ZM190.9,124v38.8l39-38.8s-39,0-39,0Z"/>
        <path class="st7" d="M2590.9,2052l66.1-65.8v65.8h-66.1ZM2649,2005.4l-38.7,38.6h38.7v-38.6Z"/>
        <path class="st7" d="M182.9,2052v-65.9l66.2,65.9h-66.2ZM190.9,2005.3v38.7h38.8l-38.8-38.7Z"/>
        <path class="st7" d="M2590.3,116h66.6v66.4l-66.6-66.4ZM2649,124h-39.3l39.3,39.1v-39.1Z"/>
        <path class="st7" d="M85.8,1870.9v-704.6l82.5-82.2-82.5-82.2V297.3L364.5,19.6h2110.7l278.9,278v704.2l-82.5,82.2,82.5,82.2v704.7l-278.4,277.4H364.3l-1.2-1.2-277.3-276.3ZM93.8,1169.5v698l273.8,272.8h2104.8l273.7-272.7v-698.1l-85.8-85.5,85.8-85.5V300.9L2471.8,27.6H367.8L93.8,300.6v697.9l85.8,85.5-85.8,85.5Z"/>
        <path class="st7" d="M182.9,182.1v-66.1h66.3l-66.3,66.1ZM190.9,124v38.8l39-38.8s-39,0-39,0Z"/>
        <path class="st7" d="M85.8,1870.9v-704.6l82.5-82.2-82.5-82.2V297.3L364.5,19.6h2110.7l278.9,278v704.2l-82.5,82.2,82.5,82.2v704.7l-278.4,277.4H364.3l-1.2-1.2-277.3-276.3ZM93.8,1169.5v698l273.8,272.8h2104.8l273.7-272.7v-698.1l-85.8-85.5,85.8-85.5V300.9L2471.8,27.6H367.8L93.8,300.6v697.9l85.8,85.5-85.8,85.5Z"/>
        <path class="st7" d="M182.9,2052v-65.9l66.2,65.9h-66.2ZM190.9,2005.3v38.7h38.8l-38.8-38.7Z"/>
        <path class="st7" d="M2590.9,2052l66.1-65.8v65.8h-66.1ZM2649,2005.4l-38.7,38.6h38.7v-38.6Z"/>
      </g>
      <path class="st7" d="M2667.2,106.2v-43.8h44v43.8h-44ZM2675.2,70.3v27.8h28v-27.8h-28Z"/>
      <path class="st7" d="M2668.1,2105.4v-43.8h44v43.8h-44ZM2676.1,2069.5v27.8h28v-27.8h-28Z"/>
      <path class="st7" d="M128.6,2106v-43.8h44v43.8h-44ZM136.6,2070.2v27.8h28v-27.8h-28Z"/>
      <path class="st7" d="M127.7,106.8v-43.8h44v43.8h-44ZM135.7,71v27.8h28v-27.8h-28Z"/>
      <path class="st7" d="M59.2,1114.7v-61h61.2v61h-61.2ZM67.2,1061.7v45h45.2v-45h-45.2Z"/>
      <path class="st7" d="M78.2,1095.8v-23.2h23.3v23.2h-23.3ZM86.2,1080.6v7.2h7.3v-7.2h-7.3Z"/>
      <path class="st7" d="M2719.5,1114.7v-61h61.2v61h-61.2ZM2727.5,1061.7v45h45.2v-45h-45.2Z"/>
      <path class="st7" d="M2738.4,1095.8v-23.2h23.3v23.2h-23.3ZM2746.4,1080.6v7.2h7.3v-7.2h-7.3Z"/>
      <path class="st7" d="M182.9,182.1v-66.1h66.3l-66.3,66.1ZM190.9,124v38.8l39-38.8s-39,0-39,0Z"/>
      <path class="st7" d="M182.9,2052v-65.9l66.2,65.9h-66.2ZM190.9,2005.3v38.7h38.8l-38.8-38.7Z"/>
      <path class="st7" d="M2590.9,2052l66.1-65.8v65.8h-66.1ZM2649,2005.4l-38.7,38.6h38.7v-38.6Z"/>
      <path class="st5" d="M89.8,298.9l78.8-78.6,18.3-18.2,82.5-82.2,17.9-17.8,78.8-78.6h2107.4l78.8,78.6,17.9,17.8,82.8,82.5,18.3,18.2,78.8,78.6v700.9l19.7,19.6V4H70.1v1015.8l19.7-19.6V298.9ZM2600,120h53v52.8l-53-52.8ZM2750.1,23.6v245.9l-78.8-78.6v-88.8h-89.1l-78.8-78.6h246.8ZM239.6,120l-52.6,52.4v-52.4h52.6ZM89.8,23.6h246.5l-78.8,78.6h-88.8v88.5l-78.8,78.5V23.6h0ZM2769.8,1148.2l-19.7,19.6v701.4l-78.8,78.6-18.3,18.2-82.2,81.9-96.7,96.4H366l-179-178.4-18.3-18.2-78.8-78.6v-701.3l-19.7-19.6v1015.8h2699.6v-1015.8ZM239.4,2048h-52.5v-52.3l52.5,52.3ZM89.8,2144.4v-245.4l78.8,78.6v88.4h88.7l78.8,78.6H89.8ZM2600.6,2048l52.4-52.2v52.2h-52.4ZM2503.8,2144.4l78.8-78.6h88.6v-88.3l78.8-78.6v245.4h-246.2Z"/>
      <path class="st7" d="M2590.3,116h66.6v66.4l-66.6-66.4ZM2649,124h-39.3l39.3,39.1v-39.1Z"/>
      <path class="st5" d="M132.6,1125.3l41.4-41.3-84.2-83.9-84.2,83.9,64.5,64.2,19.7,19.6,42.7-42.6h0ZM70.1,1120.4l-36.5-36.4,56.2-56,42.7,42.6,13.4,13.4-56.2,56-19.7-19.6h0Z"/>
      <path class="st7" d="M128.6,1913.4v-789.8l39.8-39.6-39.8-39.6V254.7L321.6,62.3h2196.4l193.2,192.5v789.6l-39.6,39.5,39.6,39.5v790.2l-193,192.3H321.8l-1.2-1.2-192.1-191.4h0ZM136.6,1126.9v783.2l188.5,187.9h2189.8l188.3-187.7v-783.5l-43-42.8,43-42.8V258.2l-188.5-187.9H324.9l-188.3,187.7v783.1l43.1,42.9-43.1,42.9h0Z"/>
      <path class="st7" d="M28,1084l61.9-61.6,61.9,61.6-61.9,61.6s-61.9-61.6-61.9-61.6ZM89.8,1033.7l-50.5,50.3,50.5,50.3,50.5-50.3-50.5-50.3Z"/>
      <g>
        <path class="st5" d="M2769.8,1148.2l64.5-64.2-84.2-83.9-84.2,83.9,41.3,41.2,42.9,42.7,19.7-19.6h0ZM2707.2,1097.3l-13.3-13.3,56.2-56,19.7,19.6,36.5,36.4-56.2,56-42.9-42.7h0Z"/>
        <path class="st7" d="M2688.2,1084l61.9-61.6,61.9,61.6-61.9,61.6-61.9-61.6ZM2750.1,1033.7l-50.5,50.3,50.5,50.3,50.5-50.3-50.5-50.3Z"/>
      </g>
    </g>
  </g>
  <g id="Text">
    <g>
      <g>
        <path class="st7" d="M913.1,1236.8v-6.6c1.5.8,3.3,1.4,5.4,1.4s4.6-1.6,4.6-4.8-.8-4-2.6-7.1l-3.1-5c-1.8-3-3-5.9-3-9.1,0-5,3.5-8.7,9.3-8.7s3.5.3,4.7.8v6.2c-1.2-.6-2.3-.9-3.7-.9-2.2,0-3.5,1.1-3.5,3.2s1,3.5,2.2,5.5l2.7,4.6c2.2,3.7,3.8,6.9,3.8,11,0,6.6-3.9,10.6-10.6,10.6s-4.5-.4-6.2-1.1h0Z"/>
        <path class="st7" d="M932.2,1217.4c0-11.9,8.4-20.5,19.9-20.5s19.9,8.6,19.9,20.5-8.4,20.5-19.9,20.5-19.9-8.7-19.9-20.5ZM965.1,1217.4c0-8.4-5.3-14.2-13-14.2s-12.9,5.8-12.9,14.2,5.3,14.2,12.9,14.2,13-5.8,13-14.2Z"/>
        <path class="st7" d="M976.5,1225.8v-28.3h6.5v28.3c0,3.8,1.3,5.9,4,5.9s4-2.1,4-5.9v-28.3h6.5v28.3c0,7.7-4,12.2-10.5,12.2s-10.5-4.5-10.5-12.2Z"/>
        <path class="st7" d="M1007.1,1237.4v-33.8h-6.8v-6.1h20.1v6.1h-6.8v33.8h-6.5,0Z"/>
        <path class="st7" d="M1037.2,1197.5h6.6v39.9h-6.6v-23.4h-7.4v23.4h-6.5v-39.9h6.5v10.3h7.4v-10.3Z"/>
        <path class="st7" d="M1049.1,1237.4v-39.9h15.4v6.3h-8.8v6.2h8v5.7h-8v15.3h8.8v6.3h-15.4Z"/>
        <path class="st7" d="M1081.6,1237.4l-4.9-9.1c-.4.1-.7.1-1.1.2v8.9h-6.6v-39.9h4.2c8.7,0,15.2,6.1,15.2,15.6s-2.3,10-5.8,12.7l6.4,11.6h-7.4,0ZM1075.6,1203.9v18.5c3.2-.6,5.8-4.3,5.8-9.3s-2.6-8.6-5.8-9.2h0Z"/>
        <path class="st7" d="M1106.6,1197.5h6.6v39.9h-6.6v-22.7l-7.4-5.7v28.4h-6.6v-40.4h.7l13.3,10v-9.4h0Z"/>
        <path class="st7" d="M1150.6,1197.5l-7.1,8.7,6.8,31.2h-7l-5.2-24.7-1.5,1.9v22.8h-6.6v-39.9h6.6v8.5l6.7-8.5h7.3,0Z"/>
        <path class="st7" d="M1153.3,1237.4v-39.9h15.4v6.3h-8.8v6.2h8v5.7h-8v15.3h8.8v6.3h-15.4Z"/>
        <path class="st7" d="M1187.2,1197.5h6.6v39.9h-6.6v-22.7l-7.4-5.7v28.4h-6.6v-40.4h.7l13.3,10v-9.4h0Z"/>
        <path class="st7" d="M1202.7,1197.5c11.9,0,19.5,8.2,19.5,19.9s-7.6,19.9-19.5,19.9h-3.5v-39.9h3.5ZM1205.7,1231c5.6-.4,9.5-5.8,9.5-13.5s-3.9-13.2-9.5-13.6v27.1Z"/>
        <path class="st7" d="M1239.2,1237.4l-4.9-9.1c-.4.1-.7.1-1.1.2v8.9h-6.6v-39.9h4.2c8.7,0,15.2,6.1,15.2,15.6s-2.3,10-5.8,12.7l6.4,11.6h-7.4,0ZM1233.2,1203.9v18.5c3.2-.6,5.8-4.3,5.8-9.3s-2.6-8.6-5.8-9.2h0Z"/>
        <path class="st7" d="M1250.9,1237.4v-39.9h6.3v39.9h-6.3Z"/>
        <path class="st7" d="M1261.5,1236.8v-6.6c1.5.8,3.3,1.4,5.4,1.4s4.6-1.6,4.6-4.8-.8-4-2.6-7.1l-3.1-5c-1.8-3-3-5.9-3-9.1,0-5,3.5-8.7,9.3-8.7s3.5.3,4.7.8v6.2c-1.2-.6-2.3-.9-3.7-.9-2.2,0-3.5,1.1-3.5,3.2s1,3.5,2.2,5.5l2.7,4.6c2.2,3.7,3.8,6.9,3.8,11,0,6.6-3.9,10.6-10.6,10.6s-4.5-.4-6.2-1.1h0Z"/>
        <path class="st7" d="M1282.7,1237.4v-39.9h6.3v39.9h-6.3Z"/>
        <path class="st7" d="M1310.3,1237.4l-1.1-4.3h-9.4l-1.1,4.3h-6.7l12.1-42.1h.7l12.2,42.1h-6.7,0ZM1301.2,1227.7h6.6l-3.2-12.7-3.3,12.7Z"/>
      </g>
      <g>
        <path class="st7" d="M2101,1153.8v-33.8h-6.8v-6.1h20.1v6.1h-6.8v33.8h-6.6Z"/>
        <path class="st7" d="M2131,1113.9h6.6v39.9h-6.6v-23.4h-7.4v23.4h-6.6v-39.9h6.6v10.3h7.4v-10.3Z"/>
        <path class="st7" d="M2143,1153.8v-39.9h15.4v6.3h-8.8v6.2h8v5.7h-8v15.3h8.8v6.3h-15.4Z"/>
        <path class="st7" d="M2174.6,1153.8v-39.9h6.3v39.9h-6.3Z"/>
        <path class="st7" d="M2185.2,1153.3v-6.6c1.5.8,3.3,1.4,5.4,1.4s4.6-1.6,4.6-4.8-.8-4-2.6-7.1l-3.1-5c-1.8-3-3-5.9-3-9.1,0-5,3.5-8.7,9.3-8.7s3.5.3,4.7.8v6.2c-1.2-.6-2.3-.9-3.7-.9-2.2,0-3.5,1.1-3.5,3.2s1,3.5,2.2,5.5l2.7,4.6c2.2,3.7,3.8,6.9,3.8,11,0,6.6-3.9,10.6-10.6,10.6s-4.5-.4-6.2-1.1h0Z"/>
        <path class="st7" d="M2206.4,1153.8v-39.9h6.6v33.6h9.5v6.3h-16.1,0Z"/>
        <path class="st7" d="M2242.1,1153.8l-1.1-4.3h-9.4l-1.1,4.3h-6.7l12.1-42.1h.7l12.2,42.1h-6.7ZM2233,1144.1h6.6l-3.2-12.7-3.3,12.7Z"/>
        <path class="st7" d="M2265.2,1113.9h6.6v39.9h-6.6v-22.7l-7.4-5.7v28.4h-6.6v-40.4h.7l13.3,10v-9.4h0Z"/>
        <path class="st7" d="M2280.7,1113.9c11.9,0,19.5,8.2,19.5,19.9s-7.6,19.9-19.5,19.9h-3.5v-39.9h3.5ZM2283.7,1147.4c5.6-.4,9.5-5.8,9.5-13.5s-3.9-13.2-9.5-13.6v27.1Z"/>
        <path class="st7" d="M2301.3,1153.3v-6.6c1.5.8,3.3,1.4,5.4,1.4s4.6-1.6,4.6-4.8-.8-4-2.6-7.1l-3.1-5c-1.8-3-3-5.9-3-9.1,0-5,3.5-8.7,9.3-8.7s3.5.3,4.7.8v6.2c-1.2-.6-2.3-.9-3.7-.9-2.2,0-3.5,1.1-3.5,3.2s1,3.5,2.2,5.5l2.7,4.6c2.2,3.7,3.8,6.9,3.8,11,0,6.6-3.9,10.6-10.6,10.6s-4.5-.4-6.2-1.1h0Z"/>
      </g>
      <g>
        <path class="st8" d="M421.1,1986l-12.5-23.2c-1,.3-1.9.3-2.8.4v22.8h-16.8v-102.2h10.6c22.3,0,39,15.6,39,40s-5.8,25.5-14.9,32.4l16.3,29.8h-19ZM405.8,1900.4v47.3c8.3-1.6,14.9-10.9,14.9-23.8s-6.6-21.9-14.9-23.5h0Z"/>
        <path class="st8" d="M449.6,1986v-102.2h39.4v16.2h-22.6v15.9h20.4v14.6h-20.4v39.3h22.6v16.2h-39.4Z"/>
        <path class="st8" d="M534.5,1926h37.9v57.5c-5.7,2.6-13.9,3.9-23.6,3.9-32,0-53.7-21.3-53.7-52.7s21.7-52.4,54.1-52.4,14.6.7,20.7,2.5v16.5c-6-1.9-12-2.8-19.6-2.8-22.8,0-37.4,14.4-37.4,36.2s14.6,36.5,37.1,36.5,4.2-.2,6.1-.4v-29.6h-21.7v-15.2h0Z"/>
        <path class="st8" d="M587.9,1986v-102.2h16.2v102.2h-16.2Z"/>
        <path class="st8" d="M615.7,1934.9c0-30.5,21.6-52.5,51.1-52.5s51.1,22,51.1,52.5-21.6,52.5-51.1,52.5-51.1-22.2-51.1-52.5ZM700,1934.9c0-21.4-13.6-36.3-33.3-36.3s-33.1,14.9-33.1,36.3,13.6,36.3,33.1,36.3,33.3-14.9,33.3-36.3Z"/>
        <path class="st8" d="M765.2,1883.9h16.8v102.2h-16.8v-58.2l-19-14.6v72.8h-16.8v-103.6h1.8l34,25.5v-24.1h0Z"/>
        <path class="st8" d="M819.7,1934.9c0-30.5,21.6-52.5,51.1-52.5s51.1,22,51.1,52.5-21.6,52.5-51.1,52.5-51.1-22.2-51.1-52.5ZM904,1934.9c0-21.4-13.6-36.3-33.3-36.3s-33.1,14.9-33.1,36.3,13.6,36.3,33.1,36.3,33.3-14.9,33.3-36.3Z"/>
        <path class="st8" d="M933.5,1986v-102.2h40.1v16.2h-23.3v16.6h21.3v15.6h-21.3v53.7h-16.8Z"/>
        <path class="st8" d="M1063.5,1883.9l-18.2,22.2,17.5,80h-17.9l-13.3-63.3-3.9,4.8v58.5h-16.8v-102.2h16.8v21.7l17.1-21.7h18.8Z"/>
        <path class="st8" d="M1070.7,1986v-102.2h39.4v16.2h-22.6v15.9h20.4v14.6h-20.4v39.3h22.6v16.2h-39.4Z"/>
        <path class="st8" d="M1157.3,1883.9h16.8v102.2h-16.8v-58.2l-19-14.6v72.8h-16.8v-103.6h1.8l34,25.5v-24.1h0Z"/>
        <path class="st8" d="M1197,1883.9c30.5,0,50.1,20.9,50.1,51.1s-19.6,51.1-50.1,51.1h-9.1v-102.2h9.1ZM1204.8,1969.5c14.3-1,24.4-14.9,24.4-34.6s-10.1-33.7-24.4-34.7v69.3Z"/>
        <path class="st8" d="M1290.6,1986l-12.6-23.2c-1,.3-1.9.3-2.8.4v22.8h-16.8v-102.2h10.7c22.3,0,39,15.6,39,40s-5.8,25.5-14.9,32.4l16.3,29.8h-19,0ZM1275.2,1900.4v47.3c8.3-1.6,14.9-10.9,14.9-23.8s-6.6-21.9-14.9-23.5h0Z"/>
        <path class="st8" d="M1320.5,1986v-102.2h16.2v102.2h-16.2Z"/>
        <path class="st8" d="M1347.6,1984.6v-16.9c3.9,2.2,8.5,3.7,13.9,3.7s11.8-4.1,11.8-12.4-2-10.4-6.7-18.2l-7.9-12.7c-4.7-7.6-7.6-15.2-7.6-23.2,0-12.8,8.9-22.3,23.8-22.3s8.9.9,12,2.2v15.8c-3.2-1.5-6-2.3-9.5-2.3-5.6,0-9.1,2.9-9.1,8.3s2.5,9.1,5.6,14.2l7,11.7c5.7,9.3,9.8,17.8,9.8,28.2,0,16.8-10.1,27.1-27.1,27.1s-11.5-1-15.9-2.9h0Z"/>
        <path class="st8" d="M1402.1,1986v-102.2h16.2v102.2h-16.2Z"/>
        <path class="st8" d="M1472.7,1986l-2.9-10.9h-24.1l-2.9,10.9h-17.1l31.1-107.7h1.9l31.2,107.7h-17.2,0ZM1449.3,1961.1h16.8l-8.3-32.5-8.5,32.5h0Z"/>
      </g>
    </g>
  </g>
  <g id="Button">
    <path class="st8" d="M1236.7,902.4l-68,68,68,68,68-68s-24-51.7-30.3-49.4-37.7-18.5-37.7-18.5Z"/>
    <g id="Button1" data-name="Button">
      <path class="st7" d="M1236.7,867.1l-103.3,103.3,103.3,103.3,103.3-103.3-103.3-103.3ZM1168.7,970.4l68-68,68,68-68,68-68-68Z"/>
    </g>
  </g>
</svg>