<?xml version="1.0" encoding="UTF-8"?>
<svg xmlns="http://www.w3.org/2000/svg" viewBox="0 0 2839.91 2168">
  <defs>
    <style>
      .cls-1, .cls-2 {
        fill: #282725;
      }

      .cls-3 {
        fill: #19758c;
      }

      .cls-3, .cls-4, .cls-5, .cls-6, .cls-2 {
        stroke-miterlimit: 10;
      }

      .cls-3, .cls-4, .cls-5, .cls-2 {
        stroke: #f7e1ba;
        stroke-width: 4px;
      }

      .cls-4 {
        fill: #664e5b;
      }

      .cls-7 {
        fill: #fdce4f;
      }

      .cls-5 {
        fill: #997c8b;
      }

      .cls-8 {
        fill: #f7e1ba;
      }

      .cls-9 {
        fill: #493641;
      }

      .cls-6 {
        fill: none;
        stroke: #fdce4f;
        stroke-width: 8px;
      }
    </style>
  </defs>
  <g id="Background">
    <path class="cls-9" d="M2540.33,569.94c-9.62-13.13-22.47-23.36-36.19-33.23-47.24-32.41-121.04-82.05-178.05-83.19-28.84-.12-49.49,14.96-71.15,32.44-13.01,10.46-26.57,21.42-41.21,30.61-60.97,38.7-138.02,45.02-202.71,50.26-26.71,2.52-36.13,3.58-49.25,28.6-100.62,189.09-284.71,539.76-360.65,681.26-10.08,18.07-18.93,18.33-38.31,18.54-183.3-2.13-399.83-5.28-588.52-7.7-34.81-.43-66.64-.9-99.62-1.32-13.38-.26-25.41-.03-38.15-1.21-20.19-.96-25.04-17.56-33.09-34.86-8.06-18.62-16.06-36.72-24.56-56.43-70.69-162.61-149.55-344.22-218.78-503.48-3.48-7.8-6.5-15.2-10.03-22.64-7.11-14.89-12.24-22.62-24.59-22.73-3.53-.02-7.62.61-12.39,1.81-3.83.97-8.11,2.32-12.85,3.99-7.55,2.84-16.27,6.05-24.25,9.49-31.49,13.08-65.45,28.08-97.22,41.59-18.29,7.91-37.45,15.98-54.52,25.33-16.49,9.07-26.96,19.21-31.74,37.94-27.23,127.23-74.56,385.34-100.05,511.98-2.23,10.93-4.11,22.05-4.85,31.69-.81,15.71,3.76,22.77,15.33,35.11,12.93,13.76,24.36,23.51,42.04,40.96,112.75,108.12,243.03,234.05,357.7,344.11,7.69,7.61,14.94,14.24,22.42,21.23,13.97,12.7,19.64,15.5,32.67,17.42,3.29.4,6.33.89,9.81,1.22,324.45,34.48,963.79,103,1142.5,121.43,185.06,5.76,547.97,11.13,691.11,14.92,4.75.09,9.05.16,12.93.19,5.86.04,10.73-.01,14.73-.32,5.58-.42,9.47-1.33,12.24-3.2,5.51-2.94,6.96-13.97,7.98-21.18,24.2-212.86,76.65-663.2,104.8-918.91,1.01-17.08-3.09-31.74-7.82-49.15-27.34-94.92-60.89-212.93-89.5-307.93-4.26-12.79-8.8-24.23-16.14-34.56l-.07-.09Z"/>
    <path class="cls-9" d="M2703.2,258.21l-188.52-187.86H324.91l-136.59,136.11-51.74,51.55v794.34l31.76,31.65-31.76,31.65v794.48l188.53,187.87h2189.77l188.32-187.66v-794.7l-31.59-31.58,31.59-31.59V258.21ZM2360.13,698.66c4.81-7.83,14.78-9.07,22.03-12.13,8.35-3.66,11.91-4.48,16.73,1.33,4.54,5.46,6.32,12.76,7.31,19.77,1.51,10.88-4.88,20.07-12.02,27.48-5.68,6.04-10.01,8.76-17.67,6.92-10.33-2.05-21.27-6.61-22.83-17.51-.02-.1-5.17.31-5.17-.28-1.21-7.88,6.77-17.68,11.62-25.58ZM1954.78,906.18c1.1-7.15,3.82-14.62,6.86-20.77,4.44-8.47,15.21-11.25,20.69-17.36,6.1-6.81,14.88-13.52,18.05-21.75,2.66-6.89-4.41-16.98-6.66-27.81-1.69-7.99-5.65-15.1-7.83-23.47-1.65-6.43-3.47-13.78-3.89-20.56-.43-6.84-2.7-15.71-.88-22.16,2.09-7.17,8.97-14.71,14.06-19.67,5-4.87,14.81-4.82,20.94-8.61,6.24-3.85,12.15-8.15,17.73-11.96,11.72-7.34,13.55-14.74,15.46-22.69,1.94-8.1,3.14-16.54,2.43-28.77-.23-5.65-.39-11.25.8-14.76,2.34-8.14,10.92-3.42,17.3.06,8.37,4.37,13.62,10.44,19.79,17.49,6.09,6.96,17.13,9.7,23.37,16.51,5.56,6.26,13.29,8.95,19.9,14.06,6.61,5.1,13.17,8.76,20.44,12.9,7.57,4.43,16.04,7.98,23.36,12.55,7.43,4.64,8.34,17.45,12.96,25.39,3.48,5.93,7.29,11.47,8.44,18.3,1.14,6.78,5.51,13.74,5.58,20.48.03,9.27-3.58,18.83-4.7,28.17-1.12,9.35,1.89,20.17-.79,29.07-3.04,10.5-6.06,20.58-8.53,31.18-1.94,7.93-10.15,14.39-9.45,22.35.7,7.99-1.86,18,1.42,25.43,3.17,7.65,6.01,15.76,9.32,23.7,3.32,7.96,14.17,13.21,15.64,21.42,1.49,8.31-1.77,16.71-4.23,25.24-2.08,7.69-4.5,15-9.72,20.81-5.14,5.73-7.8,15.9-14.13,20.39-5.88,4.15-15.47,4.74-22.29,8.06-7.08,3.44-15.34,7.23-22.57,7.15-9.13-.07-12.08-10.16-16.99-15.01-5.21-5.15-19.41-6.97-21.08-14.84-1.55-7.36-.66-17.14-.15-24.58.33-10.77,7.87-19.99-1.78-27.65-.67-.41,1.66-3.19,1.61-3.23-6.12-4.74-14.11-6.26-22.13-4.65-6.75,1.24-14.15,2.16-20.32,5.52-6.04,3.28-8.7,12.61-14.56,16.18-6.1,3.72-13.38,6.5-19.69,8.63-10.05,3.41-18.99-2.52-27.03-5.21-7.99-2.68-21.99-1.3-27.74-10.42-3.63-5.75,1.73-16.74-.44-23.66-2.09-6.64-7.75-12.74-8.35-19.79-.6-7.09-1.26-14.81-.22-21.66ZM2017.72,1199.53c-6.11,5.88-12.33,3.18-18.45.25-5.84-2.8-7.29-10.1-10.43-16.41-.57-.68-6.45,4.78-6.5,4.68-3.64-7.21-6-17.1-6.31-26.34-.31-9.21-2.14-20.86,1.06-28.33,4.73-10.12,16.98-7.17,24.17-6.85,7.15.33,19.79-1.77,23.72,8.66,2.23,5.7.2,14.9,1.21,22.63.93,7.09-7.18,13.86-8.05,20.7-.99,7.76,3.91,16.12-.42,21.01ZM1780.45,1129.99c1.08-7.41,6.98-12.78,12.41-19.26,5.17-6.17,4.25-18.82,9.4-24.1,4.85-4.4,15.35-3.76,19.79-9.08,4.57-5.47,4.83-15.09,8.45-20.26.46-.45,4.36,4.1,4.42,4.02,7.84-10.26,13.28-19,24.9-16.27,7.91,1.57,17.89,5.25,23.79,11.56,5.64,5.97,6.16,13.98,7.77,21.95,1.47,7.25,3.26,13.47,1.39,20.41-1.75,6.51,1.39,15.86-1.87,22.65-3.18,6.31-11.34,10.57-15.24,16.68-3.94,6.17-4.93,15.58-9.87,20.63-5.13,5.25-17.67-.37-24.17,2.66-6.35,2.62-10.55,7.18-17.51,6.55-6.84-.61-14.73,1.33-20.88-1.64-6.9-3.41-14.5-8.91-18.89-14.86-4.49-5.95-4.76-15.11-3.89-21.64ZM425.92,1173.55c-2.95,5.57-6.22,11.8-9.97,18.06-3.41,5.64-12.63,9.26-14.3,15.71-1.9,7.62,6.65,17.45,5.31,25.11-1.35,7.74-14.26,10.52-19.14,17.11-4.84,7.29-6.65,15.73-14.43,19.13-7.75,3.38-15.72-1.42-24.27-1.94-8.54-.52-14.32-1.19-21.56-5.66-7.35-4.29-24.3-2.55-27.05-10.78-2.36-7.1,11.5-16.51,13.93-24.04,2.39-7.31,5.96-10.48,11.42-15.77,4.85-5,11.64-13.78,13.5-19.75,1.42-7.93-7.63-15.11-13.13-21.42-4.51-5.17-6.17-10.92-7.62-19.39-1.01-5.88-1.5-11.33,1.79-20.4,2.52-7.1,5.63-13.83,8.64-20.67,3.09-7.04-1.32-13.67-1.05-21.24-.48-1.41,1.56-1.83,1.56-1.91.51-6.88,4.87-14.28,4.59-21.72-.28-7.57,2.44-13.15,4.91-19.71,3.58-9.19,1.04-7.99,8.2-.14,6.91,7.47,14.22,14.35,18.55,23.71,4.74,10.51,12.35,16.84,18.44,26.34,5.09,8.07,10.73,15.31,17.92,21.57,6.48,5.65,10.17,14.27,15.36,20.89,5.52,6.64,17.23,9.88,17.79,15.53.65,6.75-5.94,14.88-9.39,21.38ZM458.04,900.72c-5.23-5.63-8.41-14.76-10.97-23.09-2.71-8.32,2.78-16.79,4.01-25.28,1.33-9.91-.43-20.56,4.5-29.26,3.39-5.75,9.69-9.34,13.46-14.03,4.05-5.04,7.76-10.44,13.65-13.25.08,0,.46.82.54.82,8.22-3.88,17.2-2.68,26.17-.17,8.77,2.45,17.01,6.73,23.81,11.86,6.89,4.9,10.8,11.73,14.25,19.35,3.41,7.54,4.45,15.36,5.14,23.56.46,7.31-1.03,14.12-2.44,21.43-1.43,7.4-1.06,14.4-6.51,19.93-4.6,4.77-9.04,12.05-15.37,14.78-6.9,3.14-16.42-2.71-24.1-1.77-7.79.95-16.54,12.37-23.87,10.73-8.88-1.96-17.07-10-22.27-15.61ZM515.52,1109.27c-5.67,5.25-6.15,4.76-15.17.33-6.52-3.43-9.54-5.72-13.08-12.43-3.46-6.56-12.65-11.06-13.69-18.1-1.33-8.07-5.58-17.4-4.36-25.11,1.24-7.87,4.51-17.85,8.9-24.7,5.98-9.99,20.45-7.44,29.06-10.26,8.56-2.8,16.58-2.8,27.27-2.18,7.09.18,14.67-5.39,20.77-3.12,6.35,2.36,12.18,6.85,17.5,11.09,5.14,4.1,12.43,7.35,16.65,12.86,3.76,4.8,6.94,15.95,9.12,24.8,2.4,9.73.88,21.99-6.24,25.38-5.64,2.23-12.89-1.46-19.46-2.21-6.26-.72-12.72-4.05-18.8-3.46-.39-.01-.19,2.62-.27,2.62-8.55.23-15.64,4.26-20.99,9.51-5.65,5.55-12.12,10.26-17.21,14.98ZM750.33,1537.95c-.97,8.7-2.65,13.56-9.46,19.73-6.19,5.57-10.31,13.42-18.05,17.93-6.51,3.57-14.97,4.06-21.77,7.42-7.03,3.48-12.44,16.06-19.98,16.18-6.42-.02-14.05-.98-20.2-2.33-6.09-1.33-11.05-8.23-17.28-9.71-8.46-2.18-13.19-11.24-21.19-15.28-6.06-2.99-18.68,3.8-24.49-.14-5.09-3.57-4.61-16.8-10.27-21.07-5.97-4.51-16.43-4.42-19.02-9.96-2.57-5.31-3.67-12.35-3.42-18.24.46-6.57,1.29-13.28,1.27-20.03-.02-6.81-3.61-10.79-6.81-16.92-3-6.18.54-16.26-3.85-21.39-4.41-5.13-6.3-9.81-8.57-16.43-2.61-7.16-10.88-13.89-11.15-22.66-.26-8.52,2.84-17.26,3.1-24.97.5-6.25-4.41-15.89-.99-20.97,4.55-6.28,16.94-7.86,24.75-8.58,7.55-.69,17.12.08,23.73,2.95.08.04-3.76,3.52-2.54,4.62,8.76,3.72,21.21,1.23,29.7,5.51,5.88,2.94,9.67,11.23,15.34,15.06,5.59,3.78,13.87,7.09,17.37,13.12,3.67,6.15,7.27,13.74,9.74,20.78,2.47,7.04,4.91,14.02,7.4,20.65,1.95,5.33.9,10.14,3.75,13.64,5.56,7.04,12.27,8.43,20.95,5.98,7.55-1.9,19.1-1.32,25.39-6.4,4.55-3.44,6.63-18.25,12.52-18.57,6.75.32,17.85,7.87,21.93,13.95,3.64,5.43-1.45,16.74.73,22.8,3.03,9.19.98,18.41,1.2,28.11-.14,8.5,1.11,16.92.17,25.22ZM1749.29,1795.48c-3.95,6.81-10.1,12.8-16.73,15.46-9.36,3.19-17.2-2.69-27.72-7.14-8.67-3.74-17.57-6.01-25.35-10.85-7.73-4.81-13.91-12.82-22.5-16.83-7.16-3.63-14.84-9.81-22.92-12.09-8.36-2.35-16.92-2.03-24.05-4.74-5.38-2.11-8.71-6.34-12.76-10.9-4.26-4.8-10.09-5.5-2.28-11.58.63-.72-1.61-1.88-1.56-1.93,4.35-3.64,10.43-10.85,17.61-13.15,6.67-2.14,15.15-.6,21.22-1.57,10.37-1.85,22.35,1.19,32.59-1.43,10.05-2.49,19.09-10.08,29.34-9.64,7.98.31,14.8,6.77,22.02,10.09,7.21,3.31,14.15,6.6,19.76,12.21,5.64,5.65,13.52,10.53,16.69,17.79,3.15,7.22,6.32,16.3,6.17,24.41-.06,7.01-5.65,15.2-9.53,21.89ZM1857.88,1236.46c-2.95,6.22-2.27,13.82-5.63,19.62-4.95,8.5-7.06,19.28-14.1,26.11-4.38,4.2-9.08,9.49-14.57,12.44-5.68,3.06-13.28-3.8-19.27-3.46-7.19.44-11.59-.26-18.32-2.85-7.85-3.02-20.03,1.74-26.64-3.42-6.64-5.18-4.38-17.24-8.08-25.06-2.9-5.68-8.92-9.38-10.19-15.58-1.29-6.23,2.1-11.58,2.98-17.93.81-6.97-4.37-16.11-.83-22.29,3.78-6.6,12.2-9.41,18.92-11.56,1.18-1-1.87-4.35-1.8-4.37,7.96-2.09,17.09,3.11,25.75,5,8.38,1.84,17.14,2.89,25.16,4.08,9.24,1.69,19.07,5.24,27.14,2.56,8.12-2.69,13.29-13.58,21.16-17.55,8.2-3.75,19.92-6.52,23.32-2.14,2.85,5.34-3.46,14.33-4.46,21.09-1.29,6.61,2.22,15.2-.05,21.69-2.24,6.41-17.58,7.47-20.49,13.62ZM2162.39,1790.77c-.59,10.12-5.78,18.65-9.68,27.93-4.42,11.06-4.81,23.43-12.76,26.77-7.72,3.24-19.24,4.76-30.29,4.25-7.92-.3-13.85-7.59-19.2-9.96-6.27-2.77-15.62-2.79-20.25-8.07-4-4.56,1.79-17.34-2.41-23.53-5.51-8.03-14.11-13.24-20.3-17.61-6.2-4.36-15.24-2.42-25.66-2.04-7.58-.03-15.6-2.16-23.47-1.57-7.88.6-15.62,1.9-23.16.24-7.53-1.86-14.86-4.98-20.8-12.4-5.25-6.84-4.04-18.37-8.97-25.51-4.93-7.13-12.45-12.52-17.47-19.54-5.05-7.08-8.38-15.84-13.94-22.41-7.14-8.48-15.07-16.77-22.52-25.12-4.46-5.06-18.29-9.57-23.8-18.42-6.19-9.94-3.78-15.36,7.26-20.18.38-.2-3.2-6.57-3.14-6.6,7.17-2.55,15.18-2.35,22.94-2.16,7.69.18,13.28,6.51,20.41,9.31,7.2,2.83,15.56,1.94,21.02,7.36,4.69,4.73,14.76,4.71,19.24,9.72,4.47,5-.14,19.59,5.31,23.58,6.05,5,16.25,4.06,23.1,6.67,6.96,2.65,15.56-1.72,22.97-.25,7.29,1.46,12.95,11.08,20.3,12.65,10.59,2.49,25.14-1.99,34.32,3.58,7.31,4.4,7.87,20.77,16.24,23.84,6.71,2.64,16.19-1.2,23.58-.05,7.34,1.14,15.13.1,22.15,1.58,4.53,1.01,8.13,4.43,12.24,6.47,6.19,3.23,14.01,5.37,18.24,10.94,4.17,5.48,10.76,11.68,12.84,18.35,2.09,6.7-4.12,15.36-4.34,22.18ZM2171.04,1363.82c-6.17,2.8-13.94.62-20.56,2.76-5.79,1.8-11.24,2.43-17.36,3.46-6.13,1.03-11.71,12.12-17.8,11.56-4.44-.34-11.24-10.45-18.15-13.45-7.9-3.44-9.63-3.59-3.05-10.28.66-3.04-9.43-5.78-9.39-5.82,5.32-4.83,15.43-9.36,23.65-11.94,7.9-2.48,16.27-4.8,23.23-6.76,9.93-2.81,19.73-2.89,27.79-9.37,6.2-5.11,7.82-14.33,13.42-20.69,5.5-6.24,16.46-7.78,22.46-13.32,6.17-5.7,15.34-4.05,23.17-7.01,7.39-2.77,15.93-17.01,24.85-15.27,9.06,1.77,12.56,15.72,17.49,22.3,4.22,5.92,5.77,10.39,5.47,17.37-.3,6.95,1.97,14.94-4.05,19.91-7.13,6.04-17.23,7.83-26.44,11.08-9.09,3.2-19.76,1.9-28.46,4.78-6.64,2.07-14.38,2.83-20.55,5.6-6.26,2.8-9.48,12.26-15.72,15.09ZM2268.93,1454.7c-1.19,7.48-7.13,12.46-10.82,18.84-6.71,11.87-9.85,23.46-15.85,21.7-5.89-1.73-10.99-13.34-16.5-22.7-3.15-5.16-9.76-7.09-13.98-11.49-7.59-8.03-11.87-16.83-17.96-25.21-5.31-7.13-14.02-18.94-10.08-27.55,3.25-6.69,11.07-13.29,16.81-14.88,5.52-1.53,13.92-2.43,20.67-.1.83.09-.1,4.73-.01,4.76,7.61,2.42,19.53,4.66,28.18,10.62,8.83,6.09,14.03,17.38,18.13,24.1,3.9,6.86,2.62,14.34,1.41,21.91ZM2475.17,1820.59c-.62,8.35-2.99,16.06-9.18,19.74-5.96,3.54-14.65,4.87-22.07,5.16-7.38.22-14.14-9.22-21.58-9.96-7.41-.73-15.34,3.83-22.69,3.22-7.65-.98-16.18-.59-24.31-1.67-8.55-1.13-17.47-.95-23.94-4.86-8.28-4.85-9.84-14.87-12.36-23.65-2.53-8.81-7.47-22.56-2.02-30.88,3.29-1.33,8.1,8.85,8.15,8.77,4.56-7.23,4.11-18.33,11.32-20.33,7.16-1.98,16.64-1.97,24.45-.45,7.73,1.5,14.37,8.17,20.84,11.5,10.07,4.95,22.9,1.8,33.94,4.56,11.06,3.18,21.15,14.49,29.28,20.53,6.55,4.66,10.93,10.37,10.17,18.32ZM2613.75,973.04c-1.53,5.85-16.11,6.86-18.88,12.29-2.8,5.49,3.89,18.6-.84,22.52-5.66,4.82-13.3,8.93-19.64,12.9-10.19,6.24-23.47,6.13-34.56,11.29-7.66,3.68-14.26,12.48-21.54,13.36-8.03.97-14.48-10.82-21.84-13.87-6.65-2.77-14.48-2.87-20.38-9.4-5.64-7.03-2.61-11.99.17-18.62,2.58-6.15-.43-18.19,5.2-23.54,5.68-5.4,23.25-3.69,27.96-7.84.56-1.99-9.58-5.14-9.51-5.2,6.77-5.9,16.09-7.08,21.55-11.87,6.23-5.48,12.74-7.86,20.3-11.16,6.39-2.78,12.42-7.37,21.89-8.06,10.21-.82,22.36-7.91,32.11-5.35,8.84,2.34,9.21,14.66,10.85,20.71,1.67,6.14,9.22,14.69,7.16,21.84Z"/>
    <path class="cls-1" d="M69.95,4v2160h2700V4H69.95ZM2703.2,1052.47l-31.59,31.59,31.59,31.58v794.7l-188.32,187.66H325.11l-188.53-187.87v-794.48l31.76-31.65-31.76-31.65V258.01l51.74-51.55,136.59-136.11h2189.77l188.52,187.86v794.26Z"/>
  </g>
  <g id="Borders">
    <path id="Southern_Kendrisia" data-name="Southern Kendrisia" class="cls-5" d="M1761.94,1590.54c.09,3.03-8.76,6.69-15.16,10.01.11-.17.12-.23-.01-.13-6.49-.54-11.96.16-19.91-1.06-6.92-1.06-13.37-5.57-20.85-6.92-7.15-1.3-14.03-4.04-21.25-5.43-7.37-1.43-19.83,24.01-26.81,22.67-7.71-1.48-13.71-9.16-20.34-10.31-8.73-1.51-15.13-6.8-20.7-7.22-10.15,1.2-25.25-7.15-36.08-5.13-7.28,1.55-25.07,13.04-23.81,22.84-.04,6.83,19.09,13.08,19.09,20.1.01,7.02-15.58,13.99-15.59,20.83-.09,7.02,20.57,12.55,20.31,18.35-.25,4.31-16.89,14.83-20.72,14.08-6.16-1.32-11.54-23.01-22.42-25.77-8.66-2.2-22.86,14.43-31.6,12.19-10.59-2.71-16.58-21.62-23.09-23.12-7.82-.98-25.39,5.14-27.34-1.85-3.5-8.94,15.83-23.27,14.05-28.9-4.38-13.78-11.06-28.74-15.98-29.67-3.85-.73-11.63,20.7-24.19,22.45-7.38,1.02-17.32-9.89-25.81-8.64-7.95,1.16-15.64,5.78-23.59,6.97-8.49,1.26-15.23,12.46-22.61,13.55-10.08,1.49-19.4-1.4-24.9-.69-8.56.74-10.12-22.49-18.88-25.74-9.32-4.33-18.21-9.51-27.56-13.84-6.11-3.19-35.41,10.38-35.78,3.52-1.33-8.32,10.95-18.87,8.29-26.82-1.78-5.93,5.85-21.7.82-26.61-5.23-5.1-14.08,1.5-9.48-6.08,1.97-4.49,13.4-7.2,16.16-13.34,2.85-6.31-11.46-20.08-9.6-24.34.82-2.38,8.05-5.9,5.22-7.61-6.99-1.14-15.53,9.43-24.09,9.64-8.33.21-16.81-12.25-24.11-12.66-7.54-.36-19.11,7.62-24.83,2.78-5.58-4.27-10.34-10.6-15.74-15.39-5.49-4.88-9.38-10.54-17.49-9.84-12.09-.49-21.77-3.1-33.69-7.26-5.85-1.71-12.6-2.46-18.87-4.35-6.34-1.92-15.09,4.05-20.79,2.18-5.11-1.52-5.73-10.58-5.55-15.32-.02-6.44,8.83-17.6,8.83-29.3,0-10.35-4.37-21.08-4.38-29.33.11-11.43,1.8-29.57-9.74-32.59-10.51-3.24-25.9,16.41-36.43,15.31-2.33.44-3.05-10.52-3.46-5.4-.64,5.76,14.34,13.87,13.93,21.54-.36,6.81-29.86,12.01-30.4,18.75-.61,7.74,17.13,17.58,15.83,23.13-1.82,2.64-9.58-1.81-13.18-.33-7.22,2.48-20.98-1.8-31.31,2.31-10.28,4.09-15.38,21.68-22.76,23.9-5.19,1.21-14.17.64-17.82-2.48-6.03-5.62-12.47-17.53-18.55-23.21-6.49-5.43-14.84-11.9-14.84-20.01-.49-6.38-4.41-14.49-5.25-24.09-.69-7.97,14.65-17.91,13.93-26.14-.79-9.02.94-17.6.36-24.68-.2-6.75-11.71-10.5-16.84-14.51-5.35-4.21-15.1-3.6-20.84-6.99-5.23-3.61-14.98-17.46-20.29-14.17-5.88,3.49-.03,26.95-5.89,30.33-7.8,5.06-11.22-16.48-18.26-19.96-4.99-2.58-12.82-2.71-18.84-5.47-6.11-2.8-11.19-7.11-16-9.81-7.17-3.1-5.56-.6-2.82-5.21,4.27-6.05,1.24-20.05,6.6-27.62,6-8.46,14.85-14.18,18.26-19.07,1.59-2.46,19.91-4.66,18.89-7.62-2.71-5.33-28.31-13.19-34.42-13.49-4.95-.15-4.87,12.33-10.09,15.49-8.87,4.6-21.75-.85-31.38-9.51-5.24-3.59-16.25-1.1-21.74-5.12-5.55-4.05-11.56-7.45-16.67-11.09-5.39-3.9-11.75-10.63-7.25-14.41,4.67-3.95,19.5-.18,26.71-5.92,6.88-5.48,9.58-16.44,14.74-20.63,3.92-3.16,20.57-9.36,18.67-14.82-2.12-6.27-31.44-4.76-33.88-10.75-1.24-3.03,17.76-3.18,20.6-5.51,6.29-4.24,8.25-15.04,15.57-18.98,7.23-3.9,17.05-3.35,23.72-7.14,9.27-5.14,17.69-5.87,28.24-6.37,8.01-1.1,32.78,1.75,36.28-5.83,2.18-7.72,6.76-17.24,7.02-25.26.26-7.86-17.38-16.6-17.21-24.66.89-11.29,10.26-32.63,26.15-23.71,7.39,3.4,3.19,31.37,11,34.97,7.74,3.58,22.36-7.48,29.82-4.04,12.3,7.78,9.19-7.63,14.15-15.6,4.04-6.91,13.98-10.59,11.53-18.23-1.18-5.56-4.41-12.91-6.27-21.39-1.56-7.1,7.26-16.99,5.69-24.14-1.83-8.36-12.71-14.16-13.93-19.88-2.83-10.77,2.96,3.9,12.13,1.82,6.38-1.1,9.74-19.63,16.52-20.82,6.75-1.18,12.95-5.1,19.37-6.15,7.48-1.54,6.31,16.49,11.55,20.62,6.89,5.29,19.63,3.06,26.69,8.48,8.58,6.61,14,19.54,22.13,25.8.44.3.87.51,1.28.66,3.17,4.52,7.9,7.02,14.17,10.22,5.89,3.01,11.2,8.14,16.55,10.18,9.55,3.67,20.47,3.7,30.36,5.71,5.49,1.07,10.28,1.52,15.75.54,8.99-1.52,7.33,28.93,15.42,28.46,3.85-.35,9.23,8.72,15.83,12.02,6.52,3.27,16,2.25,18.66,4.9,5.17,5.01,2.51-23,7.56-17.41,4.07,4.57,8.13,6.05,13.77,8.27,5.85,2.31,10.36,7.89,14.14,12.13-.1.88,1.51,1.57,6.05,3.29,9.46,3.89,18.21,13.08,27.51,16.56,7.19,3.24,15.18-10.05,24-12.14,9.41-2.23,24.73,1.77,30.23,9.11,5.38,7.82,16.34,14.66,16.8,19.75.45,4.89-25.93,3.37-31.64,11.68-5.53,9.42-6.35,23.92-11.75,33.12-1.49,2.99-2.04,26.82,1.22,27.78,8.24.8,18.91-16.63,27.76-16.69,8.58-.06,17.38,2.11,25.93,2.34,8.83.23,16.09,11.02,24.27,12.74,7.63.94,23.8-4.44,20.49,5.81-1.18,7.06-23.2,9.44-24.92,16.67-1.73,7.28-2.3,19.74-1.5,27.01.87,7.58,26.01,13.54,26.72,22.13.69,8.24-14.85,18.07-14.08,26.03.86,9.01-2.82,19.67-1.56,26.68,1.25,2.61,11.82,11.94,14.53,12.74,4.64,1.17,18.73-21.95,27.34-19.79,6.66,1.66,13.13,6.61,20.09,8.35,7.75,1.94,12.91,12.45,18.66,13.89,6.72,1.35,14.63,9.73,20.76,6,9.11-4.84,9.8-19.54,15.03-22.52,12.4-7.07,18.54-.28,23.88,6,3.19,3.76-.72,15.25,5.88,24.96,3.72,5.48,26.17-1.52,32.08,6.07,6.38,7.08-7.19,21.02-8.41,30.71-.44,6.59,9.58,14.92,9.14,22.48-.43,7.42-17.59,13.1-18.03,19.85-1.6,9.03,14.33,30.95,6.51,34.48-3.77,2.07-4.78,8.9-8.84,10.8-5.28,3.05-21.67-14.74-28.13-11.88-6.7,2.97-13.18,14.86-17.68,18.65-4.28,8.12,4.77,23.73,5.31,32.12.64,2.94,6.67.55,9.05,2.45,2.02,1.48.61,19.86,5.87,20.05,5.69.33,11.72-13.3,18.58-12.97,7.37.22,14.84,1.75,22.35,1.98,7.52.24,15.14,4.16,22.49,4.4,9.48-.54,14.83-.66,18.04,6.19,2.48,5.4,1.53,13.03,4.16,18.91,2.68,6.02,16.72,6.65,19.26,11.85.24.53.4.98.49,1.35h.12c7.48-.44,18.19,5.52,28.51,5.21,10.43-.31,21.09,15.96,28.44,15.67,8.51.09,17.59-17.15,25.97-13.12,6.96,3.93,6.21,24.74,14.38,29.27,7.81,4.33,22-2.42,29.36,1.72,8.99,5.06,8.27,22.92,14.07,26.51,3.14,2.78,22.49-3.43,22.83.94Z"/>
    <path id="Northern_Kendrisia" data-name="Northern Kendrisia" class="cls-4" d="M1923.38,429.08c-.8-.59-2.28-.25-5.1,1.04-5.88,3.02-15.22-1.94-21.56.75-6.25,2.65-4.54,22.97-10.54,25.98-6.17,3.1-8.87,7.38-14.03,11.58-4.81,4.45-13.17,5.81-18.53,10.38-5.46,4.66-4.11,10.24-7.27,16.1-5.49,11.24-10.3,23-15.25,27.67-4.98,4.69-23.58,8.83-37.83,5.97-6.23-2.61-16.36-13.57-21.2-19.61-4.66-5.83-7.39-9.55-12.33-13.3-5.67,1.97-15.28,3.52-25.39,7.34-8.14,3.08-16.47,7.83-24.88,11.02-9.64,3.65-17.31,9.98-24.02,12.52-5.93,2.57-21.13-8.68-22.65-2.24-1.95,8,12.11,19.22,10.63,27.36-1.48,8.16-28.31,10.94-30.05,18.97-2.12,8.29,20.9,25.67,17.5,33-2.53,3.89-14.32-12.8-21.28-13.7-8.07-.92-17.24.92-26.21-.6-9.26-1.56-19.35,6.82-27.16,6.57-7.45,1.44-5.35,13.43-11.07,18.47-4.47,4.98-23.73,4.58-21.35,11.95,2.68,9.77,24.71,19.69,24.27,29.86-2.41,7.52-24.58,5.52-33.13,7.24-6.8.36-7.47,1.17-13.86-1.37-6.19-2.45-13.92.87-19.64-2.79-5.92-3.78-12.15-6.92-17.49-10.37-3.78-2.33-19.98-1.12-20.96,3.23-1.73,6.52,7.59,17.38,6.28,24.04-2.2,7.55,11.32,9.06,14.26,15.16,2.9,6.03,1.05,14.33,4.65,20.33-.51-1.99-.59-4.96,2.05-6.74,7.46-3.68,20.42-8.64,28.41-11.44,6.22-1.56,17.67,12.32,21.62,16.67,5.2,6.32,1.09,25.03,6.04,31,6.35,8.04,13.71-1.35,22.17-5.57,4.64-2.3,8-10.92,13.02-13.44,7.52-3.85,23.94,11.24,28.34,7.79,4.23-3.32-.85-16.51,1.91-25.28,3.05-6.8-2.2-17.93.87-25.53,3.14-7.79,16.99-11.1,20.3-17.56,4.12-6.14,9.66-17.66,17.64-19.87,5.79-1.77,15.83,9.63,21.85,8.2,6.25-1.48,24.67,3.68,28.02-2.36,4.03-6.13,1.39-15.59,5.34-20.84,4.01-5.31,3.94-27.6,13.74-24.87,11.6.68,4.95,25.77,9.19,30.93,4.22,5.14,5.64,11.53,11,20.11,6.15,8.62,32.8-4.4,37.45-9.49,2.44-3.37-8.29-15.88-7.29-19.76.68-5,2.87-12.81-.93-20.36-3.55-7.06-21.54-7.19-23.29-12.22-4.31-7.19,9.21-16.32,16.19-20.18,10.04-5.55,18.55-16.63,31.09-13.46,5.66,1.29,12.47-1.17,18.41.12,6.01,1.31,12.54,2.63,17.97,4.49,4.02,1.71-8.59,15.93-6.58,19.63,2.52,4.8,15.47,6.93,19.27,14.23,3.55,6.81,7.15,13.63,9.98,19.05,2.89,6.62,7.92,7.39,4.2,13.03-5.79,9.79-20.73,17.01-25.96,27.35-4.04,13.4-3.25,20.6-5.2,25.42-1.79,4.44,2.71,6.91-14.44,8-8.73.79-15.56,14.87-24.17,16.23-8.51,1.35-17.18-1.09-25.87.56-7.62,2.4-29.42-6.06-33.25.83-1.56,9.51,15.82,18.28,20.39,27.47,4.25,6.27-8.71,25.15-3.31,32.12,5.31,6.87,23.65,3.97,28.2,10.18,3.2,4.36,7.06,15.78,4.21,21-4.31,5.75-12.47,20.46-19.6,23.95-8.94,3.11-24.5-5.46-33.59-6.23-4.83-.77,1.87-11.48-.14-16.61-1.97-5.59-12.69-8.73-14.49-15.47-1.8-6.73-16.59-9.55-18.24-15.24-1.63-4.85,4.24-6.04,1.46-7.37-9.11-3.38-18.14-21.52-27.98-21.74-4.67.6.47,18.93-2.12,23.68-2.93,5.96-5.12,12.23-8.32,20.16-2.71,6.69-7.51,12.98-10.44,20.46-2.73,6.97-27.96,5.15-30.91,12.35-2.92,7.1,5.57,18.91,2.4,25.8-3.3,7.17-5.21,14.87-8.81,21.32-3.96,7.12,1.11,20.31-3.26,25.94-6.66,9.93-33.06,3.2-41.48,11.98-5.04,4.59-4.31,19.22-10.89,18.93-7.25-1.05-15.84-.89-22.32-4.07-6.96-3.25-4.1-11.27-3.41-18.28.33-8.23,12.64-21.18,13-29.54.11-3.41-13.97-10-18.12-9.26-10.17,2.08-17.9,21.35-28.25,24.65-6.36,1.89-15.08-7.73-20.37-4.74-5.36,3.04-12.82,2.76-17.95,6.76-5.06,3.83-10.53,9.23-8.38,16.28,2.47,7.65,8.17,15.13,12.09,22.26,3.37,5.31,12.04.37,18.08,3.2,5.94,2.77,6.1,17.73,11.2,20.78.94.47,1.68.82,2.24,1.06-2.44-.71-7.63-1.55-12.1,1.39-6.09,4.01-2.34,17.19-2.35,24.43-1.84,9.05-14.76,20.29-16.45,29.17-.54,3.5-8.06,15.64-6.43,18.86,4.35,6.22,28.14-9.16,35.87-7.07,10.14,1.62,14.74-8.26,24.62-10.23,6.01-1.62,6.49,21.75,9.61,26.44,3.42,5.19,17.64,4.75,20.22,10.26,2.39,5.61-10.41,8.36-14.1,14.01-3.5,5.36,3.42,17.83,1.32,22.5-5.33,7.44-19.97,15.8-15.89,22.87,2.46,4.96,21.97,3.31,25.38,10.14,3.46,6.91-7.6,22.29-5.19,27.16,7.2,10.25,2.84,10.42-2.84,18.71-4.06,5.59,3.83,11.39,7.91,15.6,5.81,6.41,3.23,28.45,9.04,34.83,2.17,2.62,5.6-7.3,4.91-3.75-1.02,3.03,13.34,15.25,10.97,17.53-4.87,4.55-11.71,10.75-16.43,15.06-5.83,5.88-14.25-8.38-22.24-11.76-6.37-1.89-21.4,11.32-30.91,8.51-9.73-2.89-18.4-7.86-24.47-9.67-13.15-2.24-20.99-18.59-20.15-29.17.51-9.29,9.06-17.53,6.24-24.47-.88-1.67,4.25-20.96-.35-21.27-5.32-.6-11.84,1.31-18.35.61-6.38-.69-14.75,14.17-20.22,13.56-6.87-1.4-17.8-4.27-18.58-12.63-1.74-13.62,3.72-17.8,7.25-23.97,3.65-6.39,10.23-9.34,19.11-18.34,5.84-7.22-5.43-18.21-13.09-22.43-4.92-2.24-13.52.47-19.17-2.1-8.76-3.75-15.95-4.1-19.77-6.38-7.54-4.5,3.35-8.17,5.43-17.83,1.04-4.84-14.03-14.71-12.96-23.55,3.21-11.9,1.86-11.97-7.44-15.32-9.05-3.13-19.84-12.08-28.56-15.11-4.36-1.61-10.73,1.58-11.95-.76-1.65-4.87-9.36-14.06-7.77-22.22,1.53-7.82,6.78-14.2,6.67-19.41-.21,1.92-.93,5.42-2.99,5.31-6.54-.09-15.98-1.95-26.22-2.33-8.53-.32-17.55-1.06-26.08-1.28-10.23-.27-4.46,6.74-11.02,7.03-3.98.97-11.39,5.28-13.8,8.47-5.1,7.36-14.69,6.36-20.04,14.31-4.1,5.85-5.25,10.54-6.53,17.88-1.24,7.13,11.04,11.01,4.09,23.71-3.72,6.78-7.92,8.61-8.05,9.97-3.78-4.24-8.29-9.82-14.14-12.13-5.64-2.22-9.7-3.7-13.77-8.27-5.05-5.59-2.39,22.42-7.56,17.41-2.66-2.65-12.14-1.63-18.66-4.9-6.6-3.3-11.98-12.37-15.83-12.02-8.09.47-6.43-29.98-15.42-28.46-5.47.98-10.26.53-15.75-.54-9.89-2.01-20.81-2.04-30.36-5.71-5.35-2.04-10.66-7.17-16.55-10.18-6.27-3.2-11-5.7-14.17-10.22,4.95,1.73,8.5-6.3,12.85-6.28,7.69-3.83,4.01-16.56,10.19-23.01,6.39-5.8,14.49-.74,12.01-7.26-2.4-6.3-12.75-10-15-15.82-2.51-5.3,4.73-14.51,9.76-16.28,6.52-3.29,25.13,3.28,30.06-2.92.78-2.8-12.15-6.5-13.37-9.28-2.17-4.38-4.02-10.7-6.96-16.59-2.99-5.97-4.64-12.88-6.78-17.14-4.55-12.29-9.01-10.26-19.53-7.24-10.3,3.13-25.45,3.33-33.72,5.83-8.76,3.8-13.07,2.05-20.82-2.68-8.74-4.44-12.84-9.01-17.77-17.97-6.91-11.88-9.65-26.17-15.25-29.6-5.63-3.45-19.14,20.92-33.06,21.12-4.79.62-10.02-10.47-10.11-4.29-.62,4.75-4.22,15.71-4.03,25.99.2,11.31,9.47,24.43,5.95,26.94-5.11,3-9.68,9.67-15.57,12.26-5.92,2.6-13.3,7.52-18.92,9.23-7.25.26,2.57-25.18,1.46-29.97-.79-4.96-9.5,1.7-14.04-.23-5.07-.7-6.49-13.6-12.29-11.24-4.34,2.19.78,6.74.25,12.18-.25,7.04,3.16,15.25,3.17,24.7,0,8.23-26.34,16.99-26.3,25.4.04,9.11,2.29,18.08,2.2,25.53.47,7.54,9.47,11.67,3.78,14.74-6.84,3.9-15.98,5.03-22.93,8.91-13.29,7.8-24.73,10.13-18.39,28.15,2.15,8.25,5.21,18.85,7.45,27.44,2.41,10.3,14.03,20.5,3.17,24.98-5.5,3.18-9.75,13.7-18.62,18.87-7.33,4.26-23.29-5.14-30.61-.89-8.92,5.18-12.22,18.28-17.68,21.4-6.46,3.71-16.96,2.65-24.18-1.54-6.82-5.05,1.25-17.99-1.99-25.65.49-5.93-11.58-9.65-9.66-16.9,1.72-6.53,3.28-13.4,5.18-19.86,2.13-7.26-10.44-18.02-9.33-23.74,2.36-7.33,14.35-11.54,8.75-15.76-4.23-3.13-6.16-12.17-11.49-15.88-5.4-3.76-24.12,10.74-28.12,7.47-4.11-3.07-7.54-17.61-6.38-22.37,1.61-6.51.2-16.11,2.53-25.29,2.03-7.97,16.23-13.3,18.15-21.2,2.31-9.46,12.9-17.3,14.09-23.55-.48-7.76.53-19.66-2.89-27.67-3.87-7.74-25.95-7.52-29.81-15.17-2.31-5.1.64-20.32-5.64-20.11-10.24-.31-18.85,10.33-26.06,10.39-12.16.11-20.41-1.91-26.04-1.96-12.91-.13-.61-3.75-1.88-18.02-.54-6.15,1.42-17.27-1.19-28.48-3.01-9.85-21.91-8.76-33.31-8.51-3.12-.27-9.06,3.3-11.84,2.78-2.47-.45,2.84-11.33,2.98-13.01,5.07-10.81,5.95-29.46,18.49-32.8,7.3-2.55,18.34,5.26,26.14,2.88,8.18-2.5,12.54-11.5,19.17-14.61,4.49-4.59-13.46-11.14-14.22-18.93-1.97-9.88,14.22-23.22,12.29-32.99-.91-5.97-7.32-12.96-.36-16.27,5.55-3.43,19.32,6.52,25.16,2.97,5.72-3.47,1.41-23.62,7.12-27.08,5.86-3.54,7.79-14.54,13.34-17.94,10.53-5.51,20.38,4.43,20.51.05.13-4.39-2.97-9.49-5.29-19.09-3.04-7.57-12.86-19.31-10.4-26.81,2.39-7.3,28.1-7.1,30.24-14.21,2.82-7.13-4.58-17.77,2.76-19.97,9-4.56,17.85-9.23,24.15-17.47,3.75-7.99,17.1-12.99,19.17-21.63,1.68-9.06-3.67-19.59-.62-28.3,3.03-8.65,19.85-13.09,22.72-21.86,2.43-8.52-19.37-18.91-20.84-27.43-1.77-7.02,16.94-24.06,12.18-29.54-3.49-3.09-11.19,15.66-15.25,16.72-14.75,4.49-30.86-9.34-33.87-4.85-2.82,4.21.68,15.48,2.13,31,1.65,14.18-5.96,11.42-16.25,22.02-5.82,6.05.81,36.23-7.36,38.02-11.52,2.15-21.94-14.45-24.11,3.52-1.9,10.23-5.12,20.01-4.3,30.53.29,7.27,4.97,20.35.4,25.43-5.1,2.7-18.35-11.66-24.52-10.37-6.19,1.29-6.98,25.45-12.39,27.07-7.48,1.68-13.07-9.88-13.24-3.52-.35,8.06,9.42,17.98,9.31,27.79-.12,9.8-11.3,19.28-12.09,27.34-1.96,7.49,3.62,20.96-.73,27.7-6.83,9.8-27.16,24.2-40.16,16.52-6.21-2.09-17.95-26.78-23.31-21.27-4.08,5.44-6.38,15.73-11.48,23.26-4.41,6.5,4.22,22.37-.32,29.14-4.77,7.11-17.77,8.4-22.04,14.46-3.87,5.47,4.5,21.11.5,25.41-4.12,4.41-11.56,10.12-16.93,13.95-4.61,2.69-5.41-17.97-6.79-21.36-2.08-5.53-19.16-8.08-21.37-14.19-2.83-7.17,2.76-14.9,8.99-21.07,3.9-5.29-2.79-23.86,3.57-32.46,6.29-8.49,29.59-4.34,33.61-9.77,4.52-5.85,15.57-10,18.94-16.61,3.3-6.47-12.24-22.15-8.79-28.78,2.97-9.15,28.57-22.6,23.58-32.15-4.91-8.65-18.05-13.43-23.35-21.96-3.98-6.71-4.81-9.91-3.76-16.26,3.46-8.37-7.18-26.16-1.68-33.76,4.45-7.03,20.95-3.31,27.95-4.26,8.11-1.09,30.7,4.24,34.05-2.11.71-7.19-.24-18.23.12-25.62.36-7.27-2.88-14.82-2.55-22.16.32-7.32-3.58-14.64-2.98-21.91.61-7.35-13.53-16.93-12.33-24.09,2.15-10.26-.99-29.32,5.32-37.18,3.3-3.74,11.7-8.69,19.03-16.96,4.92-5.56,24.38.41,30.34-6.31,5.28-5.97-1.96-23.58,3.65-29.94,5.51-6.22,26.89,1.46,32.28-4.67,5.73-6.5,7.03-16.59,12.16-22.44,6.21-7.1,19.68-9.08,24.18-14.31,1.95-4.31-9.89-19.57-11.61-23.49-3.2-4.83-3.56-12.07-6.68-17.83-3.16-5.82-16.38-3.47-20.81-7.35-5.47-2.47-6.48-19.96-15.12-23.33-6.89-2.69-19.55,7.73-27.11,4.87-7.49-2.83-10.7-17.03-17.68-19.69-4.71-1.79-11.4,2.17-17.4,5.61-4.9-16.57-4.11-15.24,5.07-16.61,9.17-1.38,17.76-6.67,26.93-8.04,11.3-1.64,24.5,6.23,36.36,4.92,12.37-1.37,24.44-22.47,35.36-21.75,12.97.58,19.85,26.08,30.97,31.25,11.06,5.14,29.93-2.82,40.14,4.71,9.88,7.28,5.23,34.32,15.22,41.85,10.97,8.31,30.11,6.1,41.01,14.41,11.3,8.62,17.21,27.53,28.88,33.92,12.54,6.94,32.83,8.54,44.96,7.64,12.12-.9,19.72-27.17,32.35-31.84,13.72-5.1,26.76-11.55,40.5-17.19,13.79-5.66,27.39-12.76,41.05-17.88,10.82-4.05,26.34,4,37.24,1.65,11.19-2.4,20.81-.94,32.58-.73,11.45.53,22.96,2.34,34.7,2.94,11.48.58,23.28-2.51,34.98-1.88,11.52.63,22.74,8.07,34.4,8.73,11.55.65,22.93,5.04,34.56,5.71,11.58.67,22.7,9.49,34.3,10.17,11.6.68,23.57-4.88,35.14-4.2,11.64.68,23.16,2.85,34.7,3.52,11.67.67,23.29,1.47,34.8,2.12,11.7.66,24.37-16.69,35.84-16.07,13.6,1.07,28.9-7.97,42.95-6.76,14.45,1.24,28.15,15.56,40.56,21.17,10.65,4.88,18.63,14.81,28.63,21.21,9.9,6.33,27.61,1.27,37.33,7.92,9.81,6.71,20.41,10.23,30.5,16.09,12.15,7.04,14.99,31.98,26.64,34.28,10.47,2.03,20.32-19.72,31.31-21.54,10.38-1.71,23.55,10.46,34.02,6.93,10.27-3.46,22.82-1.21,32.83-4.9,10.6-3.92,14.9-28.23,24.8-30.69,16-4.11,32.18,8.78,46.63,14.63,8.94,3.94,24.55,1.43,31.64,8.48,6.99,6.95,14.15,15.18,20.46,22.41,8.17,9.79.11,33.29,8.3,43.15,8.17,9.83,17.55,18.66,25.72,28.51,8.17,9.86,23.25,13.98,31.4,23.8,8.2,9.88,21.48,18.68,29.63,28.46Z"/>
    <path id="Outside_Land" data-name="Outside Land" class="cls-2" d="M2456.79,188.19c-6,6.69-15.79,10.53-20.14,18.04-3.76,8.18-8.26,15.41-8.85,24.66.06,4.89.49,15.35-3.75,18.2-8.11,4.62-26.01-6.92-34.3-2.38-3.46,1.99-10.7,6.45-12.72,9.86-2.71,4.71-8.3,10.58-12.15,17.33-3.87,6.78-4.55,15.97-7.23,20.65-3.77,8.61-7.3,3.28-16.02,6.93-8.08,3.77-13.98,14.09-22.57,18.1-8.52,3.98-10.51,22.26-18.66,26.06-8.14,3.61-17.8-10.38-26.59-9.96-4.79.37-8.81,8.4-13.73,8.67-3.39-.65-26.76,7.16-23.76,1.21,2.82-6.57,19.91-9.63,23.41-16.52,4.55-7.36-26.25-17.69-29.08-25.06-.78-1.54-.74-3.01-.24-4.34-7.94,3.58-17.81,3.63-23.67,10.06-2.32,3.36-5.89,2.88-6.03,6.87-.01,5.26,8.92,12.44,8.92,19.56s-22.57,14.46-22.6,19.34c-.17,5.09,10.24,5.31,4.54,7.27-6.35,2.88-7.58,20.41-15.43,23.93-6.95,3.12-12.72,9.89-20.04,13.17-7.33,3.27-16.95,1.43-23.9,4.54-7.86,3.51-22.14-8.56-28.49-5.7-5.46,2.46-4.9,17.92-11.53,16.98-5.91-.38-11.06-14.11-17.92-15.45-7.07-1.39-15.41,1.78-21.18,2.78-2.79,1.02-1.11,11.2-2.13,15.45-1.87,6.8-3.26,14.85-5.14,22.69-1.97,8.2-8.45,14.99-10.71,21.23-1.34,2.37-2.61-4.92-5.22-4.71-5.42.12-13.04,20.04-22.52,20.29-7.26.2-15.83-22.56-23.77-22.35-7.99.21-15.54,16.56-22.75,16.74-9.72.25-18.84-15.86-23.95-15.76-.64.06-1.16.18-1.58.36-10.59,4.92-10.11-13.58-10.54-19.4-.45-4.75-.22-7.58-1.39-8.45-8.15-9.78-21.43-18.58-29.63-28.46-8.15-9.82-23.23-13.94-31.4-23.8-8.17-9.85-17.55-18.68-25.72-28.51-8.19-9.86-.13-33.36-8.3-43.15-6.31-7.23-13.47-15.46-20.46-22.41-7.09-7.05-22.7-4.54-31.64-8.48-14.45-5.85-30.63-18.74-46.63-14.63-9.9,2.46-14.2,26.77-24.8,30.69-10.01,3.69-22.56,1.44-32.83,4.9-10.47,3.53-23.64-8.64-34.02-6.93-10.99,1.82-20.84,23.57-31.31,21.54-11.65-2.3-14.49-27.24-26.64-34.28-10.09-5.86-20.69-9.38-30.5-16.09-9.72-6.65-27.43-1.59-37.33-7.92-10-6.4-17.98-16.33-28.63-21.21-12.41-5.61-26.11-19.93-40.56-21.17-14.05-1.21-29.35,7.83-42.95,6.76-11.47-.62-24.14,16.73-35.84,16.07-11.51-.65-23.13-1.45-34.8-2.12-11.54-.67-23.06-2.84-34.7-3.52-11.57-.68-23.54,4.88-35.14,4.2-11.6-.68-22.72-9.5-34.3-10.17-11.63-.67-23.01-5.06-34.56-5.71-11.66-.66-22.88-8.1-34.4-8.73-11.7-.63-23.5,2.46-34.98,1.88-11.74-.6-23.25-2.41-34.7-2.94-11.77-.21-21.39-1.67-32.58.73-10.9,2.35-26.42-5.7-37.24-1.65-13.66,5.12-27.26,12.22-41.05,17.88-13.74,5.64-26.78,12.09-40.5,17.19-12.63,4.67-20.23,30.94-32.35,31.84-12.13.9-32.42-.7-44.96-7.64-11.67-6.39-17.58-25.3-28.88-33.92-10.9-8.31-30.04-6.1-41.01-14.41-9.99-7.53-5.34-34.57-15.22-41.85-10.21-7.53-29.08.43-40.14-4.71-11.12-5.17-18-30.67-30.97-31.25-10.92-.72-22.99,20.38-35.36,21.75-11.86,1.31-25.06-6.56-36.36-4.92-9.17,1.37-17.76,6.66-26.93,8.04-9.18,1.37-9.97.04-5.07,16.61-4.75,2.71-9.06,5.1-11.63,4.04-4.07-1.58-8.9-19.72-11.04-18.03-4.5,3.87-.04,22.83-6.72,25.22-5.88,1.63-11.02,18.52-21.8,21.59-7.99,2.28-19.34-3.9-28.34-1.34-8.7,2.49-16.89,7.33-25.23,9.69-9.64,2.73-17.16,7.49-24.45,9.49-10.12,4.28-21.57-1.71-27.18-3.34-6.6-1.92-12.03-16.62-21.79-15.37-8.08,2.14-19.23,5.99-27.22,9.27-5.28,2.44,7.01,12.42,6.93,19.11-.16,1.68-23.86,2.72-23.87,4.5-.27,11.07,15.91,21.27,14.25,28.26-1.7,7.15-12.4,11.42-24.61,16.33-6.6,2.93-18.14,9.74-24.39,6.46-6.91-3.67-7.45-21.06-14.44-24.65-6.49-3.67-13.13,3.67-19.57,5.26-6.42,1.58-12.52,5.5-18.85,6.88-5.72,1.61-2.03,5.7-5.53,10.06-3.16,3.93-24-3.43-29.01,2.8-4.14,5.16-10.12,9.45-14.27,14.63-4.98,6.2-2.27,18.03-5.46,21.99-5.25,8.4-5.14,5.5-10.62.27-3.86-3.96-18.47,2.41-23.46-1.97-4.98-4.36,2.85-20.71-.36-25.36-2.01-3.89,5.39-6.85,6.37-11.96,1.87-7.6,3.19-17.39,5.49-26.72,2.63-10.67,11.03-17.85,12.45-23.69,3.15-7.04-13.26-18.02-17.7-23.82-3.56-4.9-13.23-9.48-19.5-13.6l138.47-138.77h2103.44c.23.12.47,4.79.71,4.91,5.79,2.89,12.83,5.41,22.17,10.59,5.14,5.34,5.94,6.76,6.74,15.32-.08,7.12,5.89,14.47,5.9,21.86.02,7.25-20.83,14.63-20.81,21.89.02,7.37,21.99,14.17,21.93,21.31.96,8-3.17,21.39-8.2,26.51Z"/>
  </g>
  <g id="Frame">
    <g>
      <path class="cls-7" d="M2590.34,116.03h66.64v66.41l-66.64-66.41ZM2648.98,124.03h-39.28l39.28,39.14v-39.14Z"/>
      <path class="cls-7" d="M2493.61,19.64h260.46v259.55l-86.82-86.52v-86.49h-86.79l-86.85-86.55ZM2746.07,27.64h-233.1l70.79,70.55h91.48v91.16l70.82,70.57V27.64Z"/>
      <path class="cls-7" d="M182.93,182.11v-66.08h66.32l-66.32,66.08ZM190.93,124.03v38.82l38.96-38.82h-38.96Z"/>
      <path class="cls-7" d="M182.93,2051.96v-65.93l66.17,65.93h-66.17ZM190.93,2005.29v38.67h38.8l-38.8-38.67Z"/>
      <path class="cls-7" d="M85.84,2148.36v-259.09l86.82,86.52v86.03h86.33l86.85,86.54H85.84ZM93.84,1908.54v231.82h232.64l-70.79-70.54h-91.02v-90.7l-70.82-70.57Z"/>
      <path class="cls-7" d="M2590.9,2051.96l66.08-65.85v65.85h-66.08ZM2648.98,2005.38l-38.72,38.58h38.72v-38.58Z"/>
      <path class="cls-7" d="M2494.16,2148.36l86.85-86.54h86.24v-85.94l86.82-86.52v259h-259.91ZM2584.31,2069.82l-70.79,70.54h232.55v-231.73l-70.82,70.57v90.61h-90.93Z"/>
      <path class="cls-7" d="M2590.34,116.03h66.64v66.41l-66.64-66.41ZM2648.98,124.03h-39.28l39.28,39.14v-39.14Z"/>
      <path class="cls-7" d="M2493.61,19.64h260.46v259.55l-86.82-86.52v-86.49h-86.79l-86.85-86.55ZM2746.07,27.64h-233.1l70.79,70.55h91.48v91.16l70.82,70.57V27.64Z"/>
      <path class="cls-7" d="M182.93,182.11v-66.08h66.32l-66.32,66.08ZM190.93,124.03v38.82l38.96-38.82h-38.96Z"/>
      <path class="cls-7" d="M2590.9,2051.96l66.08-65.85v65.85h-66.08ZM2648.98,2005.38l-38.72,38.58h38.72v-38.58Z"/>
      <path class="cls-7" d="M2494.16,2148.36l86.85-86.54h86.24v-85.94l86.82-86.52v259h-259.91ZM2584.31,2069.82l-70.79,70.54h232.55v-231.73l-70.82,70.57v90.61h-90.93Z"/>
      <path class="cls-7" d="M182.93,2051.96v-65.93l66.17,65.93h-66.17ZM190.93,2005.29v38.67h38.8l-38.8-38.67Z"/>
      <path class="cls-7" d="M85.84,2148.36v-259.09l86.82,86.52v86.03h86.33l86.85,86.54H85.84ZM93.84,1908.54v231.82h232.64l-70.79-70.54h-91.02v-90.7l-70.82-70.57Z"/>
      <g>
        <path class="cls-7" d="M2590.34,116.03h66.64v66.41l-66.64-66.41ZM2648.98,124.03h-39.28l39.28,39.14v-39.14Z"/>
        <path class="cls-7" d="M182.93,182.11v-66.08h66.32l-66.32,66.08ZM190.93,124.03v38.82l38.96-38.82h-38.96Z"/>
        <path class="cls-7" d="M2590.9,2051.96l66.08-65.85v65.85h-66.08ZM2648.98,2005.38l-38.72,38.58h38.72v-38.58Z"/>
        <path class="cls-7" d="M182.93,2051.96v-65.93l66.17,65.93h-66.17ZM190.93,2005.29v38.67h38.8l-38.8-38.67Z"/>
        <path class="cls-7" d="M2590.34,116.03h66.64v66.41l-66.64-66.41ZM2648.98,124.03h-39.28l39.28,39.14v-39.14Z"/>
        <path class="cls-7" d="M85.84,1870.86v-704.64l82.5-82.22-82.5-82.22V297.28L364.47,19.64h2110.66l278.94,277.97v704.18l-82.5,82.22,82.5,82.22v704.73l-278.39,277.41H364.32l-1.17-1.17-277.31-276.34ZM93.84,1169.54v698l273.78,272.83h2104.75l273.7-272.74v-698.09l-85.84-85.54,85.84-85.54V300.92L2471.82,27.64H367.77L93.84,300.6v697.86l85.84,85.54-85.84,85.54Z"/>
        <path class="cls-7" d="M182.93,182.11v-66.08h66.32l-66.32,66.08ZM190.93,124.03v38.82l38.96-38.82h-38.96Z"/>
        <path class="cls-7" d="M85.84,1870.86v-704.64l82.5-82.22-82.5-82.22V297.28L364.47,19.64h2110.66l278.94,277.97v704.18l-82.5,82.22,82.5,82.22v704.73l-278.39,277.41H364.32l-1.17-1.17-277.31-276.34ZM93.84,1169.54v698l273.78,272.83h2104.75l273.7-272.74v-698.09l-85.84-85.54,85.84-85.54V300.92L2471.82,27.64H367.77L93.84,300.6v697.86l85.84,85.54-85.84,85.54Z"/>
        <path class="cls-7" d="M182.93,2051.96v-65.93l66.17,65.93h-66.17ZM190.93,2005.29v38.67h38.8l-38.8-38.67Z"/>
        <path class="cls-7" d="M2590.9,2051.96l66.08-65.85v65.85h-66.08ZM2648.98,2005.38l-38.72,38.58h38.72v-38.58Z"/>
      </g>
      <path class="cls-7" d="M2667.25,106.18v-43.83h43.96v43.83h-43.96ZM2675.25,70.34v27.83h27.96v-27.83h-27.96Z"/>
      <path class="cls-7" d="M2668.09,2105.35v-43.83h43.96v43.83h-43.96ZM2676.09,2069.52v27.83h27.96v-27.83h-27.96Z"/>
      <path class="cls-7" d="M128.58,2106v-43.83h43.96v43.83h-43.96ZM136.58,2070.16v27.83h27.96v-27.83h-27.96Z"/>
      <path class="cls-7" d="M127.74,106.82v-43.83h43.96v43.83h-43.96ZM135.74,70.99v27.83h27.96v-27.83h-27.96Z"/>
      <path class="cls-7" d="M59.23,1114.68v-61.02h61.21v61.02h-61.21ZM67.23,1061.66v45.02h45.21v-45.02h-45.21Z"/>
      <path class="cls-7" d="M78.19,1095.79v-23.23h23.29v23.23h-23.29ZM86.19,1080.56v7.23h7.29v-7.23h-7.29Z"/>
      <path class="cls-7" d="M2719.46,1114.68v-61.02h61.21v61.02h-61.21ZM2727.46,1061.66v45.02h45.21v-45.02h-45.21Z"/>
      <path class="cls-7" d="M2738.42,1095.79v-23.23h23.29v23.23h-23.29ZM2746.42,1080.56v7.23h7.29v-7.23h-7.29Z"/>
      <path class="cls-7" d="M182.93,182.11v-66.08h66.32l-66.32,66.08ZM190.93,124.03v38.82l38.96-38.82h-38.96Z"/>
      <path class="cls-7" d="M182.93,2051.96v-65.93l66.17,65.93h-66.17ZM190.93,2005.29v38.67h38.8l-38.8-38.67Z"/>
      <path class="cls-7" d="M2590.9,2051.96l66.08-65.85v65.85h-66.08ZM2648.98,2005.38l-38.72,38.58h38.72v-38.58Z"/>
      <path class="cls-6" d="M89.84,298.94l78.82-78.55,18.27-18.2,82.46-82.16,17.91-17.85,78.82-78.55h2107.35l78.82,78.55,17.91,17.85,82.77,82.48,18.27,18.2,78.82,78.55v700.86l19.71,19.64V4H70.13v1015.76l19.71-19.64V298.94ZM2600.02,120.03h52.96v52.77l-52.96-52.77ZM2750.07,23.64v245.92l-78.82-78.55v-88.83h-89.14l-78.82-78.55h246.78ZM239.57,120.03l-52.64,52.45v-52.45h52.64ZM89.84,23.64h246.47l-78.82,78.55h-88.82v88.5l-78.82,78.55V23.64ZM2769.77,1148.24l-19.71,19.64v701.41l-78.82,78.55-18.27,18.2-82.21,81.92-96.74,96.41H365.97l-179.04-178.42-18.27-18.2-78.82-78.55v-701.32l-19.71-19.64v1015.76h2699.64v-1015.76ZM239.41,2047.96h-52.49v-52.3l52.49,52.3ZM89.84,2144.36v-245.45l78.82,78.55v88.36h88.67l78.82,78.55H89.84ZM2600.58,2047.96l52.4-52.21v52.21h-52.4ZM2503.84,2144.36l78.82-78.55h88.59v-88.28l78.82-78.55v245.37h-246.23Z"/>
      <path class="cls-7" d="M2590.34,116.03h66.64v66.41l-66.64-66.41ZM2648.98,124.03h-39.28l39.28,39.14v-39.14Z"/>
      <path class="cls-6" d="M132.58,1125.29l41.43-41.29-84.17-83.88-84.17,83.88,64.47,64.24,19.71,19.64,42.74-42.59ZM70.13,1120.36l-36.48-36.36,56.19-55.99,42.74,42.59,13.45,13.4-56.19,55.99-19.71-19.64Z"/>
      <path class="cls-7" d="M128.58,1913.45v-789.83l39.76-39.62-39.76-39.62V254.69L321.6,62.35h2196.38l193.22,192.55v789.6l-39.65,39.51,39.65,39.51v790.15l-193.02,192.34H321.8l-1.17-1.17-192.05-191.38ZM136.58,1126.95v783.18l188.53,187.87h2189.78l188.32-187.66v-783.51l-42.98-42.83,42.98-42.83V258.21l-188.53-187.87H324.91l-188.33,187.66v783.05l43.1,42.95-43.1,42.95Z"/>
      <path class="cls-7" d="M27.98,1084l61.86-61.64,61.86,61.64-61.86,61.64-61.86-61.64ZM89.84,1033.65l-50.52,50.35,50.52,50.35,50.52-50.35-50.52-50.35Z"/>
      <g>
        <path class="cls-6" d="M2769.77,1148.24l64.47-64.24-84.17-83.88-84.17,83.88,41.31,41.17,42.86,42.71,19.71-19.64ZM2707.21,1097.28l-13.33-13.28,56.19-55.99,19.71,19.64,36.48,36.36-56.19,55.99-42.86-42.71Z"/>
        <path class="cls-7" d="M2688.21,1084l61.86-61.64,61.86,61.64-61.86,61.64-61.86-61.64ZM2750.07,1033.65l-50.52,50.35,50.52,50.35,50.52-50.35-50.52-50.35Z"/>
      </g>
    </g>
  </g>
  <g id="Text">
    <g>
      <g>
        <path class="cls-7" d="M848.29,577.19h6.55v39.88h-6.55v-22.73l-7.41-5.7v28.43h-6.55v-40.45h.68l13.28,9.97v-9.4Z"/>
        <path class="cls-7" d="M859.28,597.13c0-11.91,8.43-20.51,19.94-20.51s19.94,8.6,19.94,20.51-8.43,20.51-19.94,20.51-19.94-8.66-19.94-20.51ZM892.21,597.13c0-8.38-5.3-14.19-12.99-14.19s-12.93,5.81-12.93,14.19,5.3,14.19,12.93,14.19,12.99-5.81,12.99-14.19Z"/>
        <path class="cls-7" d="M916.26,617.07l-4.9-9.06c-.4.11-.74.11-1.08.17v8.89h-6.55v-39.88h4.16c8.72,0,15.21,6.1,15.21,15.61,0,5.53-2.28,9.97-5.81,12.65l6.38,11.62h-7.41ZM910.28,583.63v18.46c3.25-.63,5.81-4.27,5.81-9.29s-2.56-8.55-5.81-9.17Z"/>
        <path class="cls-7" d="M930.73,617.07v-33.79h-6.78v-6.1h20.11v6.1h-6.78v33.79h-6.55Z"/>
        <path class="cls-7" d="M960.82,577.19h6.55v39.88h-6.55v-23.42h-7.41v23.42h-6.55v-39.88h6.55v10.31h7.41v-10.31Z"/>
        <path class="cls-7" d="M972.78,617.07v-39.88h15.38v6.33h-8.83v6.21h7.98v5.7h-7.98v15.33h8.83v6.32h-15.38Z"/>
        <path class="cls-7" d="M1005.2,617.07l-4.9-9.06c-.4.11-.74.11-1.08.17v8.89h-6.55v-39.88h4.16c8.72,0,15.21,6.1,15.21,15.61,0,5.53-2.28,9.97-5.81,12.65l6.38,11.62h-7.41ZM999.22,583.63v18.46c3.25-.63,5.81-4.27,5.81-9.29s-2.56-8.55-5.81-9.17Z"/>
        <path class="cls-7" d="M1030.27,577.19h6.55v39.88h-6.55v-22.73l-7.41-5.7v28.43h-6.55v-40.45h.68l13.28,9.97v-9.4Z"/>
        <path class="cls-7" d="M1074.2,577.19l-7.12,8.66,6.84,31.22h-7.01l-5.19-24.73-1.54,1.88v22.85h-6.55v-39.88h6.55v8.49l6.67-8.49h7.35Z"/>
        <path class="cls-7" d="M1076.99,617.07v-39.88h15.38v6.33h-8.83v6.21h7.98v5.7h-7.98v15.33h8.83v6.32h-15.38Z"/>
        <path class="cls-7" d="M1110.84,577.19h6.55v39.88h-6.55v-22.73l-7.41-5.7v28.43h-6.55v-40.45h.68l13.28,9.97v-9.4Z"/>
        <path class="cls-7" d="M1126.33,577.19c11.91,0,19.54,8.15,19.54,19.94s-7.63,19.94-19.54,19.94h-3.53v-39.88h3.53ZM1129.35,610.63c5.58-.4,9.51-5.81,9.51-13.5s-3.93-13.16-9.51-13.56v27.06Z"/>
        <path class="cls-7" d="M1162.86,617.07l-4.9-9.06c-.4.11-.74.11-1.08.17v8.89h-6.55v-39.88h4.16c8.72,0,15.21,6.1,15.21,15.61,0,5.53-2.28,9.97-5.81,12.65l6.38,11.62h-7.41ZM1156.87,583.63v18.46c3.25-.63,5.81-4.27,5.81-9.29s-2.56-8.55-5.81-9.17Z"/>
        <path class="cls-7" d="M1174.54,617.07v-39.88h6.32v39.88h-6.32Z"/>
        <path class="cls-7" d="M1185.13,616.5v-6.61c1.54.85,3.3,1.42,5.41,1.42,2.85,0,4.62-1.59,4.62-4.84,0-2.39-.8-4.04-2.62-7.12l-3.08-4.96c-1.82-2.96-2.96-5.93-2.96-9.06,0-5.01,3.48-8.72,9.29-8.72,1.77,0,3.48.34,4.67.85v6.15c-1.25-.57-2.34-.91-3.7-.91-2.17,0-3.53,1.14-3.53,3.25,0,1.88.97,3.53,2.17,5.53l2.74,4.56c2.22,3.65,3.82,6.95,3.82,11,0,6.55-3.93,10.6-10.6,10.6-2.51,0-4.5-.4-6.21-1.14Z"/>
        <path class="cls-7" d="M1206.39,617.07v-39.88h6.32v39.88h-6.32Z"/>
        <path class="cls-7" d="M1233.96,617.07l-1.14-4.27h-9.4l-1.14,4.27h-6.67l12.14-42.05h.74l12.19,42.05h-6.72ZM1224.85,607.33h6.55l-3.25-12.71-3.3,12.71Z"/>
      </g>
      <g>
        <path class="cls-7" d="M913.06,1236.83v-6.61c1.54.85,3.3,1.42,5.41,1.42,2.85,0,4.61-1.59,4.61-4.84,0-2.39-.8-4.04-2.62-7.12l-3.08-4.96c-1.82-2.96-2.96-5.93-2.96-9.06,0-5.01,3.48-8.72,9.29-8.72,1.77,0,3.48.34,4.67.85v6.15c-1.25-.57-2.34-.91-3.7-.91-2.17,0-3.53,1.14-3.53,3.25,0,1.88.97,3.53,2.17,5.53l2.73,4.56c2.22,3.65,3.82,6.95,3.82,11,0,6.55-3.93,10.6-10.6,10.6-2.51,0-4.5-.4-6.21-1.14Z"/>
        <path class="cls-7" d="M932.21,1217.45c0-11.91,8.43-20.51,19.94-20.51s19.94,8.6,19.94,20.51-8.43,20.51-19.94,20.51-19.94-8.66-19.94-20.51ZM965.14,1217.45c0-8.38-5.3-14.19-12.99-14.19s-12.93,5.81-12.93,14.19,5.3,14.19,12.93,14.19,12.99-5.81,12.99-14.19Z"/>
        <path class="cls-7" d="M976.48,1225.77v-28.26h6.55v28.26c0,3.82,1.31,5.87,3.99,5.87s3.99-2.05,3.99-5.87v-28.26h6.55v28.26c0,7.69-3.99,12.19-10.54,12.19s-10.54-4.5-10.54-12.19Z"/>
        <path class="cls-7" d="M1007.08,1237.4v-33.79h-6.78v-6.1h20.11v6.1h-6.78v33.79h-6.55Z"/>
        <path class="cls-7" d="M1037.16,1197.51h6.55v39.88h-6.55v-23.42h-7.41v23.42h-6.55v-39.88h6.55v10.31h7.41v-10.31Z"/>
        <path class="cls-7" d="M1049.13,1237.4v-39.88h15.38v6.33h-8.83v6.21h7.98v5.7h-7.98v15.33h8.83v6.32h-15.38Z"/>
        <path class="cls-7" d="M1081.55,1237.4l-4.9-9.06c-.4.11-.74.11-1.08.17v8.89h-6.55v-39.88h4.16c8.72,0,15.21,6.1,15.21,15.61,0,5.53-2.28,9.97-5.81,12.65l6.38,11.62h-7.41ZM1075.56,1203.95v18.46c3.25-.63,5.81-4.27,5.81-9.29s-2.56-8.55-5.81-9.17Z"/>
        <path class="cls-7" d="M1106.62,1197.51h6.55v39.88h-6.55v-22.73l-7.41-5.7v28.43h-6.55v-40.45h.68l13.28,9.97v-9.4Z"/>
        <path class="cls-7" d="M1150.55,1197.51l-7.12,8.66,6.84,31.22h-7.01l-5.18-24.73-1.54,1.88v22.85h-6.55v-39.88h6.55v8.49l6.67-8.49h7.35Z"/>
        <path class="cls-7" d="M1153.34,1237.4v-39.88h15.38v6.33h-8.83v6.21h7.98v5.7h-7.98v15.33h8.83v6.32h-15.38Z"/>
        <path class="cls-7" d="M1187.18,1197.51h6.55v39.88h-6.55v-22.73l-7.41-5.7v28.43h-6.55v-40.45h.68l13.28,9.97v-9.4Z"/>
        <path class="cls-7" d="M1202.68,1197.51c11.91,0,19.54,8.15,19.54,19.94s-7.63,19.94-19.54,19.94h-3.53v-39.88h3.53ZM1205.7,1230.96c5.58-.4,9.52-5.81,9.52-13.5s-3.93-13.16-9.52-13.56v27.06Z"/>
        <path class="cls-7" d="M1239.2,1237.4l-4.9-9.06c-.4.11-.74.11-1.08.17v8.89h-6.55v-39.88h4.16c8.72,0,15.21,6.1,15.21,15.61,0,5.53-2.28,9.97-5.81,12.65l6.38,11.62h-7.41ZM1233.22,1203.95v18.46c3.25-.63,5.81-4.27,5.81-9.29s-2.56-8.55-5.81-9.17Z"/>
        <path class="cls-7" d="M1250.88,1237.4v-39.88h6.32v39.88h-6.32Z"/>
        <path class="cls-7" d="M1261.48,1236.83v-6.61c1.54.85,3.3,1.42,5.41,1.42,2.85,0,4.61-1.59,4.61-4.84,0-2.39-.8-4.04-2.62-7.12l-3.08-4.96c-1.82-2.96-2.96-5.93-2.96-9.06,0-5.01,3.48-8.72,9.29-8.72,1.77,0,3.48.34,4.67.85v6.15c-1.25-.57-2.34-.91-3.7-.91-2.17,0-3.53,1.14-3.53,3.25,0,1.88.97,3.53,2.17,5.53l2.73,4.56c2.22,3.65,3.82,6.95,3.82,11,0,6.55-3.93,10.6-10.6,10.6-2.51,0-4.5-.4-6.21-1.14Z"/>
        <path class="cls-7" d="M1282.73,1237.4v-39.88h6.32v39.88h-6.32Z"/>
        <path class="cls-7" d="M1310.31,1237.4l-1.14-4.27h-9.4l-1.14,4.27h-6.67l12.14-42.05h.74l12.19,42.05h-6.72ZM1301.19,1227.65h6.55l-3.25-12.71-3.3,12.71Z"/>
      </g>
      <g>
        <path class="cls-7" d="M2100.96,1153.83v-33.79h-6.78v-6.1h20.11v6.1h-6.78v33.79h-6.55Z"/>
        <path class="cls-7" d="M2131.04,1113.95h6.55v39.88h-6.55v-23.42h-7.41v23.42h-6.55v-39.88h6.55v10.31h7.41v-10.31Z"/>
        <path class="cls-7" d="M2143.01,1153.83v-39.88h15.38v6.32h-8.83v6.21h7.98v5.7h-7.98v15.33h8.83v6.32h-15.38Z"/>
        <path class="cls-7" d="M2174.58,1153.83v-39.88h6.32v39.88h-6.32Z"/>
        <path class="cls-7" d="M2185.17,1153.27v-6.61c1.54.85,3.3,1.42,5.41,1.42,2.85,0,4.62-1.6,4.62-4.84,0-2.39-.8-4.04-2.62-7.12l-3.08-4.96c-1.82-2.96-2.96-5.92-2.96-9.06,0-5.01,3.48-8.72,9.29-8.72,1.77,0,3.48.34,4.67.85v6.15c-1.25-.57-2.34-.91-3.7-.91-2.17,0-3.53,1.14-3.53,3.25,0,1.88.97,3.53,2.17,5.53l2.74,4.56c2.22,3.65,3.82,6.95,3.82,11,0,6.55-3.93,10.6-10.6,10.6-2.51,0-4.5-.4-6.21-1.14Z"/>
        <path class="cls-7" d="M2206.43,1153.83v-39.88h6.55v33.56h9.51v6.32h-16.07Z"/>
        <path class="cls-7" d="M2242.15,1153.83l-1.14-4.27h-9.4l-1.14,4.27h-6.67l12.14-42.05h.74l12.19,42.05h-6.72ZM2233.03,1144.09h6.55l-3.25-12.71-3.3,12.71Z"/>
        <path class="cls-7" d="M2265.23,1113.95h6.55v39.88h-6.55v-22.73l-7.41-5.7v28.43h-6.55v-40.45h.68l13.28,9.97v-9.4Z"/>
        <path class="cls-7" d="M2280.72,1113.95c11.91,0,19.54,8.15,19.54,19.94s-7.63,19.94-19.54,19.94h-3.53v-39.88h3.53ZM2283.74,1147.4c5.58-.4,9.51-5.81,9.51-13.5s-3.93-13.16-9.51-13.56v27.06Z"/>
        <path class="cls-7" d="M2301.29,1153.27v-6.61c1.54.85,3.3,1.42,5.41,1.42,2.85,0,4.62-1.6,4.62-4.84,0-2.39-.8-4.04-2.62-7.12l-3.08-4.96c-1.82-2.96-2.96-5.92-2.96-9.06,0-5.01,3.48-8.72,9.29-8.72,1.77,0,3.48.34,4.67.85v6.15c-1.25-.57-2.34-.91-3.7-.91-2.17,0-3.53,1.14-3.53,3.25,0,1.88.97,3.53,2.17,5.53l2.74,4.56c2.22,3.65,3.82,6.95,3.82,11,0,6.55-3.93,10.6-10.6,10.6-2.51,0-4.5-.4-6.21-1.14Z"/>
      </g>
      <g>
        <path class="cls-8" d="M421.13,1986.02l-12.55-23.2c-1.02.29-1.9.29-2.77.44v22.77h-16.78v-102.15h10.65c22.33,0,38.96,15.62,38.96,39.99,0,14.16-5.84,25.54-14.88,32.4l16.34,29.77h-18.97ZM405.81,1900.36v47.28c8.32-1.61,14.88-10.95,14.88-23.79s-6.57-21.89-14.88-23.5Z"/>
        <path class="cls-8" d="M449.59,1986.02v-102.15h39.4v16.2h-22.62v15.91h20.43v14.59h-20.43v39.26h22.62v16.2h-39.4Z"/>
        <path class="cls-8" d="M534.52,1926.04h37.94v57.5c-5.69,2.63-13.86,3.94-23.64,3.94-31.96,0-53.7-21.31-53.7-52.68s21.74-52.39,54.14-52.39c8.03,0,14.59.73,20.72,2.48v16.49c-5.98-1.9-11.97-2.77-19.56-2.77-22.77,0-37.36,14.45-37.36,36.19s14.59,36.48,37.07,36.48c2.19,0,4.23-.15,6.13-.44v-29.62h-21.74v-15.18Z"/>
        <path class="cls-8" d="M587.93,1986.02v-102.15h16.2v102.15h-16.2Z"/>
        <path class="cls-8" d="M615.65,1934.95c0-30.5,21.6-52.54,51.08-52.54s51.08,22.04,51.08,52.54-21.6,52.54-51.08,52.54-51.08-22.18-51.08-52.54ZM700,1934.95c0-21.45-13.57-36.34-33.27-36.34s-33.13,14.89-33.13,36.34,13.57,36.34,33.13,36.34,33.27-14.89,33.27-36.34Z"/>
        <path class="cls-8" d="M765.23,1883.87h16.78v102.15h-16.78v-58.23l-18.97-14.59v72.82h-16.78v-103.61h1.75l34,25.54v-24.08Z"/>
        <path class="cls-8" d="M819.66,1934.95c0-30.5,21.6-52.54,51.08-52.54s51.08,22.04,51.08,52.54-21.6,52.54-51.08,52.54-51.08-22.18-51.08-52.54ZM904.01,1934.95c0-21.45-13.57-36.34-33.27-36.34s-33.13,14.89-33.13,36.34,13.57,36.34,33.13,36.34,33.27-14.89,33.27-36.34Z"/>
        <path class="cls-8" d="M933.48,1986.02v-102.15h40.13v16.2h-23.35v16.64h21.31v15.62h-21.31v53.7h-16.78Z"/>
        <path class="cls-8" d="M1063.51,1883.87l-18.24,22.18,17.51,79.97h-17.95l-13.28-63.34-3.94,4.82v58.52h-16.78v-102.15h16.78v21.74l17.07-21.74h18.83Z"/>
        <path class="cls-8" d="M1070.66,1986.02v-102.15h39.4v16.2h-22.62v15.91h20.43v14.59h-20.43v39.26h22.62v16.2h-39.4Z"/>
        <path class="cls-8" d="M1157.34,1883.87h16.78v102.15h-16.78v-58.23l-18.97-14.59v72.82h-16.78v-103.61h1.75l34,25.54v-24.08Z"/>
        <path class="cls-8" d="M1197.03,1883.87c30.5,0,50.06,20.87,50.06,51.08s-19.55,51.08-50.06,51.08h-9.05v-102.15h9.05ZM1204.76,1969.53c14.3-1.02,24.37-14.89,24.37-34.59s-10.07-33.71-24.37-34.73v69.32Z"/>
        <path class="cls-8" d="M1290.57,1986.02l-12.55-23.2c-1.02.29-1.9.29-2.77.44v22.77h-16.78v-102.15h10.65c22.33,0,38.96,15.62,38.96,39.99,0,14.16-5.84,25.54-14.89,32.4l16.34,29.77h-18.97ZM1275.24,1900.36v47.28c8.32-1.61,14.89-10.95,14.89-23.79s-6.57-21.89-14.89-23.5Z"/>
        <path class="cls-8" d="M1320.48,1986.02v-102.15h16.2v102.15h-16.2Z"/>
        <path class="cls-8" d="M1347.62,1984.57v-16.93c3.94,2.19,8.46,3.65,13.86,3.65,7.3,0,11.82-4.09,11.82-12.4,0-6.13-2.04-10.36-6.71-18.24l-7.88-12.7c-4.67-7.59-7.59-15.18-7.59-23.2,0-12.84,8.9-22.33,23.79-22.33,4.52,0,8.9.88,11.97,2.19v15.76c-3.21-1.46-5.98-2.33-9.49-2.33-5.55,0-9.05,2.92-9.05,8.32,0,4.82,2.48,9.05,5.55,14.16l7,11.67c5.69,9.34,9.78,17.8,9.78,28.17,0,16.78-10.07,27.14-27.14,27.14-6.42,0-11.53-1.02-15.91-2.92Z"/>
        <path class="cls-8" d="M1402.05,1986.02v-102.15h16.2v102.15h-16.2Z"/>
        <path class="cls-8" d="M1472.69,1986.02l-2.92-10.95h-24.08l-2.92,10.95h-17.08l31.08-107.7h1.9l31.23,107.7h-17.22ZM1449.34,1961.07h16.78l-8.32-32.54-8.46,32.54Z"/>
      </g>
    </g>
  </g>
  <g id="Button">
    <g>
      <g>
        <rect class="cls-9" x="1180.77" y="958.94" width="88.08" height="88.08" transform="translate(-350.48 1159.84) rotate(-45)"/>
        <path class="cls-7" d="M1224.81,1074.46l-71.48-71.48,71.48-71.48,71.48,71.48-71.48,71.48ZM1171.72,1002.98l53.09,53.09,53.09-53.09-53.09-53.09-53.09,53.09Z"/>
      </g>
      <path class="cls-7" d="M1224.81,1041.96l-38.97-38.97,38.97-38.97,38.97,38.97-38.97,38.97ZM1204.22,1002.98l20.59,20.59,20.59-20.59-20.59-20.59-20.59,20.59Z"/>
    </g>
  </g>
</svg>