<svg xmlns="http://www.w3.org/2000/svg" viewBox="0 0 2160 2700" xmlns:xlink="http://www.w3.org/1999/xlink">
  <defs>
    <style>
      .cls-1 {
        fill: #664e5b;
      }

      .cls-2 {
        fill: #846172;
      }

      .cls-3 {
        fill: #997c8b;
      }

      .cls-4 {
        fill: #f7e1ba;
      }

      .cls-5 {
        fill: #493641;
      }
    </style>
  </defs>
  <a xlink:href="../quartiers/granit.html">
    <path class="cls-3" d="M639.54,2209.41c-4.45,1.13-8.34-3.17-11.37-5.99-7.28-4.29-14.1-9.43-20.69-14.71-3.23-2.47-5.87-5.9-9.64-7.57-1.95-.68-4.35.46-5.49,2.08-.9,1.67-1.42,3.51-2.35,5.16-.82.78-1.68,1.56-2,2.71-1.86,6.64-3.07,13.46-5.41,19.97-1.11,4.25-4.06,7.43-7.42,10.1-3.59,3.68-8.57,5.05-13.57,5.43-2.03.05-4.36.83-6.25-.13-.81-1.07-1.15-1.92-1.82-3.17-6.13-12.9-14.57-24.55-25.2-34.11-5.53-5.55-12.65-9.12-17.98-14.9-2.25-2.43-4.38-5.18-4.89-8.56-.2-2.16.6-4.28.34-6.43-.41-4.45-1.62-8.77-2.51-13.13-3.43-13.38-.33-22.57,5.25-34.73,2.83-6.51,2.97-14.07,1.58-20.95-1.48-5.4-3.91-10.35-5.75-15.64-1.04-2.99-1.8-6.14-3.77-8.69-2.78-3.65-6.13-6.83-9.14-10.29-2.33-2.38-4.32-5.77-7.73-6.62-6.87-1.03-8.93,18.05-16.17,15.71-4.67-2.19-6.83-7.33-8.78-11.79-.28-.95-1.22-2.78-2.03-1.16-.04.11-.07.23-.1.35-2.77-4.98-5.46-10-8.77-14.65-4.07-5.27-8.8-10.8-15.3-12.93-9.7-2.72-15.11-6.63-17.38-16.82-1.53-7.13-1.93-14.35-2.07-21.7.3-9.14,1.43-16.8-8.71-20.76-4.94-2.14-10.25-3.45-15.61-3.98-5.27-.36-11.06-1-14.99-4.99-1.31-1.91-.83-4.58-1-6.8.29-3.17-.51-6.33-2.72-8.69-1.93-2.44-3.92-4.83-6.15-6.99-6.47-5.63-13.6-10.84-21.8-13.59-1.88-.68-3.94-1.15-5.96-1.01,61.69-61.53,123.36-123.16,185.02-184.82h.01c.9,3.57,1.79,7.15,2.68,10.74,4.82,19.36,9.65,38.71,14.47,58.06,4.86,19.5,9.71,38.99,14.58,58.48,4.87,19.55,9.74,39.11,14.61,58.66,4.92,19.72,9.84,39.45,14.75,59.17,4.92,19.74,9.84,39.48,14.76,59.22,1.73,6.94,3.46,13.88,5.19,20.82l.48,1.94c3.07,12.31,6.13,24.62,9.2,36.92,4.81,19.3,9.63,38.6,14.43,57.9,4.35,17.51,8.71,35.03,13.09,52.53.02.07.03.14.05.22.01.04.02.08.03.13Z"/>
  </a>
  <!-- <path class="cls-5" d="M900.84,923.06c-.02,91.39-.05,182.77-.06,274.16-34.55,14.28-69.16,28.52-103.66,42.95-.45.19-.83.45-1.15.76l-196.59-196.6h-.01c1.38-1.74,2.8-3.44,4.31-5.07,8.45-9.5,18.36-17.63,26.99-26.96,3.97-4.08,2.8-7.73,2.59-12.85-.25-6.48,1.07-13.4,2.42-19.77,1.76-7.97,4.53-13.03,11.17-17.99,7.66-6.8,15.4-14.34,19.17-24.07,3.6-9.53,5.24-19.66,5.27-29.83,1.54-20.03-1.84-39.92-2.01-59.95,1.8,2.06,2.43-.6,1.84-2.22,1.18-.39,2.35-.79,3.53-1.2,6.54-2.37,13.45-3.8,19.65-7.03,9.3-5.32,14.03-8.31,25.37-7.44,20.79,1.3,27.86,16.93,50.87,19.09,2.26.31,4.52.57,6.79.77.89.64,2.47,1.2,2.67.23.24.02.48.04.72.06.36.03.57-.35.64-.65.01-.04.01-.08.02-.12,5.25-1.09,10.94-.46,16.27-.64,4.73.01,9.78-.39,14.11,1.87,9.24,5.6,16.29,13.84,24.93,20.38,10.77,8.77,23.65,14.09,34.89,22.17,9.28,6.62,13.97,17.61,22.62,24.88,2,1.54,4.05,3.25,6.26,4.56.07.21.2.37.38.51Z"/> -->
  <path class="cls-3" d="M1107.36,840.53c-5.77,12.29-15.19,22.37-26.48,29.81-6.27,4.02-12.73,7.94-19.69,10.65-1.52.43-3.11.47-4.65.84-.59.21-.78.85-.77,1.54-7.19-1.37-14.83-.69-22.09-.5-7.48.02-14.95.35-22.39,1.14-3.6.37-7.3.24-10.78,1.31-4.33,1.51-7.02,5.83-8.82,9.82-1.53,3.95-4.38,7.64-8.75,8.46-10.98,1.86-20.38,8.16-30.55,12.32-6.19,3.35-12.88,5.42-19.88,6.12-4.12.66-8.31.68-12.46.67-5.08-.13-10.27.24-15.25-.97-.49-.16-1.23-.4-1.97-.51V214.62c.14.65.31,1.29.5,1.93,1.75,5.87,3.97,11.58,5.45,17.53,1.32,4.37,1.92,9.34,5.12,12.82,2.25,2.2,5.27,3.53,7.31,5.97,3.42,2.93,1.9,6.96.21,10.37-5.89,14.63-7.03,19.18,10.04,22.73,5.65,1.33,11.43,3.21,16.03,6.86,2.92,2.9,5.87,6.23,7.37,10.09,1.27,4.73-1.65,9.06-2.72,13.52-1.95,8.99-3.73,20.71,3.78,27.63,3.27,2.96,6.93,5.48,9.87,8.78,5.68,6.08,5.87,13.83,5.95,21.65.5,6.17.09,12.37.7,18.53.89,5.88,1.97,11.77,3.68,17.46,2.11,7.4,3.44,6.58,10.13,8.4,3.99,1.19,7.94,3.04,12.11,3.42,2.15-.28,3.22-2.54,4.11-4.27,1.45-3.19,2.79-6.48,4.95-9.28,3.39-4.68,8.02-8.3,13.37-10.48,7.24-3.61,15.43-7.19,23.67-5.33,9.62,3.24,9.21-4.06,16.24.83,9.64,7.16,20.22,15.44,23.82,27.37.54,6.46-3.13,12.22-5.18,18.13-1.89,4.95-2.57,10.24-4.07,15.31-3.89,11.01-7.7,22.21-8.15,34-.87,9.85,4.47,18.39,8.82,26.78,4.67,8.97,5.08,14.07.27,23.17-3.74,6.69-6.62,13.84-10.76,20.3-5.12,8.63-17.98,25.39-16.35,35.17,1.16,5.83,4.75,10.76,6.49,16.39,1.5,5.02.97,10.42,2.35,15.52,2.92,10.15,9.92,18.71,17.75,25.58,3.46,2.85,6.85,5.89,10.59,8.41-.16.66-.14,1.39.03,1.89.09.5.69.9,1.1.52,2.16.53,4.4,1.16,6.64.97.49-.09.96-.22,1.4-.39-.35.94-.67,1.89-.91,2.87-1.36,8.17-.5,16.57.94,24.68,1.19,8.03,4.05,15.77,7.77,22.99,3.07,5.59,3.04,12.23,3.94,18.41.64,6.22,2.2,12.31,1.69,18.6-.5,4.2-2.52,7.98-4.38,11.71-3.13,5.93-5.9,12.08-7.71,18.54-2.74,7.23.86,14.45,4.24,20.78,3.6,6.88,7.71,13.61,9.77,21.15,2.52,7.74-.1,11.13-3.44,17.9Z"/>
  <path class="cls-1" d="M900.84,920.42c-1.74-1.12-3.28-2.45-5.08-3.85-6.39-5.82-10.58-13.56-16.62-19.69-4.07-4.02-8.78-7.33-13.68-10.26-8.56-4.93-17.34-9.58-25.23-15.57-8.99-6.59-16.58-15.21-25.97-21.37-5.67-3.76-12.62-3.84-19.19-3.61-1.29.19-9.63-.34-14.74.34-.13-.08-.27-.14-.43-.18-6.82-.56-13.67-1.21-20.29-3.17-9.82-2.76-17.6-9.75-26.83-13.75-9.06-3.67-19.68-4.72-29.01-1.42-4.11,1.67-7.72,4.27-11.69,6.22-3.68,1.79-7.61,2.96-11.51,4.17-6.29,1.92-12.43,4.38-18.82,5.99-6.79,1.89-13.82,2.53-20.83,3.07-8.46.84-16.97.85-25.47.86-6.55.22-12.51,3.59-17.92,7.03-3.38,2.37-6.87,5.02-8.68,8.84-1.66,3.36-1.9,7.44-4.5,10.3-2.08,1.92-4.83,2.87-7.34,4.09-5.71,3.21-10.36,5.33-16.48,1.47-6.59-3.48-9.5-10.66-14.6-15.7-3.04-2.96-6.87-4.93-10.51-7.03-5.35-3.26-11.17-5.47-17.22-6.96-5.31-2.8-10.49-6.62-13.6-11.85-1.85-3.47-2.58-7.4-3.7-11.14-1.83-6.85-4.44-13.43-6.85-20.08-7.1-21.89-13.58-43.99-21.15-65.73,1.13-3.86-3.91-11.06-6.04-14.35.4-3.6,3.33-6.52,5.45-9.35,2.75-3.25,5.65-6.36,8.47-9.56.81-1.09,2.1-1.99,2.54-3.3-.06-3.06-1.89-5.86-3.21-8.55-1.16-2.19-2.81-4.18-3.42-6.61-.7-5.09.97-10.14,2.48-15.06,1.99-5.4,4.49-10.73,8.76-14.71,5.46-4.99,11.31-9.65,17.59-13.56,9.12-5.13,12.34-5.92,21.02.72,5.4,4.05,12.26,6.62,19.03,4.91,4.57-1.3,9.56-2.47,13.28-5.57,2.74-2.45,5.46-4.96,7.9-7.72,2.87-2.94,4.9-7.21,2.74-11.14-2.03-4.23-5.88-7.21-8.18-11.28-1.35-3.33-2.62-6.86-4.62-9.91-2.61-4.07-5.98-8.84-11.17-9.4-3.7-.28-7.31.77-11.03.7-6.48-.16-10.07-1.69-14.65-6.24-2.16-1.71-2.09-4.78-2.62-7.27-.18-.97.28-1.48,1.36-1.06,5.29,2.15,10.79,5.87,16.66,3.33,6.38-2.16,11.87-6.4,16.76-10.93,1.57-1.4-.27-3.43-1.22-4.66-3.72-4.51-7.99-8.51-12.54-12.17-3.26-2.7-7.78-5.89-7.28-10.66,1.37-8.91,6.73-20.92.82-28.96-3-3.85-7.3-6.4-10.91-9.63-10.47-9.08-19.58-19.66-30.38-28.37-5.3-5.08-12.81-3.52-19.45-4.21-4.67-.87-8.94-3.17-13.4-4.96-2.69-3.16-3.91-6.54-2.07-10.49,4.84-14.88,7.91-14.12-5.35-25.09-3.06-2.68-6.07-5.38-8.93-8.29-1.03-1-1.28-2.39-1.18-3.85.32-2.55,1.33-4.94,2.24-7.34.19-.5-.04-1.04-.38-1.5.04-.06.08-.11.11-.16,2.06-3.35,3.56-6.99,5.2-10.56,1.04-2.21,2.26-4.37,3.43-6.52,3.15-6.14,7.27-11.64,10.95-17.45,2.55-4.34,5.45-8.26,8.24-12.5,4.89-7.98,15.06-5.76,22.96-5.55,4.56.06,9.11-.43,13.67-.44,5.1-.08,10.02.41,15.18.75,11.07,1.26,13.83-1.13,18.63-10.7,3.94-7.52,2.63-11.47,12.55-8.86,6.8,2.15,13.31,5.17,19.67,8.38,8.78,4.33,17.01,9.97,26.49,12.71,4.21,1.33,8.49,2.48,12.8,3.41,3.88,1.11,8.09,1.18,11.66-.9,4.28-2.24,8.16-5.4,12.99-6.42,10.27-1.77,20.61-3.59,30.24-7.77,7.79-3.91,15.17-2.67,22.27-1.44,6.76,1.18,13.25,2.36,19.58-.9,2.93-1.69,5.27-4.15,7.63-6.52,2.92-2.97,5.8-6.05,7.85-9.69,2.23-3.86,3.89-8.01,5.92-11.97,1.66-3.14,4.11-6.14,6.51-8.79,2.2-2.43,3.66-5.4,5.81-7.86,3.53-3.7,8.7-5,13.06-7.42,11.83-6.69,18.82-6.44,31.65-3.46,9.47.93,10.13-13.99,13.75-20.07,2.74-4.3,6.94-7.61,11.17-10.37,9.6-5.51,18.39,3.86,25.64,9.19,5.05,4.25,10.74,7.57,17.02,9.65,2.9.87,5.72,2.82,8.83,2.53,3.35-1.01,5.54-3.95,7.57-7.01-.06-.32-.13-.63-.19-.95-.16-.79-.32-1.58-.47-2.37-.17.24-.33.48-.5.71,0-.25,0-.49.02-.74.02.02.05.04.08.05.03,0,.06,0,.09,0,.1,0,.2-.04.29-.1-.12-.61-.24-1.22-.35-1.83h0c.17-1.93.46-3.83.7-5.73.41-2.3.33-4.67.81-6.95,1.92-3.47,6.09-4.85,9.37-6.73,5.32-2.49,5-9.42,4.96-14.44-.08-5.25-1.58-10.35-1.7-15.6-.04-5.31,4.2-9.33,7.83-12.69,3.11-2.79,5.42-6.26,7.85-9.61.28-.34.57-.67.84-1v10.37c0,.25.04.75.2,1.13h0c.1,236.07.07,472.16.01,708.25Z"/>
  <path class="cls-2" d="M669.66,898.22c-.49,10.19-.26,20.54-3.25,30.4-2.21,10.02-8.33,17.8-15.53,24.8-5.54,5.46-12.85,9.79-15.13,17.7-2.66,7.92-4.15,16.29-4.52,24.63-.31,3.44.63,6.98.15,10.35-1.91,3.42-5.26,6.15-8.08,8.92-6.74,6.93-14.15,13.19-20.55,20.46-1.95,2.13-3.78,4.37-5.6,6.62-116.96-117-233.97-234.01-350.98-350.97,3.48,2.67,7.06,5.23,10.57,7.85,3.62,2.92,6.91,6.22,10.29,9.41,9.54,9.06,12.86,7.94,24.76,5.64,3.29-.29,6.52.88,9.8.31,1.8-.16,3.57-.67,5.38-.56,1.91.32,3.77,1.01,5.48,1.93,2.91,2.45,3.56,6.46,4.84,9.86,2.36,7.45,7.66,10.51,13.82,14.5,4.47,4.38,7.58,10,11.81,14.63,1.97,2.54,4.33,4.92,7.58,5.66,3.92,1.11,8.04.8,12.04.75,6.97,1.49,12.47,6.62,18.64,9.81,3.19,1.17,6.65.62,9.97.55,3.39-.12,6.77-.37,10.15-.69,12.82-.98,24.95-5.46,36.51-10.85,11.44-4.99,23.54-9.24,33.48-16.94,4.58,12.79,8.52,25.85,12.63,38.79,3.96,12.21,7.37,24.59,12.1,36.53,3.02,7.7,3.8,16.31,8.07,23.47,3.58,5.28,8.85,9.41,14.52,12.26,5.8,1.45,11.39,3.49,16.53,6.6,3.59,2,7.29,3.98,10.33,6.79,2.92,2.73,4.82,6.29,7.33,9.36,2.87,3.47,6.44,6.43,10.62,8.17,4.99,2.29,10,.05,14.36-2.5,3.56-1.74,7.89-2.98,9.79-6.78,1.58-3.01,2.03-6.46,3.68-9.43,4.36-6.35,11.68-10.15,18.67-12.97,3.94-1.43,8.16-1.33,12.3-1.24,4.55.13,9.08-.1,13.61-.41,6.63-.48,13.29-.83,19.85-1.93,3.93-.67,7.78-1.68,11.59-2.85-.1,2.01.1,4.55.13,6.4.42,15,2.51,29.96,2.26,44.97Z"/>
  <path class="cls-2" d="M1129.49,977.76c-.19.69-.18,1.54.11,2.25-.2.85-.41,1.69-.65,2.53-.09.3.02.53.22.72-2.17,5.6-1.96,11.87-2.75,17.79-.69,7.58-.7,15.21-.56,22.82-.59,10.32-1.45,20.72.29,31,.76,5.69,3.71,10.92,3.99,16.67-.25,5.17-.08,10.32-.43,15.49-.47,4.29-1.83,8.41-3.52,12.36-2.4,5.46-2.37,12.02-3.08,17.95-.29,2.35-.06,4.75.16,7.13h0c-.23.47-.18,1.32-.11,1.83.02.35.04.7.07,1.05l.32,4.52c.27,3.38.6,6.75,1.08,10.11.71,4.82,1.33,9.69,1.25,14.58-.01,1.77-.6,3.86.23,5.47-1.23,1.81-2.28,3.76-3.08,5.83-2.66,5.69-5.45,11.32-7.7,17.19-1.57,3.61-3.05,7.26-4.85,10.75-1.13,2.1-2.81,4.62-5.3,2.53-6.79-4.74-8.75-4.67-16.76-3.14-5.93.12-10.41,4.35-13.13,9.31-1.26,2.1-1.66,4.57-2.05,6.95-.52,2.64-1.19,5.25-1.6,7.91-1.48,7.39-1.39,14.67-.78,22.14.05,5.23-.4,10.45.45,15.64.21,3.45,1.21,6.72,2.12,10.02-.88.2-1.76.5-2.65.57-.57-2.96-1.33-5.88-2-8.82-.35-1.54-.46-4.14-2.53-4.5-1.4-.33-2.84-.65-4.29-.62-.18,0-.39.01-.61.02-.71.05-1.53.09-1.84-.5-.42-2.47-1.19-4.85-1.94-7.24-.09-2.57-1.64-4.77-3.12-6.76-3.24-4.93-8.61-10-14.99-7.94-3.42,1.07-7.05,2-9.97,4.17-1.56,1.22-2.89,2.71-4.28,4.12-1.35,1.47-2.97,2.66-4.38,4.06-3.1,3.46-2.79,8.51-3.12,12.86,0,.49-.11.72-.41,1.1-.63.64-1.21,1.28-1.74,1.93-.98-2.37-1.95-4.74-2.94-7.1-.93-2.26-1.86-4.5-2.8-6.75h.01s-1.58-3.68-1.58-3.68h-.01c-.53-.95-1.22-1.77-2.34-2.11-26.02-10.78-52.04-21.55-78.05-32.33-6.67-2.76-13.34-5.52-20-8.28-1.39-.58-2.77-1.16-4.16-1.72-.28-.11-.57-.25-.86-.36v-273.52c1.36.57,2.8.94,4.34,1.01.32.01.71-.13.79-.48h0c5.8.55,11.69.48,17.53.37,6.02-.1,12.04-1.01,17.9-2.38,4.8-1.15,9.1-3.57,13.56-5.59,4.47-1.88,8.84-3.98,13.16-6.2,4.95-2.49,10.21-4.19,15.63-5.26,6.43-1.49,8.73-6.85,11.22-12.27,1.54-2.28,3.25-4.88,5.93-5.91,4.08-1.03,8.37-.8,12.54-1.32,10.27-.95,20.6-.95,30.91-1.17,3.28.35,6.99.12,10.23,1.02.19.14.4.19.64.19,1.44.48,2.78,1.21,3.92,2.35,2.13,2.02,3.83,4.42,5.98,6.42,2.15,1.99,4.77,3.43,7.47,4.54,10.29,3.37,21.36,1.53,31.96,1.15,2.51,2.59,4.68,5.48,6.88,8.33,2.72,3.63,5.95,6.93,8.1,10.95,2.31,4.16,3.51,8.86,4.15,13.6,1.34,7.19,2.66,14.4,4.25,21.54,1.64,7.34,1.67,15.02.3,22.42-.04-.01-.07,0-.11,0-.33.05-.52.4-.62.69Z"/>
  <path class="cls-3" d="M794.3,1243.84c-.33.85-.61,1.71-.98,2.47-1.04,2.53-2.08,5.04-3.13,7.56-10.21,24.67-20.44,49.34-30.66,74.03-2.01,4.84-4.02,9.69-6.02,14.54-.3.76-.64,1.51-.94,2.27H234.99c2.78-1.09,5.48-2.37,7.99-4,2.37-1.47,4.75-2.89,7.26-4.11,6.82-3.11,14.45-3.47,21.83-3.08,6.38.02,12.76.5,19.13.77,4.58.41,9.1-.39,13.37-2.01,8.11-2.98,16-9.49,17.96-18.2.44-2.88-.38-5.69-1.22-8.42-1.03-3.54-2.03-7.73-2.09-11.58.09-4.47,1.03-8.9.7-13.38-.22-7.65-5.66-13.5-12.18-16.83-3.43-2.34-7.58-3.56-10.64-6.43-7.31-6.88-3.84-8.83-.61-16.09,2.99-7.08,6.68-15.17,4.22-22.91-1.18-3.57-3.79-6.48-4.83-10.09-1.45-7.39-2.35-15.03-3.15-22.54-.27-5.86-.52-16.18,4.02-20.48,4.23-3.72,9.71-5.36,15.06-6.98,7.24-2.49,14.93-5.06,20.66-10.31,3.65-3.51,3.02-8.94,3.65-13.55.19-9.78,10.38-11.78,18.16-13.56,6.68-1.49,13.4-2.95,20.19-3.89,4.4-.57,8.92-.68,13.16-2.1,5.6-1.83,10.83-4.61,16.31-6.73,7.6-2.63,16.87-.86,23.1-6.9,2.67-2.69,2.86-6.72,3.56-10.25.57-3.27,1.2-6.51,1.89-9.76,1.09-5.23,2.77-10.36,3.33-15.69.35-3.74-.06-7.51-1.11-11.11-1.21-4.12-2.35-8.45-5.13-11.84-3-3.72-6.73-6.81-10.68-9.48-4.4-2.92-9.63-5.98-10.93-11.5-.69-6.4-1.17-12.89-1.04-19.34.46-7.51,2.03-14.91,2.57-22.43.44-8.91,2.22-19.84-5.01-26.59-3.91-4.25-8.85-7.35-13.05-11.27-2.21-2.16-3.63-4.97-4.57-7.89-1.93-7.14-3.61-14.35-5.73-21.44-1.19-3.76-2.3-7.74-5.04-10.71-4.43-4.86-9.64-8.91-14.93-12.78-10.97-7.63-20.54-17.06-31.52-24.69-4.28-3.17-9.29-5.47-12.39-9.98-.64-.87-1-2.37-1.79-3.44-.99-1.44-2.13-2.78-3.24-4.13-2.94-3.55-6.15-6.92-8.5-10.91-1.97-3.61-3.12-7.59-5.12-11.18-5.51-10.63-11.09-20.97-16.11-31.92-2.42-5.25-5.31-10.26-8.03-15.35-4.19-7.92-8.12-15.96-12.55-23.75-5.88-11.37-11.52-22.86-17.4-34.23-2.05-4.43-3.88-8.96-5.86-13.42-3.81-8.21-8.21-16.11-11.73-24.46-1.52-3.32-3.04-6.66-4.67-9.93,124.27,124.27,248.55,248.56,372.82,372.83.75.75,1.5,1.5,2.25,2.21l196.96,196.95h.01Z"/>
  <path class="cls-2" d="M1008.7,2140.28c-5.12-.59-10.27-1.02-15.37-1.69-3.08-.59-6.09-1.46-9.13-2.2-1.98-.52-4.18-.85-5.63-2.41-1.73-2.04-2.37-4.76-3.97-6.89-3.75-5.14-10.26-9.75-16.89-8.59-2.5.65-4.93,1.56-7.32,2.51-1.35.56-2.74,1.16-3.6,2.4-2.97,5.05,2.22,9.76,4.42,14,2.98,5.27.81,8.01-2.62,12.18-4.98,6.25-7.4,5.37-14.22,7.61-5.79,2.48-10.56,7.43-12.73,13.34-.94,3.49-.08,7.13-.95,10.66-.87,2.64-1.84,5.24-3,7.77-2.72,4.73-5.67,9.44-7.01,14.8-1.39,8.14.15,16.47-.35,24.69-.31,3.78-1.51,7.42-2.21,11.14-1.16,7.9-2.53,15.86-4.93,23.52-.17.67-.36,1.34-.55,2.01l-2.01-4.65-.07-.16c-.93-3.24-2.27-6.34-3.3-9.54-.84-2.62-.68-5.38-.93-8.09-1.21-6.73-4.24-13.02-6.73-19.36-1.94-4.44-4.23-8.71-5.42-13.45-1.61-4.51-1.82-9.2-2.84-13.85-3.37-9.37-6.99-18.67-9.89-28.2-.54-1.8-.92-3.94-.75-5.88.24-10.59,4-20.61,5.36-31.04.76-6.39,2.88-12.99,2.19-19.42-1.25-3.66-4.2-6.52-6.47-9.59-4.4-5.39-9.5-10.21-15.24-14.14-3.9-2.7-8.14-4.85-12.25-7.2-5.14-2.94-10.03-6.35-15.42-8.83-5.46-2.18-13.16-6.09-17.95-.79-3.86,3.94-7.36,8.27-11.33,12.09-3.63,3.4-7.31,7.22-12.3,8.44-4.68.78-9.5.58-14.21.08-3.69-.23-7.43-.51-10.9-1.97-8.62-4.54-11.9-7.82-21.99-3.61-13.14,5.03-14.94,11.14-14.74,24.38-.39,5.62-.27,11.27.38,16.88.15,4.02,1.17,8.42-.58,12.21-.75,1.11-1.65,2.43-2.91,3.09-.52-.04-1.02-.29-1.51-.47-7.09-3.03-13.69-7.09-20.85-9.96-7.42-2.78-19.12-7.25-26.69-3.72-7.06,4.33-11.22,12.4-14.43,19.79-1.21,3.16-1.81,6.5-2.5,9.79-1.21,4.78-2.23,10.15-2.22,15.18.3,3.86-.32,7.63-1.09,11.41-.51,2.51-.55,5.12-1.35,7.56-1.65,4.16-4.92,7.72-6.87,11.78-1.03,1.96-1.78,4.29-3.44,5.81-.01-.03-.01-.05-.02-.08,0-.03-.01-.05-.02-.08-.02-.08-.03-.15-.05-.23-1.32-5.27-114.19-458.27-118.4-475.12,30.33-30.28,91.08-91.03,91.08-91.03l223.88,96.81c-.11.34-.22.67-.35,1-.09.26-.19.51-.29.76,0,.02-.02.03-.02.04-.12.28-.25.56-.39.83-.02.04-.03.07-.05.1-.13.25-.27.5-.42.75-.19.33-.4.64-.63.94-.16.23-.33.45-.52.67-.44.51-.93.99-1.49,1.45-6.5,4.54-9.61,9.24-7.11,17.34,1.38,4.29,2.29,8.85,4.54,12.79,1.29,1.99,2.59,4.02,4.11,5.85,1.76,2.58,4.7,3.47,7.42,4.64,4.22,1.99,8.4,4.65,10.76,8.79,2.75,5.48,5.39,11.03,7.81,16.66-2,2.87-4.56,5.31-6.57,8.17-2.82,4.56-5.09,9.93-4.96,15.37,1.03,7.61,5.19,14.55,5.26,22.36.35,5.16-1.54,10.46.27,15.49.21.57.44,1.15.69,1.73l1.4,2.83c1.49,2.57,3.49,4.83,6.24,5.97,8.75,1.58,4.39,8.34,4.77,14.35.45,2.06,2.55,7,3.25,8.75.09.22.21.42.35.6,1.11,1.38,2.17,2.78,3.39,4.08,3.15,3.34,6.54,6.57,10.47,9.07,4.14,2.42,8.7,4.08,12.89,6.42,1.54,1.31,2.43,3.44,3.24,5.29,2.73,8.63,5.08,9.94,13.86,11.13,6.54.95,12.99-.94,19.55-.41,2.04.11,4.16.25,6.17.7.94.21,1.32,1.2,1.51,2.05,1.14,6-5.53,9.25-7.04,14.52-1.75,4.64-1.01,9.72-.43,14.52.56,5.98,3.23,11.19,7.21,15.72,5.41,6.11,10.7,11.96,16.18,18.09,5.92,5.98,11.97,12.22,14.93,20.27-4.93,5.28-13.51,3.83-19.04,8.25-8.02,5.7-8,14.51-5.88,23.22.93,5.66,3.22,10.93,5.46,16.17,2.44,7.48,7.04,14.77,10.48,21.95,3.65,8.82,6.7,17.87,14.67,23.84,1.76,1.43,3.5,2.96,5.53,4.01,4.79,1.84,10.05,2.62,14.18,5.93,3.22,2.33,6.34,4.75,9.43,7.26Z"/>
  <path class="cls-1" d="M981.84,1657.57c.13,3.54.19,7.1.45,10.64-.24,2.41.28,5.01-1.29,7.06-.52.81-1.18,1.48-1.91,2.06-.12.1-.24.2-.36.29-1.12.85-2.36,1.56-3.5,2.4-.03.02-.06.05-.09.07-.13.1-.25.2-.38.3-.46.37-.9.77-1.3,1.22l-.09.09c-.49.52-1.01,1.03-1.48,1.58-.5.57-.96,1.18-1.31,1.87-.18.23-.33.49-.49.78-.25.47-.49,1-.79,1.45-.07.11-.15.22-.23.32-.08.11-.17.21-.27.3-.08.08-.17.15-.26.2,0,0,0,.02-.02.02-.09.06-.2.12-.31.16-1.05-1.58-1.82-3.35-3.01-4.84-1.87-2.44-3.21-5.23-5.23-7.55-1.52-1.76-3.27-3.3-4.42-5.35-2.19-3.34-4.04-7.68-8.37-8.54-2.94.42-4.39,3.46-6.6,5.07-2.23,1.21-4.82,1.68-7.33,1.78-.68-.02-1.34-.14-1.9-.53-.71-.59-1.24-1.14-1.75-1.95-.17-.32-.33-.64-.66-.82-4.45-2.02-5.41,1.4-7.71,4.38-3.91.69-7.53,2.24-10.92,4.32-2.83,1.8-5.86,3.44-8.31,5.73-1.98,2.01-2.87,5.25-6,5.89-2.43.78-5.08.1-7.02-1.49-.15-.27-.32-.51-.51-.72.18-.47.32-.95.35-1.47.28-2.31-1.39-2.81-2.05-.47-2.34,1.71-5.24,2.5-8.02,3.18-1.42.41-3.08.68-4.05,1.89-1.24,1.93-1.79,4.27-3.2,6.1-2.32,1.14-4.71,2.27-6.53,4.26-3.26,3.3-6.34,6.76-9.53,10.12-1.61,1.74-2.99,3.75-4.81,5.28-3.26,1.77-5.97,4.36-7.47,7.79-1.6,3.31-2.72,6.85-3.57,10.42-.42,1.87-.73,3.78-1.15,5.64h-.01c-3.8-1.62-10.5-4.48-17.36-7.43-.77-.32-1.53-.65-2.3-.98l-2.08-.79c-.1-.08-.21-.14-.33-.2-.04-.02-.09-.04-.13-.06-5.8-2.46-11.58-4.97-17.36-7.45-4.1-1.77-8.18-3.55-12.29-5.28-4.07-1.71-8.09-3.52-12.15-5.21-1.94-.85-4.15-1.81-6.36-2.73-3.1-1.38-6.49-2.79-9.87-4.24-3.34-1.44-6.67-2.9-10.03-4.31-2.06-.9-4.13-1.79-6.21-2.66-2.15-.93-4.29-1.87-6.45-2.77-1.84-.8-3.94-1.71-6.05-2.6-6.48-2.76-13.07-5.61-19.66-8.44-8.11-3.48-16.2-6.96-24.31-10.44-8.02-3.44-16.04-6.88-24.07-10.33-7.95-3.42-15.91-6.83-23.87-10.25-7.07-3.04-14.15-6.06-21.21-9.1-.22-.33-.52-.61-.84-.85l-3.36-2.6c-2.95-2.44-5.8-5.05-8.91-7.3-3.89-3.01-7.9-5.85-11.68-9-3.59-2.48-4.63-6.71-5.4-10.77-.64-4.77-2.25-9.3-4.06-13.74-2.48-7.18-3.73-13.72-10.85-17.85-9.16-6.98-25.02-12.45-28.87-23.86-1.39-6.59-1.83-13.38-2.42-20.09-.41-5.64.56-11.24,1.1-16.84.59-7.89.83-15.82,2.53-23.58,4.1-18.8,8.44-39.53-.65-57.56-2.99-6.83-9.62-10.5-15.17-14.98-4.05-3.39-7.77-7.38-10.62-11.85-3.28-5.24-5.42-11.06-7.88-16.71-3.49-8.07-7.56-15.94-10.18-24.35-1.75-6.41-3.96-12.97-5.53-19.51-.1-.35-.18-.73-.26-1.12h258.48c.13,1.28.65,2.52,1.2,3.73,9.35,22.58,18.7,45.16,28.06,67.75,4.16,10.05,8.32,20.11,12.49,30.16.65,1.4,1.08,3,1.96,4.29l3.88,2.34c33.82,13.83,67.47,28.28,101.37,41.82l2.1-.19c.83-.33,1.67-.65,2.5-.99,12.1-4.73,24.15-9.64,36.2-14.64-.41,1.06-.8,2.12-1.18,3.19-.51,1.43-.97,2.88-1.35,4.33-.15.55-.28,1.11-.4,1.66-.07.33-.13.66-.19.98-.1.52-.18,1.04-.24,1.57-.02.07-.03.14-.03.21-.03.21-.05.43-.07.65-.05.47-.08.95-.1,1.42,0,.3-.02.6-.02.9,0,.94.06,1.9.18,2.86.04,6.79,2.62,13.08,6.54,18.5,1.16,1.92,2.41,3.75,3.37,5.71.25.54.25,1.12.29,1.66.21,4.21-2.29,14.79,3.13,16.25,2.62-.5,5.04-2.37,7.83-2,1.67,4.88.75,10.55,3.59,15,.58.96,1.79,1.09,2.74,1.63.3.21.55.46,1.09.46s.92-.5,1.37-.79c1.96-1.55,4.09-2.8,6.38-3.76,3.08-1.83,5.21-4.91,8.42-6.62.08.21.2.42.33.67-1.5,2.83-4.71,4.12-6.58,6.75-3.3,3.21-4.51,6.25-1.38,10.16.79.92,1.79,2.46,3.17,2.25.58-.29,1.08-.83,1.58-1.25-1.33,1.63-1.46,1.67-2.83,2.84-.29.25-.5.54-.59.91-.27.19-.49.5-.59.78-.85,1.89.45,3.8.08,5.86-3.12,3.94-5,8.62-8.33,12.41-1.86,2.62-2.78,5.74-4.16,8.6-.54,1.41-1.55,2.95-1.9,4.51-1.11,5.48,1.73,11,3.82,15.95,1.98,3.85,4.41,7.5,5.36,11.78.55,1.35,2.06,1.98,3.06,2.95,2.68,2.25,4.32,5.44,6.51,8.12-1.33,3.64-.99,7.41-.43,11.15.33,2.21,1.52,4.16,1.84,6.38Z"/>
  <path class="cls-5" d="M1439.94,2073.45c-1.14,2.19-1.81,4.56-1.86,7.04-.21,3.2-.52,6.39-.88,9.58-.28,3.79-.5,7.69-2.81,10.88-4.39,6.63-9.06,13.16-14.91,18.6-1.66,1.84-4.12,3.2-5.22,5.45-.13.98.4,1.85.81,2.69-5.73-.66-11.75-2.05-17.46-.75-3.73,1.17-3.52,5.78-4.03,8.95-.7,3.85-.82,7.86-1.29,11.76-.38,2.76-.95,5.56-.96,8.41,0,3.28,1.03,6.48.97,9.76-.14,2.4-.7,4.8-1.43,7.08-1.89-1.09-3.89-1.99-5.91-2.79-3.45-1.74-6.78-3.85-10.56-4.83-3.83-.95-7.75.06-11.61.26-5.16-2.18-10.75-1.6-16.23-1.32-8.19-.16-15.82,3.19-23.52,5.6-3.82,1.12-8.17,1.38-11.79-.51-1.7-1.13-3.18-2.55-4.92-3.63-3.79-2.48-7.57-5.11-11.93-6.5-5.09-1.23-10.27-2.19-15.42-3.06-3.49-.4-7.04-.58-10.44-1.46-2.08-1.54-4.24-3.03-6.12-4.82,1.82-2.93,3.17-6.15,5.37-8.83,1-1.33,2.47-2.47,2.81-4.18.75-4.29-3.43-6.89-6.71-8.59-14.13-10.89-13.66-4.52-28.92-3.23-5.87.87-10.81,2.17-16.06-1.59-3.25-2.15-6.74-3.89-10.44-5.1-1.39-.67-2.91-.72-4.41-.43-6.48,1.13-13.63,2.28-18.16,7.51-1.75,2.13-4.17,4.53-4.48,7.38-.14.1-.27.23-.38.38-.19.33-.13.61,0,.88-.36.36,0,1.2.23,1.59-2.99,1.09-6.33.17-9.3-.68-3.42-.68-6.61-1.98-9.28-4.27-3.25-2.05-6.35-4.35-9.8-6.05-4.67-2.47-9.95-3.85-15.13-5.18-4.39-1.12-8.84-2.21-13.39-2.36-1.01-.03-2.04-.02-3.06-.01-3.14.03-6.29.06-9.32-.86-5.37-1.92-9.97-5.66-14.15-9.45-1.85-1.71-2.86-3.89-4.17-6.03-1.03-4.12-.9-8.72-.56-12.99.74-5.19,2.29-10.27,2.96-15.44,5.44-2.82,11.87-1.34,17.66-2.66,4.42-.8,5.92-3.7,7.9-7.31,2.58-3.72,4.78-7.82,4.91-12.46-.1-4.31-.35-9.07-2.41-12.94-2.99-3.12-6.76-1.79-10.57-.46-2.4.84-4.82,1.68-7.05,1.4-4.9-5.36-10.25-10.73-17.29-13.06-4.87-1.39-9.3,1.9-13.79,3.25-3.46.96-7.13,1-10.7,1.02-1.99.08-3.86-.44-5.48-1.61-4.06-2.59-7.97-5.4-11.84-8.26-6.22-4.91-11.45-8.79-11.52-17.47.29-2.35,1.39-4.19,2.46-6.33,1.77-.65,3.75-.6,5.53-1.18,1.35-.64,2-2.11,2.83-3.29,1.72-2.8,2.96-5.88,4.09-8.96,4.65-11.08.59-17.88-4.84-27.52-1.15-2.32-1.42-4.98-2.75-7.21-1.03-1.7-2.51-2.91-4.11-4-.04.04-.07.08-.11.12-1.05-1.09-2.06-2.09-3.4-3.02-1.88-.86-3.71-1.81-5.62-2.61-2.35-.99-4.19-2.83-6.32-4.19-.62-.48-.85-.79-1.5-1.42-.69-1.01-.52-2.21-.53-3.37-.07-2.24-.6-4.37-.94-6.61-.12-1.78-.45-3.53-.62-5.3-.05-1.32-.23-2.92-.88-4.16-.01-.02-.02-.03-.03-.05-.19-.35-.42-.68-.7-.96-.69-.86-1.48-1.65-2.31-2.35-6.3-8.29-17.55-7.14-26.73-8.93-5.95-1.27-11.95-3.13-16.89-6.78-2.57-2.05-4.56-4.71-6.84-7.06-2.18-2.73-5.44-4.57-6.98-7.77-.7-2.13-1.65-4.88-.47-6.96,1.07-1.04,2.7-1.02,4.01-1.58,1.28-.52,2.94-1.27,4.37-1.75,2.41-.67,2.35-2.12,2.45-4.3-.03-2.53.27-5.11-.28-7.59-1.17-5.02-5.74-8.78-10.81-9.33-3.7-.34-7.54-.75-11.21-.03-6.42,2.15-13.04,3.31-19.71,4.32-1.05-2.17-.96-4.78-.95-7.18-.32-2.95-.41-6.21,1.7-8.56,2.99-2.11,5.94-4.46,9.22-6.12,2.35-.61,4.91-.17,7.25-.98.84-.17,1.24-.89,1.18-1.69.16-1.77.4-3.77.02-5.57-.31-1.37-1.37-2.33-2-3.54-1.58-3.22,1.27-5.93,3.4-7.98,3.5-3.96,6.83-8.15,10.89-11.55,2.62-1.65,5.56-1.46,8.49-1.27,1.08.06,2.16.13,3.23.11,5.25.22,10.18-1.75,14.86-3.91,1.51-.76,2.81-1.81,4.09-2.9,1.17-1.11,2.72-2.04,3.45-3.51.96-.91,2.26-1.39,3.25-2.24.82-.57.86-1.65,1.14-2.53.14-.33.11-.67.07-1.01.42-1.17.32-2.6.1-3.8.15-2.2.49-4.39.01-6.59-.02-.22-.03-.44-.05-.67-.09-5.7-.58-11.44.59-17.08.12-.32.25-.65.37-1,.07-.2.14-.4.22-.61.17-.5.36-1.01.57-1.51.07-.18.15-.36.23-.53s.16-.34.25-.51c.05-.11.11-.21.16-.31.1-.18.2-.35.31-.51.46-.31.95-.58,1.45-.82.52-.26,1.06-.48,1.62-.65.71-.23,1.45-.4,2.19-.49h.34c.24,0,.47,0,.7.02.6.03,1.19.1,1.77.21.31.05.61.11.91.19.27.07.54.14.8.21,2.14.64,4.15,1.68,6.12,2.85.34.19.67.39,1,.6,1.74,1.05,3.45,2.17,5.2,3.13.38.21.76.41,1.14.6.39.19.77.38,1.16.55,6.47,2.82,13.41,4.3,20.3,5.7,4.83,1.04,9.3,3.47,14.27,3.8,6.82,1.37,11.91-3.44,16.45-7.77,5.44-5.1,12.03-8.69,17.64-13.59,9.86-6.87,15.83-9.57,27.48-4.71,3.91,1.55,8.42,3.08,11.07,6.5.57,2.47.13,5.04-.42,7.48-.69,2.61-.39,5.87,2.37,7.14,3.46,1.37,6.4,3.32,8.82,6.21.16,4.23-2.27,8.19-3.17,12.28-1.57,6.46-5.37,11.04,3.45,13.72,4.17,1.28,8.48,2.06,12.74,2.98,2.44.34,4.91,1.63,7.37,1.33,1.7-.83,2-3.17,2.07-4.88.91-5.52.58-11.17-.4-16.66,1.74-1.42,3.99-2.24,6.17-2.75,2.14-.15,3.5,1.87,4.35,3.56,1.85,4.09,3.46,8.31,5.93,12.09,2.38,3.75,5.47,6.93,8.59,10.08,0,.01.01.01.01.01.21.42.43.82.67,1.21.34.4.69.53.97.46h.01c.36.37.71.73,1.07,1.1.62.49,1.07.05,1.33-.59,7.75,7.42,14.9,11.16,26.05,13.21,6.04,1.5,12.47.37,18.45,1.88,3.73,3.41,6.17,8.19,9.73,11.82,3.14,3.43,7.34,5.48,11.11,8.07,2.23,1.93,4.21,4.27,5.52,6.93,1.82,4.61,3.15,9.41,5,14.02,3.21,7.84,7.91,15.22,13.92,21.2,5.98,5.71,13.83,10.04,20.22,15.47-.19,2.77-.04,5.99-1.54,8.42-1.7,1.74-4.29,2.4-6.67,2.26-1.51-.18-2.95-.79-4.46-.91-1.34.06-2.46.98-3.63,1.56-5.32,2.34-3.71,5.96-2.32,10.42-6.81,2.25-9.48,8.82-13.35,14.22-2.88,3.16-5.6,6.46-7.89,10.07-1.09,1.28-2.24,2.49-3.02,4-2.47,4.96-.58,10.47.5,15.54,2.21,9.08,1.92,15.79-1.56,24.5-2.51,4.81-7.53,7.63-10.77,11.92-6.19,7.9-8.64,14.37-2.15,23.12,2.84,4.34,4.28,3.85,8.63,1.83,1.77-.92,6.55-3.53,8.17-1.75,2.67,3.24,3.77,7.47,5.48,11.24,1.99,4.57,5.19,8.5,7.76,12.76,6.07,9.7,9.26,12.15,20.6,14.47.87.15,1.71-.11,2.57-.26,1.76-.35,3.6-.38,5.3-1,2.67-1.82,4.99-4.59,8.83-4.52,5.54-.59,11.19-.51,16.64-1.83,2.69-.31,5.49-.65,7.66-2.44,2.45-1.74,4.3-4.16,5.69-6.79.93-1.87,2.02-3.74,2.06-5.88.19-2.58.11-5.17.28-7.75.32-2.09.64-4.18.28-6.29-1.03-5.77-2.98-11.4-5.02-16.89-2.49-5.74-6.01-10.96-8.6-16.67-2.38-5.48-8.25-7.99-11.67-12.71-2.92-3.67-4.62-8.07-6.81-12.16-.76-1.47-1.57-2.9-2.46-4.29-1.12-1.88-2.79-3.54-2.95-5.82-.51-3.19.52-6.33.86-9.48.22-2.1.28-4.2.41-6.3.37-2.84.49-5.68.62-8.53.74-1.41,1.23-2.95,2.27-4.2,2.46,2.05,4.14,4.9,6.26,7.29,2.45,2.23,3.47,4.91,5.2,7.83,2.16,4.06,3.61,8.44,5.64,12.56,1.74,3.57,3.86,6.94,5.75,10.43,2.25,4.12,3.89,8.56,5.84,12.83,3.7,7.32,7.93,14.78,14.9,19.44.61.52,1.59,1.45,1.97.67,4.12,2.88,8.44,5.55,13.41,6.71.65.12,1.29.26,1.93.4.46.1.93.2,1.39.32.84.19,1.68.4,2.52.62.6.16,1.2.32,1.8.48,1.27.34,2.53.68,3.8,1.01.6.16,1.2.32,1.81.47.66.17,1.33.33,2,.48.07.02.14.03.21.05.74.17,1.49.33,2.23.47.06.02.12.03.18.04.6.49.98.96,1.2,1.42.09.19.15.37.19.55.04.18.06.36.06.55,0,.13-.01.27-.03.4-.02.13-.04.26-.08.4-.02.09-.05.19-.09.29-.03.09-.06.18-.1.28-.03.07-.06.15-.09.23-.01.01-.01.03-.02.04-.08.19-.17.38-.27.57-.08.16-.16.31-.25.48-.32.61-.67,1.24-.94,1.92-.85,2.58-1.56,5.21-1.94,7.9-.44,3.43.28,6.85.62,10.25.09,3.39.19,6.87,1.32,10.11,3.82,9.32,13.38,14.29,22,18.42,3.29,1.7,6.35,3.5,9.44,5.68,1.27.77,2.49,2.28,4.09,2.41,2.2-.09,4.24-.85,6.05-2.1,1.66-1.17,3.98-2.3,4.35-4.49,1.44,1.82,2.76,3.73,3.94,5.73,1.86,2.95,2.88,5.36,1.27,8.72Z"/>
  <path class="cls-5" d="M1537,714.11c-.81.81-1.62,1.61-2.43,2.42-5.57,5.56-11.15,11.13-16.73,16.69-5.76,5.74-11.52,11.48-17.27,17.22-5.78,5.77-11.56,11.54-17.35,17.3-5.86,5.84-11.72,11.7-17.59,17.54-4.88,4.86-9.76,9.75-14.65,14.61,0-.04-.02-.09-.04-.13-.79-1.01-1.71.61-1.84,1.39-.13.36-.22.72-.3,1.08h0c-66.33,66.24-132.68,132.49-199.04,198.74l-3.43,3.43.92,3.59,5.69,22.16c-1.21-.61-2.42-1.21-3.64-1.77-1.19-.64-2.58-1.09-3.91-.97-.34-.48-.95-.16-1.37.01-1.59.36-5.29,2.5-4.58,4.45h0c-.01.07-.03.13-.04.19-.55,1.87-1.67,3.52-2.31,5.36-.86,2.45-1.48,4.83-2.85,7.11-1.11.9-2.6.96-3.92,1.35-3.95,1.6-8.39,1.86-12.14,3.99-2.38,1.24-4.4,3.05-6.35,4.87-2.94,2.36-6.22,4.28-8.93,6.95-6.82,5.07-11.36,12.27-7.37,20.7.32,1.08.03,2.32.78,3.27.05.13.11.24.2.31.53,6.26,2.7,12.43,1.9,18.75-.58.38-.93.99-1.28,1.56-12.96-.78-25.67,3.18-38.04,6.78-1.36.36-2.42,1.25-2.81,2.63-1.66,4.48-2.54,9.19-3.73,13.81-1.79,5.94-3.84,12.41-5.97,18.41-.31-.43-.75-.65-1.35-.41-1,.5-2.15,1.73-1.78,2.92-2.08.53-3.99,1.52-5.96,2.33-2.03-.5-3.77,1.11-5.26,2.29-1.4,1.26-2.71,2.6-3.91,4.04.19-3.7-.22-7.57-.6-11.28-.92-6.02-1.58-12.06-1.97-18.13-.05-.6-.09-1.21-.12-1.82.32-.7.17-1.49-.2-2.18-.01-.17-.03-.33-.05-.5-.14-1.24-.33-2.44-.32-3.06-.02-4.7.76-9.36,1.17-14.04.91-5.43,3.95-10.25,4.91-15.71,1.18-5.36.68-10.88.94-16.32.87-6.65-1.77-12.84-3.47-19.13-1.63-7.74-1.7-15.73-1.2-23.61,1.04-11.89-.14-23.81,1.53-35.69.39-3.17.47-6.39,1.24-9.5.37-1.54,1.14-2.92,1.79-4.35.37-.09.7-.28.89-.61.49-1.65.91-3.3,1.25-4.99,1.14-6.87,1.61-13.98.29-20.86-1.5-7.1-2.89-14.22-4.28-21.34-1.85-16.25-7.16-20.46-16.62-32.57-1.38-1.59-2.63-3.4-4.33-4.65-2.91-1.19-6.24-.17-9.31-.19-8.21.37-16.9,1.58-24.71-1.74-5.81-2.48-8.21-8.68-13.68-11.79,2.29-.61,4.43-1.76,6.53-2.83,4.19-2.13,8.28-4.48,12.26-6.99,7.7-5.07,14.96-11.04,20.64-18.35,5.1-7.19,9.61-15.06,12.56-23.39,2.27-13.64-7.6-26.64-13.14-38.44-1.05-2.4-2.27-4.83-2.49-7.47.35-4.48,2.17-8.71,3.77-12.87,3.73-9.2,10.56-17.8,9.41-28.26-.97-8.94-2.13-17.88-3.46-26.78-.81-5.52-3.85-9.92-5.99-15.09-4.3-10.15-6.99-26.73-4.87-37.57.6-2.04,2.07-4.88,3.44-7.83h0c1.05-1.33,1.94-2.81,2.74-4.2,4.16-8.46,7-17.51,9.57-26.57,3.3-10.01,1.7-21.02,5.98-30.74,3.28-6.88,9.13-11.56,13.19-17.76,3.61-6.11,4.41-13.42,8.23-19.43,1.2-1.95,2.29-4.13,4.26-5.43,5.35-2.75,11.75-5.57,17.82-3.83,4.5,1.7,8.82,4.23,12.2,7.68,2.95,3.54,4.86,7.8,7.31,11.69,1.69,2.76,3.48,5.45,5.23,8.18,1.39,2.17,2.73,4.53,4.85,6.08,2.47,1.36,5.43,1.94,8.24,2,2.49-.05,4.75-1.16,7.05-1.95,5.87-2.12,12.26-2.09,18.4-2.85,5.28-.68,10.47-1.97,15.65-3.18,7.69-3.08,12.64,1.07,17.69,6.44,2.4,2.83,5.3,5.55,6.51,9.16.93,3.58-.68,7.25-1.89,10.62-.93,2.23-2.04,4.6-1.59,7.09,1.87,7.77,13.58,11.43,20.54,12.97,5.83,1.72,10.06-3.26,13.52-7.17,1.97-2.07,3.76-4.57,6.53-5.58,5.8-1.1,9.86,4.57,13.69,8.18,4.41,4.63,8.99,9.08,13.8,13.29,9.55,7.9,16.99,17.83,24.84,27.33,3.77,4.67,7.57,9.31,11.73,13.65,1.24,1.35,2.6,2.59,3.87,3.92.26.3.43.67.39,1.07-.71,3.87-2.54,7.44-3.89,11.11-1.59,3.63-3,7.56-1.3,11.43,1.47,4.88,3.58,9.53,5.33,14.31,1.52,6.01,3.06,12.01,4.74,17.98.38,2.2,1.68,4.45,1.55,6.64-.35.94-.82,1.83-1.33,2.7-3.25,5.35-8.18,9.32-12.81,13.42-1.13.98-2.28,1.93-3.45,2.87-1.92,1.39-3.7,3.52-6.24,3.59-6.72-.08-11.05-7.38-17.71-7.29-6.59,1.07-10.44,7.77-14.34,12.55-2.25,3.09-4.76,6.01-6.56,9.4-2.62,5.12-4.93,10.41-7.57,15.53-2.48,5.06-3.52,10.61-4.72,16.07-1.01,3.75-3.72,6.82-4.12,10.79-.58,3.98-.69,10.68,2.21,13.71.54.41,1.36.49,2.03.45,2.29-.15,4.53-.69,6.8-.94,4.04-.52,8.45.35,12.02-2.08,4.68-3.11,7.9-7.92,11.83-11.87,3.95-4.39,8.77-7.83,13.07-11.84,4.37-3.88,8.39-9.01,14.03-11.2,6.36-1.65,13.65-1.11,18.74-5.95,4.39-3.8,7.42-8.82,10.44-13.71,4.2-6.58,7.5-13.67,11.34-20.47,1.13-1.98,2.38-3.93,4.54-4.88,1.07-.94,2.33-1.5,3.78-1.49,3.1.26,5.32,3.65,7.72,5.41,4.83,3.87,11.15,10.76,17.79,10.09,3.77-.72,5.4-5.09,5.01-8.55-.16-1.1-.54-1.83-.82-2.94-.61-3.95,1-7.78,1.86-11.57.64-2.29,1.33-4.71,2.33-7.13.04-.13.15-.24.27-.3,1.8-.42,3.77.03,5.64.37,0,.08.02.16.06.25.15.36.62.43.95.44.48-.02.93-.11,1.34-.29,1.35.24,2.71.43,4.09.49.63-.04,1.02-.67,1.19-1.4,3.64.26,7.26,1.23,10.92,1.37,7.84.59,15.74.08,23.52-.96,4.42-.59,8.5-2.45,12.57-4.18,3.99-1.71,7.94-3.52,11.68-5.76,4.66-2.72,9.01-6.01,13.87-8.39,2.77-1.03,5.57-2.03,8.12-3.48Z"/>
  <path class="cls-1" d="M2143.94,1314.1s-.01.02-.02.03c-4.13,5.5-5.29,12.79-6.59,19.37-.41,2.42-.66,4.88-1.37,7.21-1.67,1.12-3.83,1.58-5.75,2.29-2.09.67-4.21,1.21-6.33,1.71h-611.61c-.41-1.87-.7-3.76-.67-5.69-.16-1.49.7-2.9.35-4.37-1.91-4.18-7.5,3.14-10.24,3.67-2.49.9-5.2.78-7.74,1.42-3.79-2.31-6.83-5.83-9.73-9.17,3.42-7.05,7.12-15.53,3.51-23.21-1.63-2.41-3.88-4.37-5.87-6.5-2.08-2.22-4.07-4.59-6.12-6.91-3.49-3.87-7.61-7.1-11.71-10.29-2.41-2.36-5.38,1.54-6.66,3.49-1.7,2.81-2.83,5.92-3.9,9.01-.42,1.1-.67,2.28-1.3,3.29-.96,1.2-2.41,1.89-3.81,2.45-4.07,1.5-9.49,0-12.62,3.58-1.47,1.96-1.99,4.43-2.8,6.71-2.22,6.24-5.35,12.79-7.9,19.05-4.06-.24-7.72-2.76-11.6-3.9-3.08-.55-5.52-1.69-6.4-4.97-.79-1.95.61-5.68-2.56-5.61-2.36.1-5.08.31-6.8,2.12-1.13.95-1.64,2.57-3.02,3.18-3.22.93-6.69,0-9.77-1.03-3.02-.6-5.99-1.44-8.98-2.2-.38-.11-.8-.25-1.23-.4-.01-.69-.16-1.41-.83-1.56.16-1.32.83-2.47,1.33-3.68.39-.96.57-2.05.17-3.03-1.12-1.66-3.25-2.48-4.97-3.39,1.49-8.39,5.17-16.4,8.19-24.33,2.55-4.53,4.3-9.42,6.86-13.94,2.52-4.22,3.94-8.93,5.95-13.39,1.82-3.46.82-7.56-1.48-10.52-.41-.42-1.06-.19-1.52-.03-1.85.7-3.72,1.33-5.07,2.87-3.29,3.65-4.67,8.51-7.35,12.64-1.88,2.81-3.43,5.82-5.22,8.69-1.46,2.09-3.16,4.02-4.25,6.35-2.8,5.64-5.95,11.08-8.42,16.88-3.63,6.31-7.45,12.49-10.77,18.97-2.95,5.82-5.38,11.88-8.28,17.72-4.04,7.54-8.49,14.86-12.7,22.3-1.81,3.4-3.8,6.67-6.11,9.76-1.41,1.96-2.4,4.35-4.54,5.64-1.97,1.13-4.3.7-6.46.62-4.04-.15-8.05-.85-11.78-2.4-4.38-1.57-6.11,7.34-8.32,9.93-.94,1.21-1.38,2.7-2.18,3.99-.05,0-.1.01-.15.02-2.21-.25-4.26-1.28-6.47-1.61-1.79-.46-3.77-.46-5.45-1.25,1.15-5.77,3.19-11.26,4.99-16.84,0-.01.01-.02.01-.02.77-2.76,1.8-5.46,2.85-8.13.87-.99,1.66-2.07,2.27-3.23,1.3-2.25,2.48-6.69.11-8.55-1.86-.9-3.99-.92-5.92-1.55.57-6.92,2.28-13.77,3.08-20.68.46-4.75-5.05-6.94-8.9-7.71-4.76-.56-9.53-.86-14.21-1.93,2.4-13.84,5.16-27.57,7.94-41.42.88-4.29,1.85-8.6,2.8-12.88.34-1.41.98-2.98.39-4.39-.44-.98-1.34-.24-1.9.19-.53.29-1.15.49-1.75.28-1.15-.51-2.35-.41-3.54-.32-1.62-.55-2.91-1.82-4.53-2.37-1.14-.25-2.12-.93-3.15-1.51.3-1.2.62-2.4.93-3.65,1.12-4.54,3.4-9.1,2.33-13.86-.52-1.56-2.18-2.4-2.86-3.87-.4-1.8-.96-3.61-.87-5.57.55-1.82,1.72-3.37,2.37-5.16,1.35-3.75,2.19-7.66,3.61-11.39,1.06-2.77,1.95-5.62,3.17-8.33.54-.87,1.3-1.58,2.22-2.04,2.87-1.6,3.8-5.04,4.54-8.03,1.51-6.59,1.69-13.39,2.88-20.04,1.3-6.93,3.04-13.79,4.42-20.69.75-4.67.23-9.41-.05-14.09-.3-4.52-1.28-8.96-2.93-13.17-1.2-3.79-3.67-6.9-5.77-10.19-.27-1.73-.16-3.51-.03-5.25.42-3.62,1.33-7.08,1.6-10.76.2-2.41-.08-4.77-.2-7.19.42-1.31,1.52-2.48,2.73-3.13,2.81-1.12,6.03-1.14,8.52-3.04,4.72-4.91.67-12.87-2.25-17.73-2.9-5-7.74-8.39-11.59-12.6-1.77-1.42-2.37-2.9-3.13-4.96-.62-1.4-1.45-2.69-2.36-3.91-1.35-1.76-3.52-2.51-5.39-3.56-.01,0-.02,0-.03-.02-1.44-.75-2.89-1.5-4.34-2.24l-5.69-22.16c1.13-1.13,2.25-2.26,3.38-3.38,65.89-65.98,131.78-131.96,197.66-197.94t.02-.02c-.01.11-.03.23-.06.34-1.02,5.9-2.96,11.56-4.4,17.36-1.77,8.62-.85,17.42-.05,26.1-5.78,5.37-7.79,14.17-5.78,21.7.67,2.61,1.98,5.03,3.06,7.48.49,2.52.74,5.1.93,7.66.09,1.09.12,2.34.11,3.68.08,1.99-.76,3.8-1.19,5.7-1.05,4.58,1.98,10.75,6.25,12.67,6.6,1.24,11.21-5.65,17.38-6.76,2.58-.5,5.2-.23,7.8-.11,6.5-.11,13-.97,19.43-1.91,5.58-.87,10.63-3.53,16.11-4.77,11.65,6.78,17.55,21.4,20.54,34.01.69,3.7,1.19,7.43,1.8,11.15,1.16,6.79,3.17,13.4,4.55,20.15.21,1.53.72,3.25-.31,4.59-2,2.96-4.44,6.03-6.57,8.99-3.33,4.47-6.83,8.84-10.63,12.92-3.25,3.51-7.09,6.58-9.59,10.71-3.91,6.73-3.34,12.24.4,18.83,1.84,3.99,3.09,8.25,4.21,12.49.6,2.33,1.56,4.75,1.2,7.18-.63,2.15-2.52,3.7-3.95,5.34-1.98,2.04-4,4.01-6.19,5.81-6.15,4.57-11.03,10.36-10.45,18.49.64,7.44,2.16,14.87,4.14,22.06,1.54,4.97,4.2,9.45,6.98,13.8,6.83,11.59,10.49,17.59,24.91,19.39,14.82,1.01,24.82-11.89,37.27-17.69,8.58-3.9,16.96-10.2,19.13-19.86,1.58-6.01,1.6-12.28,1.85-18.45.42-9.52.15-19.48.94-29.1,4.21-1.42,9.79,1.02,13.14,3.64,3.33,2.77,5.27,6.73,7.19,10.51,1.71,3.96,3.7,7.78,6.2,11.29,2.1,2.99,4.02,6.3,6.91,8.6.99.73,2.12,1.17,3.3,1.41.12.2.26.38.43.54.22.21.55.43.87.31.25-.1.37-.36.43-.62.5.03,1.01.04,1.51.02.63-.15,1.01-.78,1.2-1.43,3.09,1.14,5.93,3.09,8.78,4.68,3.62,1.81,7.03,4,10.19,6.52,3.01,2.31,5.19,5.46,8.02,7.96,4.61,4.11,9.46,7.92,14.72,11.15,5.81,4.03,12.2,7.07,18.91,9.26,5.39.3,10.53,1.68,15.45,4.07,1.32.97,2.62,2.09,3.59,3.42.34,1.5-.31,3.05-.39,4.57-.64,4.64-.38,9.33-.25,14-.26,3.9.27,8.43,2.77,11.74,3.96,5.81,9.66,9.68,15.26,13.93,4.91,3.56,9.43,7.5,13.48,12.01,2.77,2.7,6.51,4.58,8.05,8.34.64,1.42.69,3.27.79,4.86.13,2.85.87,5.67,2.23,8.19,2.46,4.45,4.7,9.03,7.23,13.45,1.88,2.96,4.24,5.58,6.11,8.55,3.94,6.32,1.99,14.26.5,21.07-.9,4.34-.74,8.48-1.56,12.9-1.02,5.77-3.34,11.41-3.17,17.33.64,9.62,7.08,18.43,15.71,22.53,2.94,1.13,5.9,3.54,9.19,2.49,3.29-.87,6.56-1.9,9.74-3.07,1.74-2.06,2.49-4.89,4.18-7.04,3.1-3.4,8.27-3.01,12.47-3.06-.54,3.29,1.22,6.91,4.28,8.32,1.87.94,3.98,1,5.93,1.72,3.14,1.36,5.39,4.21,7.49,6.83,3.75,5.47,8.75,9.84,13.96,13.87,3.87,2.82,7.4,6.55,12.25,7.6,6.1,1.17,12.31,1.93,18.53,2.11,1.9,0,3.98.3,5.76-.53,3.52-1.93,4.36-6.29,6.05-9.64,2.47-5.39,6.87-9.55,11.9-12.58,5.9-3.1,13.27-1.13,18.26,2.85,1.75,1.58,4.67,3.39,4.72,5.95.12,2.82-.5,5.67-.18,8.46.65,2.64,3.69,3.4,5.8,4.57,1.86.87,3.71,1.8,5.64,2.49,4.93,1.84,10.41,1.17,15.43.02,6-1.81,11.01-5.92,15.73-9.89,5.21-5.62,13.36-7.06,20.6-5.18,5.13,1.43,9.85,4.03,14.61,6.39,7.23,3.57,14.46,7.3,20.53,12.62-.07,1.01,1.03,1.72,2.22,2.07.4.4.79.8,1.18,1.22.69.68,1.33.22,1.34-.63,0-.1,0-.19-.01-.29,6.38,2.65,13.08,4.71,20.04,4.78,4.72.2,9.45-.09,14.17-.21,5.69-.78,11.36-2.9,15.93-6.41,3.5-2.74,6.15-6.47,9.94-8.86,2.63-1.32,5.49-3.36,8.55-2.85,4.07,1.13,7.96,2.98,11.96,4.53,3.83,1.59,7.61,3.27,11.19,5.38,1.38.98,3.01,1.99,4.76,1.39,2.09-1.11,3.54-3.17,5.62-4.36,2.25-1.5,4.86-2.23,7.22-3.5,2.24-1.28,4.23-2.98,6.43-4.32,1.62-.27,3.19-.42,4.8-.54Z"/>
  <path class="cls-2" d="M2112.38,1348.64c-1.2.54-2.35,1.12-3.26,2.07-1.87,2.5-2.49,5.79-4.41,8.25-5.04.71-10.13-1.42-14.54-3.84-2.71-2.29-6.38-1.16-9.54-.45-1.13.2-2.21.41-3.34.66h-.01c-.11-.54-.38-1.01-.91-1.19-.45-.05-1.01-.49-1.39-.05-3.17-.73-5.54-2.88-8.79-3.56-3.03-.19-6.35.35-8.93,2.04-2.57,1.78-3.6,5.1-6.44,6.54-8.26,3.09-17.2.43-25.71.51-1.27.14-2.61.22-3.77.8-2.11,1.64-2.46,4.77-2.92,7.25-.83,6.89-.32,13.84-.73,20.75-3.94,1.16-7.26,3.82-11.22,4.96-4.59.95-8.98,2.51-13.39,4.09-2.16.3-4.28-.35-6.42-.49-2.02-.28-3.97.52-5.96.45-4.08-.79-7.41-3.68-11.52-4.43-2.91-.2-5.28,2.42-6.89,4.56-2.73,4.09-3.24,9.15-3.28,13.95.13,2.3-.15,4.7.14,6.99-.23.1-.43.22-.57.36-1.07.96-1.47,1.93-2.92,2.71-4.44,2.96-9.36,4.48-14.42,6.62-3.86,1.63-7.28,3.65-10.24,6.74-.95,1.21-1.32,2.77-1.87,4.19-1.69,5.7-4.98,10.66-7.79,15.84-3.48,1.17-8,.91-10.41,4.06-3.16,5.51-3.6,12.16-5.14,18.24-1.22,6.49-3.47,12.67-5.74,18.85-1.21,3.57-2.2,7.22-3.48,10.77-.34.42-.28,1.01.26,1.19,2.1,2.91,3.47,6.9,6.37,9.28,7.93,4.53,9.96,14.11,12.62,22.17-2.41,1.91-4.2,4.47-6.27,6.72-2.5,2.74-5.24,5.48-7.61,8.37-3.07,3.36-6.54,6.3-8.54,10.48-6.31.62-13.17.44-19.59.68-3.55.2-7.71-.15-10.25,2.84-3.86,3.62-5.85,8.53-7.76,13.34-4.11,8.74-7.46,17.86-9.88,27.21-1.8,7.59-3.64,15.38-4.72,22.98-2.58.97-5.11,2.07-7.57,3.34-1.42.92-3.79,1.21-4.33,3.02-.83,4.73-3.35,8.89-4.91,13.38-1.82,4.22-4.08,8.14-6.35,12.16-1.18,1.95-1.89,4.41-3.65,5.9-.24.26-1.59,1.1-2.98,2.07-.06-.19-.13-.37-.23-.53-.15-.3-.5-.61-.86-.4-.58.34-.81,1.1-1.1,1.68-.89,1.83-1.79,3.64-2.6,5.5-2.19,4.67-2.74,9.82-3.01,14.91-.1,3.52-1.17,7.23.12,10.63,1.39,2.74,4.48,4.16,5.93,6.91,2.72,4.8,4.8,9.89,5.42,15.44-.01.84-.02,1.72-.32,2.51-.66,1.4-2.12,2.3-3.06,3.51-2.18,2.49-3.58,5.54-4.89,8.55-2.28,4.47,1.41,8.64,3.7,12.26,1.29,1.92,2.52,3.86,3.75,5.81.6,1.29,1.77,1.99,3.12,2.32.95.25,2.19,1.52,3.29.79,2.81-1.91,6.13-3.08,9.52-2.09.46.14.81.41,1.03.83.99,1.79,1.71,3.73,2.5,5.62,1.83,4.52,3.72,9.04,5.66,13.69-.71.12-1.1.79-1.56,1.27-2.45,2.18-5.68,3.21-8.19,5.3-2.47,2.27-5.04,4.69-6.36,7.83-.55,2.18-1.67,3.88-1.57,6.31.17,1.45,1.32,2.53,2.23,3.56,1.07,1.19,2.14,2.38,3.22,3.56.35.37.76.89,1.27,1.07,2.61,1.03,4.87,2.67,6.87,4.71-4.01,11.44-13.68,19.94-22.39,27.96-2.43,2.26-4.56,4.88-7.33,6.73-2.23,1.38-4.96,1.6-7.17,3.01-3.74,2.39-5.56,6.66-7.02,10.67-2.06,4.95-4.07,10.04-7.12,14.46-3.26,3.72-7,6.99-10.56,10.4-5.06,4.13-9.01,9.29-13.43,14.04-1.12,1.03-2.46,1.76-3.75,2.55-1.79,1.17-3.6,2.57-5.79,2.81.05-2.14.29-4.36.87-6.41,1.16-1.54,3.38-3.87,1.69-6.06-1.13-.64-3.16-.86-4.49-1.06-.97.21-1.67,1.07-2.34,1.75-1.34,1.48-1.95,3.41-2.47,5.29-.26,1.64-1.52,3.81-1.11,5.5-1.11,7.97.49,16.15,2.12,23.98,1.67,9.16,1.44,18.64,4.11,27.62-3.51,4.27-8.03,8.2-9.72,13.62-.86,3.01-.83,6.17-1.27,9.26-4.87,1.26-8.71,4.58-12.91,7.18-.24.15-.56.34-.91.55-.51-.19-1.22.3-1.81,1.58-1.48,2.86-2.99,5.71-4.67,8.46-1.88,3.31-2.9,6.99-4.66,10.36-1.53,3.14-2.69,6.52-4.37,9.56-1.6.81-3.22,1.58-4.8,2.42-4.44,2.14-9.05,3.79-13.7,5.41-2.92.89-5.69,2.57-8.84,2.32-3.15-1.46-5.59-4.24-8.39-6.29-4.09-3.12-7.99-6.45-11.86-9.81.14-.52.13-1.06-.06-1.54-1.38-1.24-3.28-1.79-4.97-2.53-1.98-1.03-4.14-.19-6.2.1-2.6.49-5.25.83-7.67,1.97-3.88,1.77-7.78,3.57-10.97,6.45-2.51,1.89-5.46,3.08-7.92,5.04-4.3,3.74-8.75,7.15-13.29,10.59-3.88,3.16-8.16,7.76-13.62,6.9-2.48-.8-4.38-2.88-6.2-4.67,1.63-3.11,2.73-6.64,1.23-10.03-1.91-6.33-5.45-12.08-10.13-16.74-3.86-3.57-7.87-6.99-11.69-10.62-1.67-1.45-4.41-3.18-3.17-5.76,4-7.68,19.56-23.62,6.67-29.67-5.3-2.84-11.27-4.88-17.35-4.17-2.85.67-5.82,1.66-8.72.56-1.4-1.23-2.23-2.94-3.24-4.48-4.08-7.31-7.64-6.22-14.5-3.56-2.99.61-6.09,1.53-9.14,1.36-1.95-.44-3.48-2.69-2.93-4.65,1-4.21.54-8.49.04-12.72-.38-4.97,2.86-9.2,3.96-13.9,1.01-4.13,2.67-8.29,2.44-12.6-.23-2.26-.8-4.47-1.04-6.73,2.39-1.31,5.25-.94,7.72-1.98,4.13-2.08,8.95-4.29,11.88-8.03,1.07,1.02,1.78-.95,1.78-1.83,1.02-6.9-2.22-13.46-5.04-19.55-1.33-5.16-4.31-9.59-7.16-14.05-2.61-4.17-5.15-8.39-7.71-12.59.61-1.59-.12-3.21-1.36-4.27-1.44-1.48-2.93-2.91-4.38-4.39-4.6-4.67-7.06-10.92-10.64-16.33.34-1.68.93-3.28,1.54-4.88,1.08-3.08.29-6.48-.65-9.5-1.13-3.04-4.16-4.68-6.23-7-1.97-2.38-4-4.71-5.9-7.15.12-3.4-.12-6.83.43-10.2.75-1.69,1.67-3.33,2.47-5.01,1.96-4.73,4.5-8.99,9.18-11.47,2.43-1.56,5-3.03,7.88-3.53.69-.06,1.38-.21,1.9-.68,6.61-3.08,9.83-9.89,11.61-16.61,1.34-4.13,1.58-8.7.08-12.82-.89-2.41-2.93-4.03-4.92-5.51-1.86-1.31-3.65-2.81-5.65-3.89-.45-.2-.9.07-1.15.44-2.48,1.4-5.57.68-8.29.76-.91-.02-1.85.18-2.75-.03-1.88-6.78-5.12-14.04-11.54-17.58-1.7-.87-3.42-1.95-5.3-2.33-2.07-.08-4.19-.47-6.25-.18-.93.29-1.52,1.26-1.77,2.16-.87,6.44-9.73,4.68-14.23,6.99-5.07,1.64-3.66,7.49-3.33,11.55-.28,2.68-4.86,5.31-7.31,5.78-2.5.3-4.94-.67-7.3-1.34-3.33-1.03-6.66-2.05-9.92-3.28-.69-2.38-1.54-4.72-2.17-7.12-1.84-4.63-6.14-7.43-9.76-10.6-2.24-1.95-4.59-4.37-6.52-6.74-3.01-3.33-3.63-7.8-6.64-11.16-.35-.33-.76-.49-1.24-.6-3.15-.75-6.27-1.59-9.41-2.39-3.93-.96-7.95-2.21-12.04-2.09-2.38.86-4.94.94-7.43,1.35-2.44.29-5.27,1.4-7.31-.56-1.75-1.67-3.86-3.26-4.82-5.54-.69-4.42-.85-8.94-1.2-13.4-.21-4.33.34-8.96-1.41-13.07-2.05-4.37-5.1-8.24-7.93-12.15,1.75-2.55,2.55-6.72,6.06-7.3,1.46-.14,2.59-1.09,3.37-2.28,3.03-5.48,1.56-12.1.54-17.93-.46-2.61-1.14-5.17-1.74-7.75-.33-2.06-1.07-4.27-.17-6.28,1.57-3.59,5.39-5.41,8.67-7.16,2.6-1.39,6.09-.85,8.91-.33.82,2.12,1.3,4.43,2.55,6.4,5.13,7.9,15.92,5.48,23.92,6.19,1.15.27,2.31.39,3.47.57.92.03,1.19-1.04,1.16-2,.1-.12.19-.24.28-.37,3.1-4.28,3.73-9.69,4.36-14.79.65-3.01-.38-5.87-1.07-8.76-.75-5.44-1.44-10.89-2.9-16.2-.49-2.29.8-4.39,1.39-6.53,2.09-5.43-2.94-9.72-6.01-13.55.42-2.63,1.22-5.32,2.75-7.52,1.75-1.41,4.18-1.62,6.35-1.75,5.01-.02,7.3.31,8.94-5.21,2.67-9.17,1.67-18.89,3.12-28.27,4.02-2.9,8.89-5.05,13.85-5.54,4.04-.18,7.84,1.44,11.62,2.65.46.14.79-.18,1.01-.6.21.02.42.04.63.06,6.28-.03,9.4-6.66,11.99-11.53,1.43-2.94,2.93-5.88,3.8-9.05,1.35-5.19,1.64-10.57,2.4-15.85.15-4.8,5.21-6.61,8.19-9.59,3.29-2.92,6.49-5.97,9.61-9.09.98-.89,1.88-1.9,2.27-3.2,3.06-9.78-4.56-20.75-7.48-29.91-.73-3.18.07-6.68,1.92-9.34,1.42-1.73,3.16-3.16,4.58-4.89,2.61-3.37,5.42-6.63,7.62-10.3,2.17-3.78,3.37-7.96,4.57-12.13,1.96-5.93,2.6-12.29.61-18.31-.13-.51-.27-1.03-.41-1.54h599.11Z"/>
  <path class="cls-5" d="M610.75,1639.17c-93.87,93.82-187.65,187.64-281.35,281.47-.45.04-.9.09-1.33.19-.13.52-.27,1.03-.41,1.55-.01.01-.03.03-.04.04-4.04,4-8.04,8.04-12.04,12.04.02-.06.05-.11.07-.16-.11.14-.23.29-.34.43l-.87.87c-.07.06-.15.11-.22.15-.64.43-1.17.96-1.51,1.58,0,0-.01,0-.01.01-4.46,4.46-8.91,8.91-13.32,13.37-.02.01-.04.03-.05.05.3-.64.71-1.35.62-1.86-.01,0-.03-.03-.04-.04,4.46-8.88,8.42-18.08,14.44-26.04,5.29-7.78,10.2-15.88,14.43-24.29,4.67-10.83,2.42-22.94,4.96-34.24.77-4.75,2.07-8.29,3.75-11.35.7.16,1.31-.89,1.78-1.31,2.6-3.52,4.48-8.41,2.79-12.69-.16-.24-.37-.31-.57-.27-.76-2.22-1.63-4.4-2.63-6.51-1.31-2.68-3.42-5.49-2.2-8.59,1.45-5.28,7.21-7.78,9.08-12.87,2.4-5.73.43-14.52-3.05-19.55-2.28-2.85-5.36-4.93-8.45-6.83-5.13-3.31-10.65-5.91-16.37-8.05-5.02-2.31-11.18-2.64-15.4-6.42-4.72-7.11-9.63-14.64-10.37-23.37,1.11-4.4,4.61-8.12,7.1-11.86,5.05-6.64,10.53-12.99,16.71-18.6,2.95-2.64,6.07-5.07,8.86-7.87,6.48-5.75,6.26-13.77,4.57-21.61-.8-5.31-4.43-9.95-4.5-15.36,3.53-11.76,12.46-21.12,19.91-30.6,2.95-3.61,6.11-7.22,10-9.85,9.03-5.33,19.5-8.02,27.88-14.51,11.57-7.68,14.01-19.35,17.57-31.86,1.06-4,2.36-8.12,1.96-12.31.15-.73-.21-2.02-.85-3.51.07.05.13.11.2.16.32-.64.65-1.26.98-1.89-1.14-.87-2.32-1.69-3.52-2.48h0c-2.04-3.01-4.52-5.3-5.78-3.65-4.77-2.95-9.45-5.99-13.06-10.36-1.05-1.35-2.18-2.66-2.97-4.19-1.16-3.04-1.22-6.38-1.69-9.57-1.03-7.78-2.99-14.13-11.65-15.63-16.84-4.37-33.73-7.84-50.28-13.33-5.11-1.93-20.33-5.07-22.52-10.08-.71-4.09,4.32-7.22,6.67-10.07,3.02-3.07,5.94-6.25,8.72-9.54,2.88-3.55,5.62-7.27,8.02-11.19,2.43-3.76,3.92-8,6.05-11.91,3.2-5.04,6.56-10.06,10.83-14.27,5.09-5.13,10.51-10.32,13.29-17.14,2.99-6.93,4.3-15.61.22-22.36-3.28-4.95-8.58-8.32-13.78-10.96-.31-.1-.63-.16-.94-.02-.29.13-.38.5-.4.8.02.29.11.61.26.91-4.83-1.06-9.42-2.74-13.19-6.15-2.64-2.62-5.09-5.56-8.32-7.48-6.98-3.94-9.97-6.51-18.3-3.58-3.4,1.18-6.59,3.42-10.27,3.53-1.27-.72-2.41-1.72-3.62-2.55-3.23-2.27-6.29-4.75-8.95-7.68-3.36-3.3-7.28-6.06-11.38-8.38-5.55-2.79-11.42-4.92-17.12-7.4-3.68-1.5-7.53-2.41-11.35-3.41h263.03l.04.15c.41,1.82.79,3.66,1.39,5.42,1.75,5.79,3.29,11.64,5.17,17.39,1.94,5.13,4.2,9.97,6.39,15.05,3.85,7.95,6.54,16.48,11.28,23.98,3.61,5.61,8.32,10.46,13.55,14.58,7.75,5.63,11.06,7.69,14.14,17.2,3.53,10.34,2.93,21.63,1.47,32.33-1.78,10.9-4.99,21.6-5.49,32.68-.21,6.56-1.12,13.06-1.69,19.59-.44,6.28.56,12.53,1.21,18.75.34,10.85,5.29,17.57,14.05,23.57,6.49,4.48,13.51,8.18,19.94,12.77,1.77,1.2,3.11,2.75,3.97,4.85,1.88,5.3,3.69,10.63,5.68,15.89,1.09,3.66,1.4,7.49,2.55,11.14,1.47,6.58,7.73,10.21,12.64,14.15,4.78,3.52,9.46,7.16,13.97,11.01Z"/>
  <path class="cls-4" d="M1007.28,1290.17c-.39,2.48-.24,4.99.25,7.44-1.79.66-3.79.14-5.54.92-1.64.74-2.82,2.1-3.98,3.43-1.95,1.92-3.47,4.36-3.87,7.11-.56,3.72,1.1,7.29,3.03,10.35,1.19,2.1,1.9,4.4,2.87,6.6.47,1.11,1.12,2.16,1.66,3.25-.41.96-.44,2.08.26,2.4.05.31.08.62.14.92.06.33.12.65.16.98-1.59,2.29-2.69,4.82-3.57,7.45-.51.98-1.19,2.21-.72,3.32.01.04.03.08.05.12.03.02.06.04.08.06v.19s.14,3.96.14,3.96c-.41.29-.76.76-.97,1.29-2.66.24-5.42.95-7.09,3.22-1.34,1.7-2.71,3.37-4.04,5.09-.81,1.05-1.56,2.17-2.48,3.11-.19-.11-.38-.19-.57-.22-.51-.08-1.2-.04-1.2.64-2.63.92-5.34,1.41-8.1,1.7-2.72.42-1.89,3.92-1.35,5.78-.08.13-.19.24-.31.33-1.27.58-2.87.56-4.28.74-1.24.15-2.47.51-3.73.39-.64-.15-1.31-.29-1.99-.43l-2.36-.55c-1.13-.29-2.22-.67-3.17-1.2-1.51-1.87-1.2-4.49-2.21-6.58-1.04-2.71-3.43-4.73-6.32-5.15-1.72-.29-3.79-.86-5.68-.86-1.76,0-3.37.49-4.44,2.15-3.25.69-6.71,2.03-10.02,1.52-2.21-2.65-5.38-4.71-8.72-5.59-.87-.03-1.36.77-1.85,1.38-.59.85-.12,1.94.24,2.78.01.05.02.11.03.16v.04c-.6.36-1.16.78-1.65,1.17-.52.4-1.19.75-1.29,1.46-.12.91.26,1.82.72,2.57,1.75,2.51,3.42,5.32,6.35,6.55,3.75,3.57,7.3,7.34,10.83,11.14-.93.63-1.95,1.42-3.15,1.54-.75-.36-1.29-1.07-1.96-1.55-.06-.06-.13-.11-.2-.16-2.33-1.79-4.49-3.95-6.7-5.9-1.16-1.26-2.38-2.48-3.98-3.15-1.25-.78-2.59-.58-2.82,1.04-.21,2.15,1.44,3.78,3.02,4.95,1.58,1.96,3.39,3.72,5.18,5.48-1.24.27-2.42.83-3.44,1.57-.21.11-.43.23-.67.22-1.45-.57-2.8-1.45-4.36-1.73-.76-.14-1.83-.24-2.33.49-.61,1.21-.66,2.73-.48,4.05.86,5.21,5.88,7.68,9.5,11.2.24.36.55.68.9.97,0,.01.01.01.01.01.64,1.81,2.45,3.08,4.3,4.25l3.71,2.53s.02.01.03.02c.07.07.14.13.21.17.02.02.05.03.07.05l.03.03c3.33,3.58,5.08,6.16,4.5,11.79-.17,2.21-1.17,4.29-.88,6.5.59,4.25,3.59,7.66,5.46,11.41,2.13,4.34,4.42,8.63,6.42,13.05,3.75,6.29.21,13.12-.67,19.7-.46,2.75-.71,5.59-1.29,8.29,0,.01-.01.03-.01.04-13.38,5.54-26.77,11.06-40.16,16.57l-2.1-.12-86.47-35.63-12.35-5.09-4.06-1.66c-.19-.08-.39-.16-.58-.24-.31-.15-.52-.43-.68-.72-1.9-4.12-3.51-8.39-5.37-12.78-12.4-29.95-24.81-59.87-37.21-89.82l1.18-3.96c8.29-20.28,16.77-40.5,25.15-60.76l15.83-38.24,2.47-2.12,7.56-3.14,46.88-19.42c15.62-6.47,31.25-12.95,46.88-19.42.05-.03.11-.06.16-.09l.66-.27,2.05.14,103.22,42.73.08.13,1.87,3.33c1.75,4.03,3.32,8.14,5.04,12.18.29.71.59,1.42.88,2.13-3.51,5.49-4.19,11.52-4.41,18.54-.29,3.36-1.5,6.5-2.23,9.74Z"/>
</svg>